<svg xmlns="http://www.w3.org/2000/svg" width="37.387" height="37.387" viewBox="0 0 37.387 37.387">
  <g id="close" transform="translate(-1158.613 -397)">
    <g id="Ellipse_35" data-name="Ellipse 35" transform="translate(1158.613 397)" fill="#fff" stroke="#8457a3" stroke-width="2">
      <circle cx="18.693" cy="18.693" r="18.693" stroke="none"/>
      <circle cx="18.693" cy="18.693" r="17.693" fill="none"/>
    </g>
    <path id="close-2" data-name="close" d="M1350.138,308.225a.58.58,0,0,1-.472-.9,2.83,2.83,0,0,1,.475-.548q2.834-2.84,5.673-5.675c.685-.685.685-.687.024-1.349q-2.837-2.838-5.673-5.676a4.088,4.088,0,0,1-.481-.544.563.563,0,0,1,.088-.79.543.543,0,0,1,.736-.035,4.164,4.164,0,0,1,.543.484c1.945,1.941,3.9,3.873,5.822,5.836.406.415.643.4,1.042-.007,1.906-1.945,3.843-3.86,5.77-5.785a6.389,6.389,0,0,1,.477-.45.6.6,0,0,1,.858-.022.571.571,0,0,1,.019.849,5.765,5.765,0,0,1-.493.536c-1.873,1.875-3.729,3.769-5.635,5.609-.549.53-.5.831.021,1.333,1.919,1.863,3.794,3.771,5.685,5.663a5.1,5.1,0,0,1,.447.48.567.567,0,0,1-.005.8.586.586,0,0,1-.853.048,5.269,5.269,0,0,1-.535-.495q-2.736-2.732-5.47-5.465c-.922-.916-.693-.923-1.647.026q-2.819,2.8-5.626,5.619C1350.706,307.98,1350.5,308.242,1350.138,308.225Z" transform="translate(-179.948 115.421)" fill="#8457a3" fill-rule="evenodd"/>
  </g>
</svg>
