<svg xmlns="http://www.w3.org/2000/svg" width="19.248" height="14.116" viewBox="0 0 19.248 14.116">
  <path id="Path_1" data-name="Path 1" d="M828.112-145.4a4.515,4.515,0,0,0-.772-1.993,2.756,2.756,0,0,0-1.919-.856c-2.692-.2-6.729-.2-6.729-.2h-.022s-4.026,0-6.718.2a2.744,2.744,0,0,0-1.929.856,4.521,4.521,0,0,0-.772,1.993,30.717,30.717,0,0,0-.2,3.234v1.534a30.208,30.208,0,0,0,.2,3.234,4.589,4.589,0,0,0,.772,2,3.148,3.148,0,0,0,2.128.855c1.533.157,6.541.209,6.541.209s4.037-.021,6.729-.209a2.706,2.706,0,0,0,1.919-.855,4.583,4.583,0,0,0,.772-2,31.76,31.76,0,0,0,.188-3.234v-1.534a32.3,32.3,0,0,0-.188-3.234Zm-6.217,3.8-5.206,2.806v-5.633l2.358,1.283Z" transform="translate(-809.052 148.45)" fill="#51aaaa" fill-rule="evenodd"/>
</svg>
