<svg xmlns="http://www.w3.org/2000/svg" width="19.237" height="15.388" viewBox="0 0 19.237 15.388">
  <path id="Path_1" data-name="Path 1" d="M701.773-146.312a8.416,8.416,0,0,1-2.264.615,3.89,3.89,0,0,0,1.742-2.159,8.04,8.04,0,0,1-2.514.949,3.935,3.935,0,0,0-2.89-1.231,3.921,3.921,0,0,0-3.944,3.881,4.056,4.056,0,0,0,.115.887,11.2,11.2,0,0,1-8.138-4.058,3.917,3.917,0,0,0-.542,1.951,3.882,3.882,0,0,0,1.752,3.234,3.823,3.823,0,0,1-1.783-.48v.052a3.674,3.674,0,0,0,.271,1.4,3.935,3.935,0,0,0,2.9,2.4,3.877,3.877,0,0,1-1.043.146,3.516,3.516,0,0,1-.742-.083,3.981,3.981,0,0,0,3.684,2.713,7.983,7.983,0,0,1-4.893,1.659c-.324,0-.626-.021-.949-.052a11.391,11.391,0,0,0,6.051,1.742,10.979,10.979,0,0,0,10.964-8.7,10.668,10.668,0,0,0,.261-2.347v-.5a8.174,8.174,0,0,0,1.961-2.014Z" transform="translate(-682.536 148.138)" fill="#707070" fill-rule="evenodd"/>
</svg>
