<svg xmlns="http://www.w3.org/2000/svg" width="29.376" height="15.836" viewBox="0 0 29.376 15.836">
  <g id="Group_1" data-name="Group 1" transform="translate(-160.156 -355.343)">
    <path id="Path_1" data-name="Path 1" d="M1554.8,507.074c-.221-.221-.45-.436-.682-.647a26.232,26.232,0,0,0-7.277-4.829,15.777,15.777,0,0,0-6.256-1.378,15.41,15.41,0,0,0-5.783,1.17,26.122,26.122,0,0,0-8.477,5.7,1.463,1.463,0,0,0,0,2.1c.174.177.355.347.538.515a26.4,26.4,0,0,0,7.449,4.98,16.307,16.307,0,0,0,5.054,1.319,15.062,15.062,0,0,0,7.035-1.145,26.2,26.2,0,0,0,8.4-5.658A1.468,1.468,0,0,0,1554.8,507.074Zm-14.249,6.709a5.645,5.645,0,1,1,5.662-5.637A5.638,5.638,0,0,1,1540.547,513.783Z" transform="translate(-1365.72 -144.878)" fill="#adadad" fill-rule="evenodd"/>
    <path id="Path_2" data-name="Path 2" d="M1558.631,512.872a2.931,2.931,0,1,0,2.938,2.924A2.932,2.932,0,0,0,1558.631,512.872Z" transform="translate(-1383.793 -152.543)" fill="#adadad" fill-rule="evenodd"/>
  </g>
</svg>
