<svg xmlns="http://www.w3.org/2000/svg" width="59.422" height="50.698" viewBox="0 0 59.422 50.698">
  <g id="icon" transform="translate(-848.037 -329.738)">
    <path id="Path_51332" data-name="Path 51332" d="M892.909,345.144a1.154,1.154,0,0,1-.9-1.342q.04-5.582,0-11.164a2.762,2.762,0,0,0-2.677-2.9,2.811,2.811,0,0,0-3.038,2.67c-.064.538-.033,1.092-.143,1.619-.6,2.877-2.963,4.636-6.543,5.016-3.632.385-7.271.075-10.265.2-3.105,0-5.572-.009-8.039,0a17.2,17.2,0,0,0-2.627.112,12.424,12.424,0,0,0,1.095,24.7c1.569.122,1.634.192,1.636,1.829,0,3.262-.033,6.524.014,9.784a4.786,4.786,0,0,0,4.8,4.764,4.727,4.727,0,0,0,4.719-4.819c.021-1.756.037-3.513-.012-5.268a1.061,1.061,0,0,1,.857-1.247,7.04,7.04,0,0,0,3.763-3.143c.384-.623.193-1.7,1.18-1.838a11.779,11.779,0,0,1,2.376.052,11.963,11.963,0,0,1,1.361.215c3.753.692,5.458,2.553,5.788,6.278a3.11,3.11,0,0,0,1.284,2.467,2.638,2.638,0,0,0,2.848.21,2.888,2.888,0,0,0,1.635-2.749c0-3.638.02-7.276-.015-10.913-.008-.791.126-1.23.984-1.541a6.859,6.859,0,0,0,4.515-6.454A6.936,6.936,0,0,0,892.909,345.144Zm-24.99,20.5a12.375,12.375,0,0,0-.065,1.493c.016,2.8.058,5.6.035,8.4a1.746,1.746,0,1,1-3.481-.008c-.015-2.8.018-5.6.032-8.4-.015-.332-.04-.664-.043-1-.014-2.045-.006-1.951,2.009-2.077C867.724,363.977,868.115,364.425,867.919,365.648Zm3.143.5c-.273-1.948-.045-2.181,1.95-1.949A3.55,3.55,0,0,1,871.062,366.144Zm17.9-3.806v5.256a9.159,9.159,0,0,0-4.918-5.149,17.988,17.988,0,0,0-7.317-1.371c-5.544.009-11.089.065-16.633.011a9.257,9.257,0,0,1-8.5-6.286c-.576-1.627-.493-1.728,1.305-1.585.416-.024.832-.043,1.248-.073a1.485,1.485,0,0,0,.022-2.969c-.662-.067-1.337,0-2-.04-.349-.022-.945.23-.849-.524.068-.536.09-1.1.906-1.057.833.048,1.67.011,2.506.01,1.583,0,2.239-.46,2.219-1.539-.019-1.035-.651-1.467-2.157-1.474-.407,0-.814,0-1.458,0a8.5,8.5,0,0,1,6.294-3.227c4.968-.126,9.942-.043,14.913-.074.669,0,.855.233.846.872-.03,2.172,0,4.345-.015,6.517a1.572,1.572,0,0,0,1.364,1.791c1.267-.094,1.693-.868,1.684-2.034-.015-1.879.073-3.762-.031-5.634-.068-1.219.293-1.634,1.545-1.766a10.552,10.552,0,0,0,7.592-3.847,15.306,15.306,0,0,0,1.441-2.633Zm5.492-10.518a3.686,3.686,0,0,1-2.385,3.444v-7.227A3.876,3.876,0,0,1,894.457,351.82Z" transform="translate(0)" fill="#fff"/>
    <path id="Path_51333" data-name="Path 51333" d="M1008.636,390.768c-1.748-.082-3.5-.09-5.252-.012a1.354,1.354,0,0,0-1.35,1.513,1.381,1.381,0,0,0,1.42,1.441c.831.047,1.668.01,2.5.011.876,0,1.755.045,2.626-.012a1.478,1.478,0,0,0,.053-2.941Z" transform="translate(-102.478 -40.569)" fill="#fff"/>
    <path id="Path_51334" data-name="Path 51334" d="M1000.394,371.951c1.263-.949,2.472-1.973,3.659-3.016a1.207,1.207,0,0,0,.264-1.5,1.444,1.444,0,0,0-1.571-.911.6.6,0,0,0-.385.073,25.983,25.983,0,0,0-3.912,3.278,1.245,1.245,0,0,0,.136,1.807A1.3,1.3,0,0,0,1000.394,371.951Z" transform="translate(-99.873 -24.476)" fill="#fff"/>
    <path id="Path_51335" data-name="Path 51335" d="M1003.9,410.178c-1.036-.9-2.095-1.776-3.167-2.633a1.413,1.413,0,0,0-2.114.125,1.4,1.4,0,0,0,.25,2.183c1.041.9,2.1,1.77,3.156,2.648a1.346,1.346,0,0,0,.713.364,1.6,1.6,0,0,0,1.588-.894A1.4,1.4,0,0,0,1003.9,410.178Z" transform="translate(-99.926 -51.502)" fill="#fff"/>
  </g>
</svg>
