<svg xmlns="http://www.w3.org/2000/svg" width="31.915" height="40.499" viewBox="0 0 31.915 40.499">
  <g id="Group_2" data-name="Group 2" transform="translate(-204.219 -309.501)">
    <g id="Group_1" data-name="Group 1" transform="translate(17 -34)">
      <g id="ลบ" transform="translate(-892 -1045)">
        <path id="path" d="M32.776,11.2H7.135V36.839a4.276,4.276,0,0,0,4.276,4.274H28.5a4.272,4.272,0,0,0,4.274-4.274V10M25.3,2.648H14.614L12.479,4.787H7.135A2.137,2.137,0,0,0,5,6.921V9.06H34.915V6.921a2.138,2.138,0,0,0-2.139-2.135h-5.34L24.61,2.374" transform="translate(1075.219 1386.888)" fill="none" stroke="#51aaaa" stroke-width="2" fill-rule="evenodd"/>
        <path id="Path_13" data-name="Path 13" d="M0,0V14.542" transform="translate(1089.205 1405.202)" fill="none" stroke="#51aaaa" stroke-width="2"/>
        <line id="Line_38" data-name="Line 38" y2="14.542" transform="translate(1094.798 1405.202)" fill="none" stroke="#51aaaa" stroke-width="2"/>
        <line id="Line_39" data-name="Line 39" y2="14.542" transform="translate(1100.391 1405.202)" fill="none" stroke="#51aaaa" stroke-width="2"/>
      </g>
    </g>
  </g>
</svg>
