<svg xmlns="http://www.w3.org/2000/svg" width="43.929" height="49.276" viewBox="0 0 43.929 49.276">
  <g id="icon" transform="translate(-633.778 -385.25)">
    <path id="Path_51353" data-name="Path 51353" d="M655.454,385.25h.962a.473.473,0,0,0,.126.064,3.62,3.62,0,0,1,2.976,3.365c.028.617,0,1.237,0,1.872h3.734a9.876,9.876,0,0,1,.011-1.314,7.733,7.733,0,0,1,.4-1.9,3.59,3.59,0,0,1,2.756-2.083h.962c.025.019.047.051.074.056a3.73,3.73,0,0,1,3.017,3.945c-.019.427,0,.856,0,1.334.49,0,.919-.007,1.349,0A5.721,5.721,0,0,1,677.7,396.5q.014,16.069,0,32.139a5.714,5.714,0,0,1-5.9,5.882c-1.684.005-3.368,0-5.052,0q-13.472,0-26.943,0a5.84,5.84,0,0,1-2.662-.53,5.7,5.7,0,0,1-3.359-5.486q.007-14.771,0-29.541c0-.946-.016-1.893.012-2.839a5.679,5.679,0,0,1,5.323-5.51c.745-.048,1.5-.007,2.293-.007a10.705,10.705,0,0,1,.011-1.375,7.778,7.778,0,0,1,.4-1.906,3.588,3.588,0,0,1,2.757-2.083h.962c.025.019.047.051.074.056a3.734,3.734,0,0,1,3.017,3.935c-.017.427,0,.855,0,1.3h3.716c0-.5,0-.958,0-1.419a3.869,3.869,0,0,1,1-2.722A4.22,4.22,0,0,1,655.454,385.25Zm18.871,13.812H637.161v.462q0,14.5,0,29.006a3.372,3.372,0,0,0,.076.809,2.384,2.384,0,0,0,2.558,1.81c10.582,0,21.165-.016,31.748.017a2.6,2.6,0,0,0,2.8-2.781c-.039-9.589-.019-19.177-.019-28.765ZM646.6,392.289h0c0-1.089.009-2.178,0-3.266a1.649,1.649,0,0,0-1.553-1.744,1.631,1.631,0,0,0-1.6,1.7c-.024,2.193-.017,4.387,0,6.581a1.643,1.643,0,0,0,.936,1.562A1.572,1.572,0,0,0,646.6,395.6C646.62,394.5,646.6,393.394,646.6,392.289Zm21.846.006h0c0-1.089.008-2.178,0-3.266a1.649,1.649,0,0,0-1.546-1.75,1.626,1.626,0,0,0-1.607,1.69c-.026,2.209-.018,4.419,0,6.629a1.617,1.617,0,0,0,.927,1.517,1.563,1.563,0,0,0,2.219-1.458C668.472,394.537,668.447,393.416,668.447,392.3Zm-14.062-.02h-.006c0,1.1-.013,2.209,0,3.314a1.569,1.569,0,1,0,3.133.124,3.348,3.348,0,0,0,.021-.383q0-3.05,0-6.1a3.08,3.08,0,0,0-.064-.667,1.553,1.553,0,0,0-3.08.3C654.359,390,654.385,391.138,654.385,392.275Z" fill="#fff"/>
    <path id="Path_51354" data-name="Path 51354" d="M652.32,446.078H667.8v10.543H652.32Z" transform="translate(-12.76 -41.859)" fill="#fff"/>
    <path id="Path_51355" data-name="Path 51355" d="M652.539,495.009v-2.521H684.88c0,.774.007,1.538-.011,2.3,0,.075-.147.179-.244.209a1.32,1.32,0,0,1-.382.01h-31.7Z" transform="translate(-12.91 -73.795)" fill="#fff"/>
    <path id="Path_51356" data-name="Path 51356" d="M652.635,515.552v-2.464h32.278v2.464Z" transform="translate(-12.976 -87.971)" fill="#fff"/>
    <path id="Path_51357" data-name="Path 51357" d="M711.424,474.424V471.96h13.945v2.464Z" transform="translate(-53.432 -59.669)" fill="#fff"/>
  </g>
</svg>
