<svg xmlns="http://www.w3.org/2000/svg" width="17.918" height="23" viewBox="0 0 17.918 23">
  <g id="pdf_-_icon" data-name="pdf - icon" transform="translate(-132.6 -97.6)">
    <path id="Path_51328" data-name="Path 51328" d="M132.6,97.6h14.186l3.732,3.739V120.6H132.6Z" fill="#f8f8f8"/>
    <path id="Path_51329" data-name="Path 51329" d="M132.6,97.6h14.186l3.732,3.739v1.793H132.6Z" fill="#ff8c8a"/>
    <path id="Path_51330" data-name="Path 51330" d="M328,97.6v3.739h3.732Z" transform="translate(-181.214)" fill="#ebecec"/>
    <path id="Path_51331" data-name="Path 51331" d="M166.133,203.848a2.235,2.235,0,0,1,1.314.276l.254.269a.575.575,0,0,0-.044-.741c-.748-.755-3.492-.319-4.465-.218-.109.007-.24-.109-.319-.167a7.148,7.148,0,0,1-1.22-1.074l-.566-.711a9.175,9.175,0,0,1-1.067-1.989c-.087-.211-.065-.181-.015-.407.029-.138.058-.283.08-.428a8.315,8.315,0,0,0,.152-1.859c-.123-.022-.094.044-.123.145l-.385,1.249c-.015.036-.022.065-.036.1a.135.135,0,0,0-.015.051l-.029.044a4.556,4.556,0,0,1-.174-.69,9.267,9.267,0,0,1-.211-2.323c.029-.486.2-1.263.6-.588a4.118,4.118,0,0,1,.283.566l.225.624a1.72,1.72,0,0,0,.022-.77,1.178,1.178,0,0,0-.276-.574c-.058-.029-.08-.073-.145-.116s-.1-.058-.16-.094a1,1,0,0,0-.741-.051l-.131.065-.087.065c-.022.022,0,.007-.036.022a2.012,2.012,0,0,0-.138.2,1.752,1.752,0,0,0-.167.82,13.02,13.02,0,0,0,.661,3.949c.036.109-.007.152-.044.254-.152.378-.334.77-.494,1.14-.37.864-1.292,2.664-1.757,3.5-.312.559-.6,1.154-.915,1.706a9.52,9.52,0,0,1-.53.8,13.047,13.047,0,0,1-.9,1.074c-.116.094-.211.218-.327.319-.065.058-.1.109-.174.167s-.109.1-.174.152-.276.276-.392.2c-.225-.232.893-1.67,1.162-1.931l.922-.951a5.238,5.238,0,0,0-1.147.624c-.457.327-1.481,1.372-1.532,1.975-.051.624.922.973,1.684.472a1.4,1.4,0,0,0,.247-.2,8.9,8.9,0,0,0,.958-1.234c.421-.624.8-1.241,1.183-1.895.058-.1.145-.116.254-.167a18.414,18.414,0,0,1,5.554-1.474c.145-.015.189.044.3.109l.283.16a10.882,10.882,0,0,0,1.844.777c.828.24,2.4.545,2.483-.552l-.087.073c-.392.3-1.43.065-1.83-.051a11.757,11.757,0,0,1-1.684-.617C164.753,203.87,165.479,203.84,166.133,203.848Zm-5.242,0a17.594,17.594,0,0,0-2.991.915c-.16.073-.385.2-.523.24a1.739,1.739,0,0,1,.152-.276c.3-.508,1.379-2.534,1.583-2.991.087-.2.167-.378.254-.581s.145-.407.232-.6c.073.1.174.348.24.465a6.379,6.379,0,0,0,.871,1.234c.109.131.232.254.341.37l.741.653c.116.094.3.2.4.3Z" transform="translate(-18.802 -89.702)" fill="#fa7876"/>
  </g>
</svg>
