<svg xmlns="http://www.w3.org/2000/svg" width="44.371" height="50.698" viewBox="0 0 44.371 50.698">
  <g id="icon" transform="translate(-1340.827 -12.745)">
    <path id="Path_51377" data-name="Path 51377" d="M1384.806,25.014q-5.356-6.133-10.708-12.269h-19.7a7.806,7.806,0,0,0-2.845,1.189c-1.657,1.207-2.47,2.653-2.853,5.219-.7,0-1.425-.04-2.143.007a6.3,6.3,0,0,0-5.621,5.218,9.316,9.316,0,0,0-.1,1.378q-.008,15.5,0,30.993a6.6,6.6,0,0,0,5.467,6.613.842.842,0,0,1,.176.079h25.151a7.562,7.562,0,0,0,2.844-1.191,6.654,6.654,0,0,0,2.821-5.146c.472,0,.929,0,1.387,0a6.565,6.565,0,0,0,6.513-6.53q.009-12.351.013-24.7A1.227,1.227,0,0,0,1384.806,25.014ZM1374.1,15.965l7.917,9.45c-1.682,0-3.247.019-4.812-.008a2.227,2.227,0,0,1-1.694-1.082A6.4,6.4,0,0,1,1374.1,20.3C1374.109,18.9,1374.1,17.509,1374.1,15.965Zm-3.072,44.3c-.181.013-.363.008-.544.008h-22.867a3.337,3.337,0,0,1-3.618-3.64q0-15.467,0-30.935a3.158,3.158,0,0,1,2.366-3.294,18.3,18.3,0,0,1,2.386-.193v.679c0,9.173.038,18.346-.02,27.519a6.758,6.758,0,0,0,5.631,6.636,8.371,8.371,0,0,0,1.036.055q9.033,0,18.066,0h.586A3.242,3.242,0,0,1,1371.026,60.266ZM1382.02,29.16q0,10.617,0,21.234a3.318,3.318,0,0,1-3.517,3.542q-11.533,0-23.066,0a3.318,3.318,0,0,1-3.517-3.541q0-15.469,0-30.937a3.323,3.323,0,0,1,3.563-3.545h15.448c0,2.063,0,4.057,0,6.052a6.471,6.471,0,0,0,5.659,6.561,24.471,24.471,0,0,0,3.115.06c.755.006,1.509,0,2.317,0Z" transform="translate(0 0)" fill="#fff" fill-rule="evenodd"/>
    <path id="Path_51378" data-name="Path 51378" d="M1380.173,52.942a3.913,3.913,0,0,0-.689-.04q-6.431,0-12.863,0c-.313,0-.626-.007-.94,0a1.58,1.58,0,0,0-1.255.592,1.488,1.488,0,0,0-.2,1.668,1.528,1.528,0,0,0,1.472.9q3.513,0,7.026,0h2.523c1.567,0,3.134.011,4.7-.01a1.568,1.568,0,0,0,.226-3.115Z" transform="translate(-5.808 -10.04)" fill="#fff" fill-rule="evenodd"/>
    <path id="Path_51379" data-name="Path 51379" d="M1380.5,42.489a2.985,2.985,0,0,0-.97-.138q-5.441-.013-10.884-.006c-.907,0-1.813-.013-2.72.007a2.7,2.7,0,0,0-.916.157,1.54,1.54,0,0,0-.927,1.686,1.564,1.564,0,0,0,1.568,1.309c2.358.013,4.717,0,7.074,0,2.391,0,4.783.008,7.173,0a1.562,1.562,0,0,0,.6-3.015Z" transform="translate(-5.81 -7.4)" fill="#fff" fill-rule="evenodd"/>
  </g>
</svg>
