<svg id="icon-paper-clip" xmlns="http://www.w3.org/2000/svg" width="14.098" height="15.698" viewBox="0 0 14.098 15.698">
  <g id="Group_28" data-name="Group 28" transform="translate(0 0)">
    <path id="Path_46" data-name="Path 46" d="M34.393,4.687A.559.559,0,0,0,33.6,3.9L27.748,9.751a1.8,1.8,0,1,0,2.541,2.541l6.134-6.134a.874.874,0,0,0,.168-.112c.819-.819,3-3,.9-5.091A2.908,2.908,0,0,0,34.719.071a5.32,5.32,0,0,0-2.541,1.564L25.532,8.28a4.088,4.088,0,0,0-1.163,3.09,4.623,4.623,0,0,0,1.312,3.053A4.448,4.448,0,0,0,28.706,15.7H28.8a4.128,4.128,0,0,0,2.951-1.2L38.3,7.945a.559.559,0,0,0-.791-.791l-6.553,6.553a3.067,3.067,0,0,1-2.234.875,3.309,3.309,0,0,1-2.4-5.51l6.646-6.646a4.325,4.325,0,0,1,1.983-1.257,1.8,1.8,0,0,1,1.75.586,1.452,1.452,0,0,1,.484,1.592,4.109,4.109,0,0,1-.931,1.443,1.164,1.164,0,0,0-.112.084L29.507,11.51a.678.678,0,0,1-.959-.959Z" transform="translate(-24.365 0)" fill="#acacae"/>
  </g>
</svg>
