<svg xmlns="http://www.w3.org/2000/svg" width="25.935" height="25" viewBox="0 0 25.935 25">
  <g id="icon" transform="translate(-1758.391 -117.865)">
    <path id="Path_51329" data-name="Path 51329" d="M1784.308,135.088a1.787,1.787,0,0,0-1.848-1.55h-14.474a1.789,1.789,0,0,0-1.9,1.286q-1.816,4.545-3.632,9.089a1.831,1.831,0,0,1-1.035,1.1.885.885,0,0,1-1.244-.836q0-8.338-.006-16.677c0-.172.042-.217.215-.215.744.01,1.488,0,2.231.008.2,0,.247-.055.24-.247-.015-.436-.016-.874,0-1.31.008-.2-.061-.241-.249-.238-.762.011-1.525,0-2.287,0a1.792,1.792,0,0,0-1.932,1.926q0,4.2,0,8.394t0,8.394a2.67,2.67,0,0,0,2.7,2.7q8.143,0,16.286,0a3.34,3.34,0,0,0,3.294-2.183c1.2-2.9,2.342-5.831,3.507-8.749A1.675,1.675,0,0,0,1784.308,135.088Z" transform="translate(0 -4.063)" fill="#fff" fill-rule="evenodd"/>
    <path id="Path_51330" data-name="Path 51330" d="M1769.832,133.222v.864l.043.011c.041-.1.083-.2.123-.3.468-1.171.919-2.35,1.415-3.509a2.615,2.615,0,0,0,.207-1.071c-.006-3.1,0-6.19-.008-9.285,0-.209.039-.281.269-.28,2.556.009,5.112.005,7.667.006a.9.9,0,0,1,.993,1.006c0,1.348.008,2.7-.007,4.043,0,.266.081.313.324.311,1.348-.011,2.7-.006,4.043,0a.9.9,0,0,1,1,1c0,.771.009,1.543-.006,2.314,0,.217.064.263.266.256.427-.015.855-.015,1.282,0,.194.007.249-.046.247-.245-.009-1.2-.008-2.4,0-3.6a3.447,3.447,0,0,0-1.023-2.539q-1.638-1.653-3.292-3.293a3.508,3.508,0,0,0-2.587-1.044q-5.312.008-10.623,0c-.264,0-.335.055-.335.329Q1769.839,125.708,1769.832,133.222Zm12.5-12.54a.107.107,0,0,1,.011-.036l2.579,2.58h-2.091c-.5,0-.5,0-.5-.511Q1782.327,121.7,1782.329,120.682Z" transform="translate(-6.085)" fill="#fff" fill-rule="evenodd"/>
    <path id="Path_51331" data-name="Path 51331" d="M1777.744,138.741c1.682-.011,3.364-.006,5.047-.006,1.71,0,3.42,0,5.13.005.213,0,.266-.058.258-.263-.016-.418-.016-.837,0-1.255.008-.213-.045-.279-.271-.278-1.915.01-3.829.006-5.744.006-1.478,0-2.955.005-4.433-.006-.224,0-.281.063-.272.277.017.408.019.819,0,1.227C1777.447,138.676,1777.506,138.742,1777.744,138.741Z" transform="translate(-10.146 -10.153)" fill="#fff" fill-rule="evenodd"/>
  </g>
</svg>
