<svg xmlns="http://www.w3.org/2000/svg" width="94" height="94" viewBox="0 0 94 94">
  <g id="play_icon" data-name="play icon" transform="translate(-2340.972 -25.035)">
    <path id="Path_1150" data-name="Path 1150" d="M2388.056,25.035a47,47,0,1,0,46.916,47.035A46.967,46.967,0,0,0,2388.056,25.035Zm-.222,89.285a42.41,42.41,0,0,1-42.167-42.4c.151-23.305,19.245-42.308,42.4-42.192a42.3,42.3,0,1,1-.228,84.591Z" transform="translate(0 0)" fill="#fff" fill-rule="evenodd"/>
    <path id="Path_1151" data-name="Path 1151" d="M2389.567,54.406q-11.649-7.727-23.345-15.39a24.535,24.535,0,0,0-2.269-1.341c-3.1-1.594-5.776-.31-6.448,3.106a11.674,11.674,0,0,0-.177,2.237q-.018,8.416-.006,16.833c0,5.675-.032,11.352.024,17.028a11.657,11.657,0,0,0,.565,3.438,3.538,3.538,0,0,0,4.534,2.325,13.371,13.371,0,0,0,3.257-1.494q12.018-7.791,23.976-15.674a16.049,16.049,0,0,0,1.713-1.3,5.164,5.164,0,0,0,.683-7.625A11.6,11.6,0,0,0,2389.567,54.406Zm-2.8,7.3q-11.019,7.253-22.083,14.446c-1.578,1.027-2.651.354-2.659-1.629-.016-4.892-.006-9.783-.006-14.675v-13.5c0-.163,0-.326,0-.489.026-.9-.167-1.939.779-2.47s1.731.167,2.486.664q8.863,5.825,17.717,11.66c1.252.823,2.52,1.625,3.754,2.474C2388.321,59.266,2388.353,60.663,2386.762,61.71Z" transform="translate(16.554 12.118)" fill="#fff" fill-rule="evenodd"/>
  </g>
</svg>
