<svg xmlns="http://www.w3.org/2000/svg" width="19.803" height="20.099" viewBox="0 0 19.803 20.099">
  <path id="icon" d="M493,126.886c.019-.167.036-.334.056-.5a7.577,7.577,0,0,1,1.585-3.8,9.718,9.718,0,0,1,3.342-2.7,11.258,11.258,0,0,1,1.795-.72l.086-.028a5.9,5.9,0,0,1-2.9-5.124,5.692,5.692,0,0,1,1.829-4.3,5.939,5.939,0,0,1,8.606.4,5.943,5.943,0,0,1,.859,6.472,5.969,5.969,0,0,1-2.319,2.533c.049.017.082.029.116.039a10.491,10.491,0,0,1,3.853,2.079,7.969,7.969,0,0,1,2.678,4.26c.1.42.135.856.2,1.284.005.033.012.065.018.1v.424a.168.168,0,0,0-.017.035.988.988,0,0,1-1.085.813,1,1,0,0,1-.882-.993,6.7,6.7,0,0,0-.064-.723,5.694,5.694,0,0,0-1.548-3.135,8.6,8.6,0,0,0-5.984-2.622,7.9,7.9,0,0,0-2.175.2,8.6,8.6,0,0,0-4.108,2.123,5.854,5.854,0,0,0-1.961,4.22.988.988,0,0,1-1.921.275c-.022-.063-.039-.127-.058-.191Zm9.906-16.839a3.964,3.964,0,1,0,3.958,3.97A3.965,3.965,0,0,0,502.906,110.046Z" transform="translate(-493 -108.066)" fill="#51aaaa"/>
</svg>
