<svg xmlns="http://www.w3.org/2000/svg" width="49.44" height="51.559" viewBox="0 0 49.44 51.559">
  <g id="icon" transform="translate(-1567.449 -1222.606)">
    <path id="Path_51349" data-name="Path 51349" d="M1578.094,1250.147a21.877,21.877,0,0,1,4.639-1.277c1.752-.359,2.719-1.857,1.762-3.095a3.453,3.453,0,0,0-1.807-1.023,7.9,7.9,0,0,1-6.03-8.954c.594-3.655,2.91-5.74,6.4-6.635,1.015-.261,1.6-.827,1.435-1.9-.146-.96-1.048-1.436-2.183-1.161-4.472,1.079-7.574,3.726-8.676,8.245-1.125,4.612.36,8.473,4.025,11.491.268.221.533.445.895.746a15.317,15.317,0,0,0-8.757,7.121,45.5,45.5,0,0,0-2.346,6.665v2.561a2.417,2.417,0,0,1,.2.584,1.409,1.409,0,0,0,1.783,1.479c1.063-.153,1.33-.942,1.244-1.894A12.66,12.66,0,0,1,1578.094,1250.147Z" transform="translate(0 -0.29)" fill="#fff" fill-rule="evenodd"/>
    <path id="Path_51350" data-name="Path 51350" d="M1613.525,1254.41a1.615,1.615,0,0,0-2.248,2.315c.488.535,1.063.99,1.553,1.524a15.292,15.292,0,0,1,4.4,12.1,2.074,2.074,0,0,0,1.288,2.12h.512c1.419-.488,1.526-1.7,1.536-2.906C1620.617,1263.406,1618.006,1258.465,1613.525,1254.41Z" transform="translate(-3.678 -2.661)" fill="#fff" fill-rule="evenodd"/>
    <path id="Path_51351" data-name="Path 51351" d="M1612.7,1235.969a13.487,13.487,0,0,0-22.317-9.938c-4.19,3.6-5.488,8.291-4.2,13.644a13.4,13.4,0,0,0,5.307,7.6c-6.959,2.706-11.447,7.389-12.977,14.549a24.82,24.82,0,0,0-.182,6.08,1.48,1.48,0,0,0,1.873,1.448c1.131-.19,1.374-.987,1.251-2.005a13.05,13.05,0,0,1-.179-2.16,16.372,16.372,0,0,1,17.264-15.63A13.164,13.164,0,0,0,1612.7,1235.969Zm-13.465,10.361a10.157,10.157,0,1,1,10.144-10.127A10.135,10.135,0,0,1,1599.235,1246.33Z" transform="translate(-0.916)" fill="#fff" fill-rule="evenodd"/>
    <path id="Path_51352" data-name="Path 51352" d="M1598.4,1257.565a9.784,9.784,0,1,0,9.784,9.784A9.784,9.784,0,0,0,1598.4,1257.565Zm6.029,6.8a1.568,1.568,0,0,1-.354.544q-3.279,3.3-6.573,6.58a1.215,1.215,0,0,1-1.87,0q-1.455-1.444-2.9-2.9a1.224,1.224,0,1,1,1.732-1.717c.693.687,1.379,1.381,2.093,2.1.111-.1.208-.191.3-.283,1.736-1.734,3.467-3.473,5.21-5.2a10.482,10.482,0,0,1,.9-.72h.586C1604.354,1263.151,1604.669,1263.706,1604.426,1264.368Z" transform="translate(-1.796 -2.967)" fill="#fff" fill-rule="evenodd"/>
  </g>
</svg>
