<svg xmlns="http://www.w3.org/2000/svg" width="46.452" height="46.544" viewBox="0 0 46.452 46.544">
  <g id="icon" transform="translate(-542.746 -301.417)">
    <path id="Path_51336" data-name="Path 51336" d="M665.092,414.623H642.04V388.632h23.052Zm-2.87-2.847V391.459H644.9v20.316Z" transform="translate(-75.895 -66.662)" fill="#fff"/>
    <path id="Path_51337" data-name="Path 51337" d="M573.73,318.956a10.3,10.3,0,0,0-.6-9.763,9.892,9.892,0,0,0-6.094-4.5,10.245,10.245,0,0,0-12.343,6.958c-1.792,5.7,1.267,10.514,8.359,13.109v2.834c-10.015,1.622-15.918,7.374-17.566,17.5h-2.735a21.436,21.436,0,0,1,4.636-12,22.007,22.007,0,0,1,10.565-7.319,12.763,12.763,0,0,1-6.046-7.717c-1.295-5.012-.165-9.468,3.639-13a13.024,13.024,0,0,1,21.909,8.489,25.016,25.016,0,0,1-.362,4.416.985.985,0,0,1-1.251,1A20.168,20.168,0,0,0,573.73,318.956Z" transform="translate(0 0)" fill="#fff"/>
    <path id="Path_51338" data-name="Path 51338" d="M666.27,416.068V413.39h11.549v2.678Z" transform="translate(-94.415 -85.586)" fill="#fff"/>
    <path id="Path_51339" data-name="Path 51339" d="M678.076,438.187v2.7h-11.5v-2.7Z" transform="translate(-94.649 -104.539)" fill="#fff"/>
    <path id="Path_51340" data-name="Path 51340" d="M666.356,465.469v-2.725h5.71v2.725Z" transform="translate(-94.48 -123.309)" fill="#fff"/>
  </g>
</svg>
