<svg id="left-arrow-sign" xmlns="http://www.w3.org/2000/svg" width="19.312" height="14.303" viewBox="0 0 19.312 14.303">
  <g id="Group_74" data-name="Group 74" transform="translate(0)">
    <path id="Path_144" data-name="Path 144" d="M.231,61.676.205,61.7l-.026.026c-.013.013-.013.026-.026.039l-.026.026c-.013.013-.013.026-.026.039s-.013.013-.013.026-.013.026-.026.052-.013.013-.013.026-.013.039-.026.052V62a.116.116,0,0,0-.013.064v.013c0,.026-.013.039-.013.064v.18a.116.116,0,0,0,.013.064V62.4c0,.026.013.039.013.064v.013c.013.013.013.039.026.052s.013.013.013.026.013.039.026.052.013.013.013.026.013.026.026.039.013.013.026.026.013.026.026.039l.026.026.026.026.013.013,7.163,6.39a.776.776,0,0,0,1.031-1.159L2.782,63.016H18.538a.773.773,0,1,0,0-1.546H2.782l5.643-5.037a.776.776,0,0,0-1.031-1.159l-7.15,6.39A.013.013,0,0,1,.231,61.676Z" transform="translate(0.001 -55.077)" fill="#acacac"/>
  </g>
</svg>
