<svg xmlns="http://www.w3.org/2000/svg" width="11.057" height="15.018" viewBox="0 0 11.057 15.018">
  <g id="icon" transform="translate(-593.886 -337.037)">
    <path id="Path_51125" data-name="Path 51125" d="M595.517,343.291c0-.935-.07-1.857.014-2.765a3.885,3.885,0,0,1,3.9-3.489,3.925,3.925,0,0,1,3.885,3.513c.042.365.054.733.084,1.16h-1.625c0-.256.01-.523,0-.788a2.354,2.354,0,0,0-4.706-.031c-.028.8-.005,1.6-.005,2.472h.951c1.719,0,3.439,0,5.158,0a1.586,1.586,0,0,1,1.771,1.772q.01,2.579,0,5.158a1.584,1.584,0,0,1-1.734,1.755q-3.781.011-7.562,0a1.586,1.586,0,0,1-1.752-1.737c-.009-1.68,0-3.361,0-5.041C593.891,344.08,594.24,343.632,595.517,343.291Zm7.831,1.682H595.48v5.458h7.868Z" fill="#51aaaa"/>
    <path id="Path_51126" data-name="Path 51126" d="M633.367,419.15a1.17,1.17,0,1,1-2.341.008,1.17,1.17,0,0,1,2.341-.008Z" transform="translate(-32.782 -71.45)" fill="#51aaaa"/>
  </g>
</svg>
