<?xml version="1.0" encoding="utf-8"?>
<!-- Generator: Adobe Illustrator 16.0.0, SVG Export Plug-In . SVG Version: 6.00 Build 0)  -->
<!DOCTYPE svg PUBLIC "-//W3C//DTD SVG 1.1//EN" "http://www.w3.org/Graphics/SVG/1.1/DTD/svg11.dtd">
<svg version="1.1" id="Layer_1" xmlns="http://www.w3.org/2000/svg" xmlns:xlink="http://www.w3.org/1999/xlink" x="0px" y="0px"
	 width="11.057px" height="15.018px" viewBox="0 0 11.057 15.018" enable-background="new 0 0 11.057 15.018" xml:space="preserve">
<g id="icon" transform="translate(-593.886 -337.037)">
	<path id="Path_51125" fill="#FFFFFF" d="M595.517,343.291c0-0.936-0.07-1.857,0.014-2.765c0.205-1.996,1.895-3.508,3.9-3.489
		c2.001,0.009,3.675,1.522,3.885,3.513c0.042,0.365,0.054,0.733,0.084,1.16h-1.625c0-0.256,0.01-0.523,0-0.788
		c-0.028-1.3-1.104-2.33-2.404-2.302c-1.248,0.027-2.258,1.023-2.302,2.271c-0.027,0.8-0.005,1.601-0.005,2.473h0.951
		c1.719,0,3.438,0,5.158,0c0.869-0.109,1.662,0.507,1.771,1.376c0.017,0.131,0.017,0.265,0,0.396c0.007,1.72,0.007,3.438,0,5.158
		c0.1,0.869-0.525,1.654-1.395,1.753c-0.112,0.013-0.227,0.014-0.339,0.002c-2.521,0.008-5.042,0.008-7.563,0
		c-0.87,0.097-1.654-0.531-1.75-1.402c-0.013-0.111-0.014-0.224-0.002-0.335c-0.009-1.68,0-3.36,0-5.041
		C593.891,344.08,594.24,343.632,595.517,343.291z M603.348,344.973h-7.868v5.458h7.868V344.973z"/>
	<path id="Path_51126" fill="#FFFFFF" d="M600.585,347.7c0.002,0.646-0.521,1.172-1.167,1.174c-0.646,0.003-1.172-0.52-1.175-1.166
		l0,0c-0.002-0.646,0.521-1.172,1.167-1.175C600.057,346.531,600.583,347.054,600.585,347.7z"/>
</g>
</svg>
