<svg xmlns="http://www.w3.org/2000/svg" xmlns:xlink="http://www.w3.org/1999/xlink" width="132" height="151.637" viewBox="0 0 132 151.637">
  <defs>
    <filter id="Path_1" x="0" y="0" width="132" height="151.637" filterUnits="userSpaceOnUse">
      <feOffset dy="3" input="SourceAlpha"/>
      <feGaussianBlur stdDeviation="10" result="blur"/>
      <feFlood flood-opacity="0.161"/>
      <feComposite operator="in" in2="blur"/>
      <feComposite in="SourceGraphic"/>
    </filter>
  </defs>
  <g id="Group_1" data-name="Group 1" transform="translate(-396 -321)">
    <g transform="matrix(1, 0, 0, 1, 396, 321)" filter="url(#Path_1)">
      <path id="Path_1-2" data-name="Path 1" d="M0,0H72V72L0,91.637Z" transform="translate(30 27)" fill="#fff"/>
    </g>
    <text id="ด้านบน" transform="translate(462 406)" fill="#aaa" font-size="24" font-family="DBHeavent, DB Heavent"><tspan x="-24.296" y="0">ด้านบน</tspan></text>
    <path id="Path_2" data-name="Path 2" d="M-472.663,1018.4c-.8.8-1.531,1.547-2.272,2.287q-5.192,5.194-10.387,10.386a.889.889,0,0,1-1.307.059.88.88,0,0,1,.074-1.3l13.14-13.143a.9.9,0,0,1,1.448,0q6.563,6.56,13.125,13.12a.9.9,0,0,1,.307.98.772.772,0,0,1-.736.59,1.8,1.8,0,0,1-.667-.2c-.1-.041-.169-.154-.25-.235q-6.1-6.1-12.2-12.2C-472.48,1018.643-472.55,1018.537-472.663,1018.4Z" transform="translate(934.885 -650.428)" fill="#aaa" fill-rule="evenodd"/>
  </g>
</svg>
