<svg xmlns="http://www.w3.org/2000/svg" width="28.397" height="15.078" viewBox="0 0 28.397 15.078">
  <path id="Path_1" data-name="Path 1" d="M-472.663,1018.4c-.8.8-1.531,1.547-2.272,2.287q-5.192,5.194-10.387,10.386a.889.889,0,0,1-1.307.059.88.88,0,0,1,.074-1.3l13.14-13.143a.9.9,0,0,1,1.448,0q6.563,6.56,13.125,13.12a.9.9,0,0,1,.307.98.772.772,0,0,1-.736.59,1.8,1.8,0,0,1-.667-.2c-.1-.041-.169-.154-.25-.235q-6.1-6.1-12.2-12.2C-472.48,1018.643-472.55,1018.537-472.663,1018.4Z" transform="translate(486.885 -1016.311)" fill="#aaa" fill-rule="evenodd"/>
</svg>
