<?xml version="1.0" standalone="no"?>
<!DOCTYPE svg PUBLIC "-//W3C//DTD SVG 1.1//EN" "http://www.w3.org/Graphics/SVG/1.1/DTD/svg11.dtd" >
<svg xmlns="http://www.w3.org/2000/svg" xmlns:xlink="http://www.w3.org/1999/xlink" version="1.1">
<metadata>
Created by FontForge 20161003 at Mon Jun 17 09:40:19 2019
 By www-data
Copyright (c) 2006 by Department of Intellectual Property (DIP), Ministry of Commerce and Software Industry Promotion Agency (Public Organization) (SIPA). All rights reserved.
</metadata>
<defs>
<font id="THBaijamItalic" horiz-adv-x="0" >
  <font-face 
    font-family="THBaijamItalic"
    font-weight="400"
    font-style="italic"
    font-stretch="normal"
    units-per-em="1000"
    panose-1="2 0 5 6 0 0 0 2 0 4"
    ascent="800"
    descent="-200"
    x-height="339"
    cap-height="475"
    bbox="-338 -399 1088.71 800"
    underline-thickness="30"
    underline-position="-80"
    unicode-range="U+0020-FB02"
  />
<missing-glyph horiz-adv-x="500" 
d="M397 53l126 593h-274l-126 -593h274zM436 0h-373l147 695h373z" />
    <glyph glyph-name="Agrave" unicode="A&#x300;" horiz-adv-x="523" 
d="M337 476q21 0 37 -9t21 -27l103 -440h-50l-31 133h-256l-86 -133h-50zM186 173h221l-57 249zM435 544h-47l-49 110h47z" />
    <glyph glyph-name="Aacute" unicode="A&#x301;" horiz-adv-x="523" 
d="M337 476q21 0 37 -9t21 -27l103 -440h-50l-31 133h-256l-86 -133h-50zM186 173h221l-57 249zM412 653h47l-97 -110h-47z" />
    <glyph glyph-name="Atilde" unicode="A&#x303;" horiz-adv-x="523" 
d="M337 476q21 0 37 -9t21 -27l103 -440h-50l-31 133h-256l-86 -133h-50zM186 173h221l-57 249zM410 527q-14 0 -22.5 8t-15.5 17.5t-14 17.5t-18 8q-10 0 -20 -9.5t-14 -25.5h-34q5 20 14 33t20 20.5t22.5 10t22.5 2.5q17 0 27 -8t17 -17.5t13 -17.5t15 -8q10 0 20 9.5
t13 25.5h34q-5 -20 -13.5 -33t-19.5 -20.5t-23 -10t-24 -2.5z" />
    <glyph glyph-name="Egrave" unicode="E&#x300;" horiz-adv-x="468" 
d="M144 475h380l-8 -40h-335l-36 -167h286l-8 -40h-286l-40 -188h335l-8 -40h-338q-17 0 -27 13.5t-6 30.5zM411 544h-47l-49 110h47z" />
    <glyph glyph-name="Eacute" unicode="E&#x301;" horiz-adv-x="468" 
d="M144 475h380l-8 -40h-335l-36 -167h286l-8 -40h-286l-40 -188h335l-8 -40h-338q-17 0 -27 13.5t-6 30.5zM388 654h47l-97 -110h-47z" />
    <glyph glyph-name="Igrave" unicode="I&#x300;" horiz-adv-x="130" 
d="M144 475h45l-100 -475h-45zM236 543h-47l-49 110h47z" />
    <glyph glyph-name="Iacute" unicode="I&#x301;" horiz-adv-x="133" 
d="M145 475h45l-100 -475h-45zM215 653h47l-97 -110h-47z" />
    <glyph glyph-name="Ograve" unicode="O&#x300;" horiz-adv-x="469" 
d="M475 190q-9 -40 -31.5 -76.5t-54.5 -64t-69.5 -43.5t-76.5 -16h-55q-33 0 -58.5 13.5t-41.5 36.5t-21.5 53t1.5 63l27 129q9 40 31.5 76.5t54.5 64t70 43.5t77 16h54q33 0 58.5 -13.5t41.5 -36.5t21.5 -53t-1.5 -63zM457 319q5 23 1 45.5t-15 40.5t-29 29t-41 11h-54
q-30 0 -59 -13.5t-53.5 -36t-42 -51t-24.5 -59.5l-27 -129q-5 -23 -1.5 -45.5t15 -40.5t29.5 -29t41 -11h55q29 0 58 13.5t53.5 36t42 51t24.5 59.5zM401 543h-47l-49 110h47z" />
    <glyph glyph-name="Oacute" unicode="O&#x301;" horiz-adv-x="469" 
d="M475 190q-9 -40 -31.5 -76.5t-54.5 -64t-69.5 -43.5t-76.5 -16h-55q-33 0 -58.5 13.5t-41.5 36.5t-21.5 53t1.5 63l27 129q9 40 31.5 76.5t54.5 64t70 43.5t77 16h54q33 0 58.5 -13.5t41.5 -36.5t21.5 -53t-1.5 -63zM457 319q5 23 1 45.5t-15 40.5t-29 29t-41 11h-54
q-30 0 -59 -13.5t-53.5 -36t-42 -51t-24.5 -59.5l-27 -129q-5 -23 -1.5 -45.5t15 -40.5t29.5 -29t41 -11h55q29 0 58 13.5t53.5 36t42 51t24.5 59.5zM378 653h47l-97 -110h-47z" />
    <glyph glyph-name="Otilde" unicode="O&#x303;" horiz-adv-x="469" 
d="M475 190q-9 -40 -31.5 -76.5t-54.5 -64t-69.5 -43.5t-76.5 -16h-55q-33 0 -58.5 13.5t-41.5 36.5t-21.5 53t1.5 63l27 129q9 40 31.5 76.5t54.5 64t70 43.5t77 16h54q33 0 58.5 -13.5t41.5 -36.5t21.5 -53t-1.5 -63zM457 319q5 23 1 45.5t-15 40.5t-29 29t-41 11h-54
q-30 0 -59 -13.5t-53.5 -36t-42 -51t-24.5 -59.5l-27 -129q-5 -23 -1.5 -45.5t15 -40.5t29.5 -29t41 -11h55q29 0 58 13.5t53.5 36t42 51t24.5 59.5zM384 527q-14 0 -22.5 8t-15.5 17.5t-14 17.5t-18 8q-10 0 -20 -9.5t-14 -25.5h-34q5 20 14 33t20 20.5t22.5 10t22.5 2.5
q17 0 27 -8t17 -17.5t13 -17.5t15 -8q10 0 20 9.5t13 25.5h34q-5 -20 -13.5 -33t-19.5 -20.5t-23 -10t-24 -2.5z" />
    <glyph glyph-name="Ugrave" unicode="U&#x300;" horiz-adv-x="478" 
d="M184 475l-67 -319q-5 -23 -1.5 -45.5t15 -40.5t29.5 -29t41 -11h55q29 0 58 13.5t53.5 36t42 51t24.5 59.5l60 285h45l-60 -285q-9 -40 -31.5 -76.5t-54.5 -64t-69.5 -43.5t-76.5 -16h-55q-33 0 -58.5 13.5t-41.5 36.5t-21.5 53t1.5 63l67 319h45zM409 543h-47l-49 110
h47z" />
    <glyph glyph-name="Uacute" unicode="U&#x301;" horiz-adv-x="478" 
d="M184 475l-67 -319q-5 -23 -1.5 -45.5t15 -40.5t29.5 -29t41 -11h55q29 0 58 13.5t53.5 36t42 51t24.5 59.5l60 285h45l-60 -285q-9 -40 -31.5 -76.5t-54.5 -64t-69.5 -43.5t-76.5 -16h-55q-33 0 -58.5 13.5t-41.5 36.5t-21.5 53t1.5 63l67 319h45zM387 653h47l-97 -110
h-47z" />
    <glyph glyph-name="Yacute" unicode="Y&#x301;" horiz-adv-x="450" 
d="M247 0h-45l50 237l-127 238h51l106 -200l192 200h51l-228 -238zM372 653h47l-97 -110h-47z" />
    <glyph glyph-name="agrave" unicode="a&#x300;" horiz-adv-x="352" 
d="M282 46q-9 -11 -22.5 -20t-29 -16t-31 -11t-28.5 -4h-40q-23 0 -39.5 9.5t-26.5 25.5t-12.5 37t2.5 44l20 93q6 28 22 53.5t38.5 45t49.5 30.5t55 11h40q27 0 37.5 -12t20.5 -24l7 31h45l-73 -341h-45zM321 228q1 13 -1.5 26.5t-9 24.5t-16.5 18t-23 7h-40
q-19 0 -37 -8.5t-33 -22.5t-26 -32t-15 -37l-20 -93q-6 -27 3.5 -51.5t36.5 -24.5h40q18 0 37.5 8t36 21.5t29 31t17.5 35.5zM319 392h-47l-49 110h47z" />
    <glyph glyph-name="aacute" unicode="a&#x301;" horiz-adv-x="354" 
d="M282 46q-9 -11 -22.5 -20t-29 -16t-31 -11t-28.5 -4h-40q-23 0 -39.5 9.5t-26.5 25.5t-12.5 37t2.5 44l20 93q6 28 22 53.5t38.5 45t49.5 30.5t55 11h40q27 0 37.5 -12t20.5 -24l7 31h45l-73 -341h-45zM321 228q1 13 -1.5 26.5t-9 24.5t-16.5 18t-23 7h-40
q-19 0 -37 -8.5t-33 -22.5t-26 -32t-15 -37l-20 -93q-6 -27 3.5 -51.5t36.5 -24.5h40q18 0 37.5 8t36 21.5t29 31t17.5 35.5zM296 502h47l-97 -110h-47z" />
    <glyph glyph-name="atilde" unicode="a&#x303;" horiz-adv-x="354" 
d="M282 46q-9 -11 -22.5 -20t-29 -16t-31 -11t-28.5 -4h-40q-23 0 -39.5 9.5t-26.5 25.5t-12.5 37t2.5 44l20 93q6 28 22 53.5t38.5 45t49.5 30.5t55 11h40q27 0 37.5 -12t20.5 -24l7 31h45l-73 -341h-45zM321 228q1 13 -1.5 26.5t-9 24.5t-16.5 18t-23 7h-40
q-19 0 -37 -8.5t-33 -22.5t-26 -32t-15 -37l-20 -93q-6 -27 3.5 -51.5t36.5 -24.5h40q18 0 37.5 8t36 21.5t29 31t17.5 35.5zM295 377q-14 0 -22.5 8t-15.5 17.5t-14 17.5t-18 8q-10 0 -20 -9.5t-14 -25.5h-34q5 20 14 33t20 20.5t22.5 10t22.5 2.5q17 0 27 -8t17 -17.5
t13 -17.5t15 -8q10 0 20 9.5t13 25.5h34q-5 -20 -13.5 -33t-19.5 -20.5t-23 -10t-24 -2.5z" />
    <glyph glyph-name="egrave" unicode="e&#x300;" horiz-adv-x="350" 
d="M100 111q-3 -14 -0.5 -27.5t9 -24t17 -17.5t24.5 -7h40q19 0 36.5 7t32.5 19t25.5 28.5t14.5 35.5h45q-6 -29 -22 -52.5t-38 -41t-48.5 -27t-54.5 -9.5h-40q-23 0 -41.5 9.5t-30 25.5t-15.5 37t1 44l20 93q6 28 22 53.5t38.5 45t49.5 30.5t55 11h40q23 0 41.5 -9.5
t30 -25.5t15.5 -37t-1 -44l-11 -51h-241zM231 304q-19 0 -37 -7t-32.5 -19.5t-25 -29.5t-14.5 -36h196l3 16q3 13 0.5 27t-9 24.5t-17.5 17.5t-24 7h-40zM319 392h-47l-49 110h47z" />
    <glyph glyph-name="eacute" unicode="e&#x301;" horiz-adv-x="350" 
d="M100 111q-3 -14 -0.5 -27.5t9 -24t17 -17.5t24.5 -7h40q19 0 36.5 7t32.5 19t25.5 28.5t14.5 35.5h45q-6 -29 -22 -52.5t-38 -41t-48.5 -27t-54.5 -9.5h-40q-23 0 -41.5 9.5t-30 25.5t-15.5 37t1 44l20 93q6 28 22 53.5t38.5 45t49.5 30.5t55 11h40q23 0 41.5 -9.5
t30 -25.5t15.5 -37t-1 -44l-11 -51h-241zM231 304q-19 0 -37 -7t-32.5 -19.5t-25 -29.5t-14.5 -36h196l3 16q3 13 0.5 27t-9 24.5t-17.5 17.5t-24 7h-40zM296 502h47l-97 -110h-47z" />
    <glyph glyph-name="igrave" unicode="i&#x300;" horiz-adv-x="162" 
d="M60 0l72 339h45l-72 -339h-45zM221 392h-47l-49 110h47z" />
    <glyph glyph-name="iacute" unicode="i&#x301;" horiz-adv-x="162" 
d="M60 0l72 339h45l-72 -339h-45zM199 502h47l-97 -110h-47z" />
    <glyph glyph-name="ograve" unicode="o&#x300;" horiz-adv-x="350" 
d="M346 135q-6 -29 -22 -54t-38.5 -44.5t-49.5 -30.5t-55 -11h-40q-23 0 -41.5 9.5t-30 25.5t-15.5 37t1 44l20 93q6 28 22 53.5t38.5 45t49.5 30.5t55 11h40q23 0 41.5 -9.5t30 -25.5t15.5 -37t-1 -44zM321 228q3 13 0.5 27t-9 24.5t-17.5 17.5t-24 7h-40q-19 0 -37 -8.5
t-33 -22.5t-26 -32t-15 -37l-20 -93q-3 -14 -0.5 -27.5t9 -24t17 -17.5t24.5 -7h40q19 0 37 8.5t33 22.5t26 32t15 37zM319 392h-47l-49 110h47z" />
    <glyph glyph-name="oacute" unicode="o&#x301;" horiz-adv-x="350" 
d="M346 135q-6 -29 -22 -54t-38.5 -44.5t-49.5 -30.5t-55 -11h-40q-23 0 -41.5 9.5t-30 25.5t-15.5 37t1 44l20 93q6 28 22 53.5t38.5 45t49.5 30.5t55 11h40q23 0 41.5 -9.5t30 -25.5t15.5 -37t-1 -44zM321 228q3 13 0.5 27t-9 24.5t-17.5 17.5t-24 7h-40q-19 0 -37 -8.5
t-33 -22.5t-26 -32t-15 -37l-20 -93q-3 -14 -0.5 -27.5t9 -24t17 -17.5t24.5 -7h40q19 0 37 8.5t33 22.5t26 32t15 37zM296 502h47l-97 -110h-47z" />
    <glyph glyph-name="otilde" unicode="o&#x303;" horiz-adv-x="350" 
d="M346 135q-6 -29 -22 -54t-38.5 -44.5t-49.5 -30.5t-55 -11h-40q-23 0 -41.5 9.5t-30 25.5t-15.5 37t1 44l20 93q6 28 22 53.5t38.5 45t49.5 30.5t55 11h40q23 0 41.5 -9.5t30 -25.5t15.5 -37t-1 -44zM321 228q3 13 0.5 27t-9 24.5t-17.5 17.5t-24 7h-40q-19 0 -37 -8.5
t-33 -22.5t-26 -32t-15 -37l-20 -93q-3 -14 -0.5 -27.5t9 -24t17 -17.5t24.5 -7h40q19 0 37 8.5t33 22.5t26 32t15 37zM297 383q-14 0 -22.5 8t-15.5 17.5t-14 17.5t-18 8q-10 0 -20 -9.5t-14 -25.5h-34q5 20 14 33t20 20.5t22.5 10t22.5 2.5q17 0 27 -8t17 -17.5t13 -17.5
t15 -8q10 0 20 9.5t13 25.5h34q-5 -20 -13.5 -33t-19.5 -20.5t-23 -10t-24 -2.5z" />
    <glyph glyph-name="ugrave" unicode="u&#x300;" horiz-adv-x="357" 
d="M104 109q-6 -27 7 -50.5t40 -23.5h40q17 0 34 7t31.5 18.5t26.5 26.5t18 31l47 221h45l-72 -339h-45l9 43q-18 -20 -47 -34t-56 -14h-40q-23 0 -41 9.5t-29 25.5t-14.5 37t1.5 44l49 228h45zM319 392h-47l-49 110h47z" />
    <glyph glyph-name="uacute" unicode="u&#x301;" horiz-adv-x="357" 
d="M104 109q-6 -27 7 -50.5t40 -23.5h40q17 0 34 7t31.5 18.5t26.5 26.5t18 31l47 221h45l-72 -339h-45l9 43q-18 -20 -47 -34t-56 -14h-40q-23 0 -41 9.5t-29 25.5t-14.5 37t1.5 44l49 228h45zM296 502h47l-97 -110h-47z" />
    <glyph glyph-name="yacute" unicode="y&#x301;" horiz-adv-x="358" 
d="M81 -50q6 -14 18 -25t29 -11h40q17 0 34.5 6.5t32 17t25.5 25t14 31.5l14 67q-21 -17 -47 -29t-53 -12h-40q-23 0 -41 9.5t-29 25.5t-15 37t1 44l44 203h45l-44 -205q-6 -27 7 -50t40 -23h40q17 0 34 7t32 18t26.5 26t17.5 31l42 196h45l-74 -345q-5 -24 -22 -45.5
t-40.5 -37.5t-49.5 -25.5t-50 -9.5h-40q-37 0 -60.5 21t-28.5 53h53zM296 502h47l-97 -110h-47z" />
    <glyph glyph-name="Itilde" unicode="I&#x303;" horiz-adv-x="216" 
d="M189 475h45l-100 -475h-45zM260 527q-14 0 -22.5 8t-15.5 17.5t-14 17.5t-18 8q-10 0 -20 -9.5t-14 -25.5h-34q5 20 14 33t20 20.5t22.5 10t22.5 2.5q17 0 27 -8t17 -17.5t13 -17.5t15 -8q10 0 20 9.5t13 25.5h34q-5 -20 -13.5 -33t-19.5 -20.5t-23 -10t-24 -2.5z" />
    <glyph glyph-name="itilde" unicode="i&#x303;" horiz-adv-x="219" 
d="M86 0l72 339h45l-72 -339h-45zM227 377q-14 0 -22.5 8t-15.5 17.5t-14 17.5t-18 8q-10 0 -20 -9.5t-14 -25.5h-34q5 20 14 33t20 20.5t22.5 10t22.5 2.5q17 0 27 -8t17 -17.5t13 -17.5t15 -8q10 0 20 9.5t13 25.5h34q-5 -20 -13.5 -33t-19.5 -20.5t-23 -10t-24 -2.5z" />
    <glyph glyph-name="Utilde" unicode="U&#x303;" horiz-adv-x="478" 
d="M184 475l-67 -319q-5 -23 -1.5 -45.5t15 -40.5t29.5 -29t41 -11h55q29 0 58 13.5t53.5 36t42 51t24.5 59.5l60 285h45l-60 -285q-9 -40 -31.5 -76.5t-54.5 -64t-69.5 -43.5t-76.5 -16h-55q-33 0 -58.5 13.5t-41.5 36.5t-21.5 53t1.5 63l67 319h45zM394 527q-14 0 -22.5 8
t-15.5 17.5t-14 17.5t-18 8q-10 0 -20 -9.5t-14 -25.5h-34q5 20 14 33t20 20.5t22.5 10t22.5 2.5q17 0 27 -8t17 -17.5t13 -17.5t15 -8q10 0 20 9.5t13 25.5h34q-5 -20 -13.5 -33t-19.5 -20.5t-23 -10t-24 -2.5z" />
    <glyph glyph-name="utilde" unicode="u&#x303;" horiz-adv-x="357" 
d="M104 109q-6 -27 7 -50.5t40 -23.5h40q17 0 34 7t31.5 18.5t26.5 26.5t18 31l47 221h45l-72 -339h-45l9 43q-18 -20 -47 -34t-56 -14h-40q-23 0 -41 9.5t-29 25.5t-14.5 37t1.5 44l49 228h45zM300 377q-14 0 -22.5 8t-15.5 17.5t-14 17.5t-18 8q-10 0 -20 -9.5t-14 -25.5
h-34q5 20 14 33t20 20.5t22.5 10t22.5 2.5q17 0 27 -8t17 -17.5t13 -17.5t15 -8q10 0 20 9.5t13 25.5h34q-5 -20 -13.5 -33t-19.5 -20.5t-23 -10t-24 -2.5z" />
    <glyph glyph-name="uni1EA0" unicode="A&#x323;" horiz-adv-x="523" 
d="M337 476q21 0 37 -9t21 -27l103 -440h-50l-31 133h-256l-86 -133h-50zM186 173h221l-57 249zM214 -76q3 12 13.5 21.5t23.5 9.5q14 0 20.5 -9.5t3.5 -21.5q-2 -12 -12.5 -21t-24.5 -9q-13 0 -19.5 9t-4.5 21z" />
    <glyph glyph-name="uni1EA1" unicode="a&#x323;" horiz-adv-x="354" 
d="M282 46q-9 -11 -22.5 -20t-29 -16t-31 -11t-28.5 -4h-40q-23 0 -39.5 9.5t-26.5 25.5t-12.5 37t2.5 44l20 93q6 28 22 53.5t38.5 45t49.5 30.5t55 11h40q27 0 37.5 -12t20.5 -24l7 31h45l-73 -341h-45zM321 228q1 13 -1.5 26.5t-9 24.5t-16.5 18t-23 7h-40
q-19 0 -37 -8.5t-33 -22.5t-26 -32t-15 -37l-20 -93q-6 -27 3.5 -51.5t36.5 -24.5h40q18 0 37.5 8t36 21.5t29 31t17.5 35.5zM133 -76q3 12 13.5 21.5t23.5 9.5q14 0 20.5 -9.5t3.5 -21.5q-2 -12 -12.5 -21t-24.5 -9q-13 0 -19.5 9t-4.5 21z" />
    <glyph glyph-name="uni1EA2" unicode="A&#x309;" horiz-adv-x="523" 
d="M337 476q21 0 37 -9t21 -27l103 -440h-50l-31 133h-256l-86 -133h-50zM186 173h221l-57 249zM396 640q-8 0 -14.5 -6.5t-8.5 -16.5h-39q6 28 24.5 42t45.5 16h8q26 0 42.5 -10t9.5 -39q-3 -15 -12.5 -25t-20.5 -16q-10 -5 -17 -10t-13 -17l-3 -15h-37l3 15q2 7 8 19
t29 26q11 5 17 11.5t7 10.5q2 11 -4.5 13t-16.5 2h-8z" />
    <glyph glyph-name="uni1EA3" unicode="a&#x309;" horiz-adv-x="354" 
d="M282 46q-9 -11 -22.5 -20t-29 -16t-31 -11t-28.5 -4h-40q-23 0 -39.5 9.5t-26.5 25.5t-12.5 37t2.5 44l20 93q6 28 22 53.5t38.5 45t49.5 30.5t55 11h40q27 0 37.5 -12t20.5 -24l7 31h45l-73 -341h-45zM321 228q1 13 -1.5 26.5t-9 24.5t-16.5 18t-23 7h-40
q-19 0 -37 -8.5t-33 -22.5t-26 -32t-15 -37l-20 -93q-6 -27 3.5 -51.5t36.5 -24.5h40q18 0 37.5 8t36 21.5t29 31t17.5 35.5zM282 490q-8 0 -14.5 -6.5t-8.5 -16.5h-39q6 28 24.5 42t45.5 16h8q26 0 42.5 -10t9.5 -39q-3 -15 -12.5 -25t-20.5 -16q-10 -5 -17 -10t-13 -17
l-3 -15h-37l3 15q2 7 8 19t29 26q11 5 17 11.5t7 10.5q2 11 -4.5 13t-16.5 2h-8z" />
    <glyph glyph-name="uni1EA4" unicode="&#xc2;&#x301;" horiz-adv-x="523" 
d="M337 476q21 0 37 -9t21 -27l103 -440h-50l-31 133h-256l-86 -133h-50zM186 173h221l-57 249zM569 721h47l-97 -110h-47zM380 660h39l58 -117h-43l-41 87l-76 -87h-43z" />
    <glyph glyph-name="uni1EA5" unicode="&#xe2;&#x301;" horiz-adv-x="385" 
d="M282 46q-9 -11 -22.5 -20t-29 -16t-31 -11t-28.5 -4h-40q-23 0 -39.5 9.5t-26.5 25.5t-12.5 37t2.5 44l20 93q6 28 22 53.5t38.5 45t49.5 30.5t55 11h40q27 0 37.5 -12t20.5 -24l7 31h45l-73 -341h-45zM321 228q1 13 -1.5 26.5t-9 24.5t-16.5 18t-23 7h-40
q-19 0 -37 -8.5t-33 -22.5t-26 -32t-15 -37l-20 -93q-6 -27 3.5 -51.5t36.5 -24.5h40q18 0 37.5 8t36 21.5t29 31t17.5 35.5zM457 570h47l-97 -110h-47zM270 510h39l58 -117h-43l-41 87l-76 -87h-43z" />
    <glyph glyph-name="uni1EA6" unicode="&#xc2;&#x300;" horiz-adv-x="523" 
d="M337 476q21 0 37 -9t21 -27l103 -440h-50l-31 133h-256l-86 -133h-50zM186 173h221l-57 249zM537 611h-47l-49 110h47zM380 660h39l58 -117h-43l-41 87l-76 -87h-43z" />
    <glyph glyph-name="uni1EA7" unicode="&#xe2;&#x300;" horiz-adv-x="352" 
d="M282 46q-9 -11 -22.5 -20t-29 -16t-31 -11t-28.5 -4h-40q-23 0 -39.5 9.5t-26.5 25.5t-12.5 37t2.5 44l20 93q6 28 22 53.5t38.5 45t49.5 30.5t55 11h40q27 0 37.5 -12t20.5 -24l7 31h45l-73 -341h-45zM321 228q1 13 -1.5 26.5t-9 24.5t-16.5 18t-23 7h-40
q-19 0 -37 -8.5t-33 -22.5t-26 -32t-15 -37l-20 -93q-6 -27 3.5 -51.5t36.5 -24.5h40q18 0 37.5 8t36 21.5t29 31t17.5 35.5zM424 460h-47l-49 110h47zM270 510h39l58 -117h-43l-41 87l-76 -87h-43z" />
    <glyph glyph-name="uni1EA8" unicode="&#xc2;&#x309;" horiz-adv-x="523" 
d="M337 476q21 0 37 -9t21 -27l103 -440h-50l-31 133h-256l-86 -133h-50zM186 173h221l-57 249zM537 640q-8 0 -14.5 -6.5t-8.5 -16.5h-39q6 28 24.5 42t45.5 16h8q26 0 42.5 -10t9.5 -39q-3 -15 -12.5 -25t-20.5 -16q-10 -5 -17 -10t-13 -17l-3 -15h-37l3 15q2 7 8 19
t29 26q11 5 17 11.5t7 10.5q2 11 -4.5 13t-16.5 2h-8zM380 660h39l58 -117h-43l-41 87l-76 -87h-43z" />
    <glyph glyph-name="uni1EA9" unicode="&#xe2;&#x309;" horiz-adv-x="363" 
d="M282 46q-9 -11 -22.5 -20t-29 -16t-31 -11t-28.5 -4h-40q-23 0 -39.5 9.5t-26.5 25.5t-12.5 37t2.5 44l20 93q6 28 22 53.5t38.5 45t49.5 30.5t55 11h40q27 0 37.5 -12t20.5 -24l7 31h45l-73 -341h-45zM321 228q1 13 -1.5 26.5t-9 24.5t-16.5 18t-23 7h-40
q-19 0 -37 -8.5t-33 -22.5t-26 -32t-15 -37l-20 -93q-6 -27 3.5 -51.5t36.5 -24.5h40q18 0 37.5 8t36 21.5t29 31t17.5 35.5zM409 538q-8 0 -14.5 -6.5t-8.5 -16.5h-39q6 28 24.5 42t45.5 16h8q26 0 42.5 -10t9.5 -39q-3 -15 -12.5 -25t-20.5 -16q-10 -5 -17 -10t-13 -17
l-3 -15h-37l3 15q2 7 8 19t29 26q11 5 17 11.5t7 10.5q2 11 -4.5 13t-16.5 2h-8zM269 510h39l58 -117h-43l-41 87l-76 -87h-43z" />
    <glyph glyph-name="uni1EAA" unicode="&#xc2;&#x303;" horiz-adv-x="523" 
d="M337 476q21 0 37 -9t21 -27l103 -440h-50l-31 133h-256l-86 -133h-50zM186 173h221l-57 249zM441 651q-14 0 -22.5 8t-15.5 17.5t-14 17.5t-18 8q-10 0 -20 -9.5t-14 -25.5h-34q5 20 14 33t20 20.5t22.5 10t22.5 2.5q17 0 27 -8t17 -17.5t13 -17.5t15 -8q10 0 20 9.5
t13 25.5h34q-5 -20 -13.5 -33t-19.5 -20.5t-23 -10t-24 -2.5zM376 640h39l58 -117h-43l-41 87l-76 -87h-43z" />
    <glyph glyph-name="uni1EAB" unicode="&#xe2;&#x303;" horiz-adv-x="354" 
d="M282 46q-9 -11 -22.5 -20t-29 -16t-31 -11t-28.5 -4h-40q-23 0 -39.5 9.5t-26.5 25.5t-12.5 37t2.5 44l20 93q6 28 22 53.5t38.5 45t49.5 30.5t55 11h40q27 0 37.5 -12t20.5 -24l7 31h45l-73 -341h-45zM321 228q1 13 -1.5 26.5t-9 24.5t-16.5 18t-23 7h-40
q-19 0 -37 -8.5t-33 -22.5t-26 -32t-15 -37l-20 -93q-6 -27 3.5 -51.5t36.5 -24.5h40q18 0 37.5 8t36 21.5t29 31t17.5 35.5zM266 490h39l58 -117h-43l-41 87l-76 -87h-43zM329 500q-14 0 -22.5 8t-15.5 17.5t-14 17.5t-18 8q-10 0 -20 -9.5t-14 -25.5h-34q5 20 14 33
t20 20.5t22.5 10t22.5 2.5q17 0 27 -8t17 -17.5t13 -17.5t15 -8q10 0 20 9.5t13 25.5h34q-5 -20 -13.5 -33t-19.5 -20.5t-23 -10t-24 -2.5z" />
    <glyph glyph-name="uni1EAC" unicode="&#xc2;&#x323;" horiz-adv-x="523" 
d="M337 476q21 0 37 -9t21 -27l103 -440h-50l-31 133h-256l-86 -133h-50zM186 173h221l-57 249zM212 -76q3 12 13.5 21.5t23.5 9.5q14 0 20.5 -9.5t3.5 -21.5q-2 -12 -12.5 -21t-24.5 -9q-13 0 -19.5 9t-4.5 21zM380 660h39l58 -117h-43l-41 87l-76 -87h-43z" />
    <glyph glyph-name="uni1EAD" unicode="&#xe2;&#x323;" horiz-adv-x="354" 
d="M282 46q-9 -11 -22.5 -20t-29 -16t-31 -11t-28.5 -4h-40q-23 0 -39.5 9.5t-26.5 25.5t-12.5 37t2.5 44l20 93q6 28 22 53.5t38.5 45t49.5 30.5t55 11h40q27 0 37.5 -12t20.5 -24l7 31h45l-73 -341h-45zM321 228q1 13 -1.5 26.5t-9 24.5t-16.5 18t-23 7h-40
q-19 0 -37 -8.5t-33 -22.5t-26 -32t-15 -37l-20 -93q-6 -27 3.5 -51.5t36.5 -24.5h40q18 0 37.5 8t36 21.5t29 31t17.5 35.5zM125 -76q3 12 13.5 21.5t23.5 9.5q14 0 20.5 -9.5t3.5 -21.5q-2 -12 -12.5 -21t-24.5 -9q-13 0 -19.5 9t-4.5 21zM270 510h39l58 -117h-43l-41 87
l-76 -87h-43z" />
    <glyph glyph-name="uni1EAE" unicode="&#x102;&#x301;" horiz-adv-x="523" 
d="M337 476q21 0 37 -9t21 -27l103 -440h-50l-31 133h-256l-86 -133h-50zM186 173h221l-57 249zM506 651q-5 -22 -17.5 -41.5t-30 -34.5t-39 -23.5t-43.5 -8.5t-40 8.5t-29 23.5t-15.5 34.5t0.5 41.5h35q-7 -31 8.5 -53.5t47.5 -22.5t56.5 22.5t31.5 53.5h35zM447 729h47
l-97 -110h-47z" />
    <glyph glyph-name="uni1EAF" unicode="&#x103;&#x301;" horiz-adv-x="354" 
d="M282 46q-9 -11 -22.5 -20t-29 -16t-31 -11t-28.5 -4h-40q-23 0 -39.5 9.5t-26.5 25.5t-12.5 37t2.5 44l20 93q6 28 22 53.5t38.5 45t49.5 30.5t55 11h40q27 0 37.5 -12t20.5 -24l7 31h45l-73 -341h-45zM321 228q1 13 -1.5 26.5t-9 24.5t-16.5 18t-23 7h-40
q-19 0 -37 -8.5t-33 -22.5t-26 -32t-15 -37l-20 -93q-6 -27 3.5 -51.5t36.5 -24.5h40q18 0 37.5 8t36 21.5t29 31t17.5 35.5zM393 501q-5 -22 -17.5 -41.5t-30 -34.5t-39 -23.5t-43.5 -8.5t-40 8.5t-29 23.5t-15.5 34.5t0.5 41.5h35q-7 -31 8.5 -53.5t47.5 -22.5t56.5 22.5
t31.5 53.5h35zM334 578h47l-97 -110h-47z" />
    <glyph glyph-name="uni1EB0" unicode="&#x102;&#x300;" horiz-adv-x="523" 
d="M337 476q21 0 37 -9t21 -27l103 -440h-50l-31 133h-256l-86 -133h-50zM186 173h221l-57 249zM506 651q-5 -22 -17.5 -41.5t-30 -34.5t-39 -23.5t-43.5 -8.5t-40 8.5t-29 23.5t-15.5 34.5t0.5 41.5h35q-7 -31 8.5 -53.5t47.5 -22.5t56.5 22.5t31.5 53.5h35zM427 619h-47
l-49 110h47z" />
    <glyph glyph-name="uni1EB1" unicode="&#x103;&#x300;" horiz-adv-x="354" 
d="M282 46q-9 -11 -22.5 -20t-29 -16t-31 -11t-28.5 -4h-40q-23 0 -39.5 9.5t-26.5 25.5t-12.5 37t2.5 44l20 93q6 28 22 53.5t38.5 45t49.5 30.5t55 11h40q27 0 37.5 -12t20.5 -24l7 31h45l-73 -341h-45zM321 228q1 13 -1.5 26.5t-9 24.5t-16.5 18t-23 7h-40
q-19 0 -37 -8.5t-33 -22.5t-26 -32t-15 -37l-20 -93q-6 -27 3.5 -51.5t36.5 -24.5h40q18 0 37.5 8t36 21.5t29 31t17.5 35.5zM393 501q-5 -22 -17.5 -41.5t-30 -34.5t-39 -23.5t-43.5 -8.5t-40 8.5t-29 23.5t-15.5 34.5t0.5 41.5h35q-7 -31 8.5 -53.5t47.5 -22.5t56.5 22.5
t31.5 53.5h35zM314 468h-47l-49 110h47z" />
    <glyph glyph-name="uni1EB2" unicode="&#x102;&#x309;" horiz-adv-x="523" 
d="M337 476q21 0 37 -9t21 -27l103 -440h-50l-31 133h-256l-86 -133h-50zM186 173h221l-57 249zM506 651q-5 -22 -17.5 -41.5t-30 -34.5t-39 -23.5t-43.5 -8.5t-40 8.5t-29 23.5t-15.5 34.5t0.5 41.5h35q-7 -31 8.5 -53.5t47.5 -22.5t56.5 22.5t31.5 53.5h35zM405 714
q-8 0 -14.5 -6.5t-8.5 -16.5h-39q6 28 24.5 42t45.5 16h8q26 0 42.5 -10t9.5 -39q-3 -15 -12.5 -25t-20.5 -16q-10 -5 -17 -10t-13 -17l-3 -15h-37l3 15q2 7 8 19t29 26q11 5 17 11.5t7 10.5q2 11 -4.5 13t-16.5 2h-8z" />
    <glyph glyph-name="uni1EB3" unicode="&#x103;&#x309;" horiz-adv-x="354" 
d="M282 46q-9 -11 -22.5 -20t-29 -16t-31 -11t-28.5 -4h-40q-23 0 -39.5 9.5t-26.5 25.5t-12.5 37t2.5 44l20 93q6 28 22 53.5t38.5 45t49.5 30.5t55 11h40q27 0 37.5 -12t20.5 -24l7 31h45l-73 -341h-45zM321 228q1 13 -1.5 26.5t-9 24.5t-16.5 18t-23 7h-40
q-19 0 -37 -8.5t-33 -22.5t-26 -32t-15 -37l-20 -93q-6 -27 3.5 -51.5t36.5 -24.5h40q18 0 37.5 8t36 21.5t29 31t17.5 35.5zM392 501q-5 -22 -17.5 -41.5t-30 -34.5t-39 -23.5t-43.5 -8.5t-40 8.5t-29 23.5t-15.5 34.5t0.5 41.5h35q-7 -31 8.5 -53.5t47.5 -22.5t56.5 22.5
t31.5 53.5h35zM290 564q-8 0 -14.5 -6.5t-8.5 -16.5h-39q6 28 24.5 42t45.5 16h8q26 0 42.5 -10t9.5 -39q-3 -15 -12.5 -25t-20.5 -16q-10 -5 -17 -10t-13 -17l-3 -15h-37l3 15q2 7 8 19t29 26q11 5 17 11.5t7 10.5q2 11 -4.5 13t-16.5 2h-8z" />
    <glyph glyph-name="uni1EB4" unicode="&#x102;&#x303;" horiz-adv-x="523" 
d="M337 476q21 0 37 -9t21 -27l103 -440h-50l-31 133h-256l-86 -133h-50zM186 173h221l-57 249zM506 651q-5 -22 -17.5 -41.5t-30 -34.5t-39 -23.5t-43.5 -8.5t-40 8.5t-29 23.5t-15.5 34.5t0.5 41.5h35q-7 -31 8.5 -53.5t47.5 -22.5t56.5 22.5t31.5 53.5h35zM437 660
q-14 0 -22.5 8t-15.5 17.5t-14 17.5t-18 8q-10 0 -20 -9.5t-14 -25.5h-34q5 20 14 33t20 20.5t22.5 10t22.5 2.5q17 0 27 -8t17 -17.5t13 -17.5t15 -8q10 0 20 9.5t13 25.5h34q-5 -20 -13.5 -33t-19.5 -20.5t-23 -10t-24 -2.5z" />
    <glyph glyph-name="uni1EB5" unicode="&#x103;&#x303;" horiz-adv-x="354" 
d="M282 46q-9 -11 -22.5 -20t-29 -16t-31 -11t-28.5 -4h-40q-23 0 -39.5 9.5t-26.5 25.5t-12.5 37t2.5 44l20 93q6 28 22 53.5t38.5 45t49.5 30.5t55 11h40q27 0 37.5 -12t20.5 -24l7 31h45l-73 -341h-45zM321 228q1 13 -1.5 26.5t-9 24.5t-16.5 18t-23 7h-40
q-19 0 -37 -8.5t-33 -22.5t-26 -32t-15 -37l-20 -93q-6 -27 3.5 -51.5t36.5 -24.5h40q18 0 37.5 8t36 21.5t29 31t17.5 35.5zM324 508q-14 0 -22.5 8t-15.5 17.5t-14 17.5t-18 8q-10 0 -20 -9.5t-14 -25.5h-34q5 20 14 33t20 20.5t22.5 10t22.5 2.5q17 0 27 -8t17 -17.5
t13 -17.5t15 -8q10 0 20 9.5t13 25.5h34q-5 -20 -13.5 -33t-19.5 -20.5t-23 -10t-24 -2.5zM393 501q-5 -22 -17.5 -41.5t-30 -34.5t-39 -23.5t-43.5 -8.5t-40 8.5t-29 23.5t-15.5 34.5t0.5 41.5h35q-7 -31 8.5 -53.5t47.5 -22.5t56.5 22.5t31.5 53.5h35z" />
    <glyph glyph-name="uni1EB6" unicode="&#x102;&#x323;" horiz-adv-x="523" 
d="M337 476q21 0 37 -9t21 -27l103 -440h-50l-31 133h-256l-86 -133h-50zM186 173h221l-57 249zM212 -76q3 12 13.5 21.5t23.5 9.5q14 0 20.5 -9.5t3.5 -21.5q-2 -12 -12.5 -21t-24.5 -9q-13 0 -19.5 9t-4.5 21zM505 651q-5 -22 -17.5 -41.5t-30 -34.5t-39 -23.5t-43.5 -8.5
t-40 8.5t-29 23.5t-15.5 34.5t0.5 41.5h35q-7 -31 8.5 -53.5t47.5 -22.5t56.5 22.5t31.5 53.5h35z" />
    <glyph glyph-name="uni1EB7" unicode="&#x103;&#x323;" horiz-adv-x="354" 
d="M282 46q-9 -11 -22.5 -20t-29 -16t-31 -11t-28.5 -4h-40q-23 0 -39.5 9.5t-26.5 25.5t-12.5 37t2.5 44l20 93q6 28 22 53.5t38.5 45t49.5 30.5t55 11h40q27 0 37.5 -12t20.5 -24l7 31h45l-73 -341h-45zM321 228q1 13 -1.5 26.5t-9 24.5t-16.5 18t-23 7h-40
q-19 0 -37 -8.5t-33 -22.5t-26 -32t-15 -37l-20 -93q-6 -27 3.5 -51.5t36.5 -24.5h40q18 0 37.5 8t36 21.5t29 31t17.5 35.5zM136 -76q3 12 13.5 21.5t23.5 9.5q14 0 20.5 -9.5t3.5 -21.5q-2 -12 -12.5 -21t-24.5 -9q-13 0 -19.5 9t-4.5 21zM392 501q-5 -22 -17.5 -41.5
t-30 -34.5t-39 -23.5t-43.5 -8.5t-40 8.5t-29 23.5t-15.5 34.5t0.5 41.5h35q-7 -31 8.5 -53.5t47.5 -22.5t56.5 22.5t31.5 53.5h35z" />
    <glyph glyph-name="uni1EB8" unicode="E&#x323;" horiz-adv-x="468" 
d="M144 475h380l-8 -40h-335l-36 -167h286l-8 -40h-286l-40 -188h335l-8 -40h-338q-17 0 -27 13.5t-6 30.5zM194 -76q3 12 13.5 21.5t23.5 9.5q14 0 20.5 -9.5t3.5 -21.5q-2 -12 -12.5 -21t-24.5 -9q-13 0 -19.5 9t-4.5 21z" />
    <glyph glyph-name="uni1EB9" unicode="e&#x323;" horiz-adv-x="350" 
d="M100 111q-3 -14 -0.5 -27.5t9 -24t17 -17.5t24.5 -7h40q19 0 36.5 7t32.5 19t25.5 28.5t14.5 35.5h45q-6 -29 -22 -52.5t-38 -41t-48.5 -27t-54.5 -9.5h-40q-23 0 -41.5 9.5t-30 25.5t-15.5 37t1 44l20 93q6 28 22 53.5t38.5 45t49.5 30.5t55 11h40q23 0 41.5 -9.5
t30 -25.5t15.5 -37t-1 -44l-11 -51h-241zM231 304q-19 0 -37 -7t-32.5 -19.5t-25 -29.5t-14.5 -36h196l3 16q3 13 0.5 27t-9 24.5t-17.5 17.5t-24 7h-40zM129 -76q3 12 13.5 21.5t23.5 9.5q14 0 20.5 -9.5t3.5 -21.5q-2 -12 -12.5 -21t-24.5 -9q-13 0 -19.5 9t-4.5 21z" />
    <glyph glyph-name="uni1EBA" unicode="E&#x309;" horiz-adv-x="468" 
d="M144 475h380l-8 -40h-335l-36 -167h286l-8 -40h-286l-40 -188h335l-8 -40h-338q-17 0 -27 13.5t-6 30.5zM376 640q-8 0 -14.5 -6.5t-8.5 -16.5h-39q6 28 24.5 42t45.5 16h8q26 0 42.5 -10t9.5 -39q-3 -15 -12.5 -25t-20.5 -16q-10 -5 -17 -10t-13 -17l-3 -15h-37l3 15
q2 7 8 19t29 26q11 5 17 11.5t7 10.5q2 11 -4.5 13t-16.5 2h-8z" />
    <glyph glyph-name="uni1EBB" unicode="e&#x309;" horiz-adv-x="350" 
d="M100 111q-3 -14 -0.5 -27.5t9 -24t17 -17.5t24.5 -7h40q19 0 36.5 7t32.5 19t25.5 28.5t14.5 35.5h45q-6 -29 -22 -52.5t-38 -41t-48.5 -27t-54.5 -9.5h-40q-23 0 -41.5 9.5t-30 25.5t-15.5 37t1 44l20 93q6 28 22 53.5t38.5 45t49.5 30.5t55 11h40q23 0 41.5 -9.5
t30 -25.5t15.5 -37t-1 -44l-11 -51h-241zM231 304q-19 0 -37 -7t-32.5 -19.5t-25 -29.5t-14.5 -36h196l3 16q3 13 0.5 27t-9 24.5t-17.5 17.5t-24 7h-40zM287 491q-8 0 -14.5 -6.5t-8.5 -16.5h-39q6 28 24.5 42t45.5 16h8q26 0 42.5 -10t9.5 -39q-3 -15 -12.5 -25t-20.5 -16
q-10 -5 -17 -10t-13 -17l-3 -15h-37l3 15q2 7 8 19t29 26q11 5 17 11.5t7 10.5q2 11 -4.5 13t-16.5 2h-8z" />
    <glyph glyph-name="uni1EBC" unicode="E&#x303;" horiz-adv-x="468" 
d="M144 475h380l-8 -40h-335l-36 -167h286l-8 -40h-286l-40 -188h335l-8 -40h-338q-17 0 -27 13.5t-6 30.5zM386 526q-14 0 -22.5 8t-15.5 17.5t-14 17.5t-18 8q-10 0 -20 -9.5t-14 -25.5h-34q5 20 14 33t20 20.5t22.5 10t22.5 2.5q17 0 27 -8t17 -17.5t13 -17.5t15 -8
q10 0 20 9.5t13 25.5h34q-5 -20 -13.5 -33t-19.5 -20.5t-23 -10t-24 -2.5z" />
    <glyph glyph-name="uni1EBD" unicode="e&#x303;" horiz-adv-x="350" 
d="M100 111q-3 -14 -0.5 -27.5t9 -24t17 -17.5t24.5 -7h40q19 0 36.5 7t32.5 19t25.5 28.5t14.5 35.5h45q-6 -29 -22 -52.5t-38 -41t-48.5 -27t-54.5 -9.5h-40q-23 0 -41.5 9.5t-30 25.5t-15.5 37t1 44l20 93q6 28 22 53.5t38.5 45t49.5 30.5t55 11h40q23 0 41.5 -9.5
t30 -25.5t15.5 -37t-1 -44l-11 -51h-241zM231 304q-19 0 -37 -7t-32.5 -19.5t-25 -29.5t-14.5 -36h196l3 16q3 13 0.5 27t-9 24.5t-17.5 17.5t-24 7h-40zM293 377q-14 0 -22.5 8t-15.5 17.5t-14 17.5t-18 8q-10 0 -20 -9.5t-14 -25.5h-34q5 20 14 33t20 20.5t22.5 10
t22.5 2.5q17 0 27 -8t17 -17.5t13 -17.5t15 -8q10 0 20 9.5t13 25.5h34q-5 -20 -13.5 -33t-19.5 -20.5t-23 -10t-24 -2.5z" />
    <glyph glyph-name="uni1EBE" unicode="&#xca;&#x301;" horiz-adv-x="468" 
d="M144 475h380l-8 -40h-335l-36 -167h286l-8 -40h-286l-40 -188h335l-8 -40h-338q-17 0 -27 13.5t-6 30.5zM547 720h47l-97 -110h-47zM359 660h39l58 -117h-43l-41 87l-76 -87h-43z" />
    <glyph glyph-name="uni1EBF" unicode="&#xea;&#x301;" horiz-adv-x="349" 
d="M100 111q-3 -14 -0.5 -27.5t9 -24t17 -17.5t24.5 -7h40q19 0 36.5 7t32.5 19t25.5 28.5t14.5 35.5h45q-6 -29 -22 -52.5t-38 -41t-48.5 -27t-54.5 -9.5h-40q-23 0 -41.5 9.5t-30 25.5t-15.5 37t1 44l20 93q6 28 22 53.5t38.5 45t49.5 30.5t55 11h40q23 0 41.5 -9.5
t30 -25.5t15.5 -37t-1 -44l-11 -51h-241zM231 304q-19 0 -37 -7t-32.5 -19.5t-25 -29.5t-14.5 -36h196l3 16q3 13 0.5 27t-9 24.5t-17.5 17.5t-24 7h-40zM450 569h47l-97 -110h-47zM264 509h39l58 -117h-43l-41 87l-76 -87h-43z" />
    <glyph glyph-name="uni1EC0" unicode="&#xca;&#x300;" horiz-adv-x="467" 
d="M144 475h380l-8 -40h-335l-36 -167h286l-8 -40h-286l-40 -188h335l-8 -40h-338q-17 0 -27 13.5t-6 30.5zM512 611h-47l-49 110h47zM358 660h39l58 -117h-43l-41 87l-76 -87h-43z" />
    <glyph glyph-name="uni1EC1" unicode="&#xea;&#x300;" horiz-adv-x="350" 
d="M100 111q-3 -14 -0.5 -27.5t9 -24t17 -17.5t24.5 -7h40q19 0 36.5 7t32.5 19t25.5 28.5t14.5 35.5h45q-6 -29 -22 -52.5t-38 -41t-48.5 -27t-54.5 -9.5h-40q-23 0 -41.5 9.5t-30 25.5t-15.5 37t1 44l20 93q6 28 22 53.5t38.5 45t49.5 30.5t55 11h40q23 0 41.5 -9.5
t30 -25.5t15.5 -37t-1 -44l-11 -51h-241zM231 304q-19 0 -37 -7t-32.5 -19.5t-25 -29.5t-14.5 -36h196l3 16q3 13 0.5 27t-9 24.5t-17.5 17.5t-24 7h-40zM411 460h-47l-49 110h47zM259 510h39l58 -117h-43l-41 87l-76 -87h-43z" />
    <glyph glyph-name="uni1EC2" unicode="&#xca;&#x309;" horiz-adv-x="468" 
d="M144 475h380l-8 -40h-335l-36 -167h286l-8 -40h-286l-40 -188h335l-8 -40h-338q-17 0 -27 13.5t-6 30.5zM519 640q-8 0 -14.5 -6.5t-8.5 -16.5h-39q6 28 24.5 42t45.5 16h8q26 0 42.5 -10t9.5 -39q-3 -15 -12.5 -25t-20.5 -16q-10 -5 -17 -10t-13 -17l-3 -15h-37l3 15
q2 7 8 19t29 26q11 5 17 11.5t7 10.5q2 11 -4.5 13t-16.5 2h-8zM361 660h39l58 -117h-43l-41 87l-76 -87h-43z" />
    <glyph glyph-name="uni1EC3" unicode="&#xea;&#x309;" horiz-adv-x="349" 
d="M100 111q-3 -14 -0.5 -27.5t9 -24t17 -17.5t24.5 -7h40q19 0 36.5 7t32.5 19t25.5 28.5t14.5 35.5h45q-6 -29 -22 -52.5t-38 -41t-48.5 -27t-54.5 -9.5h-40q-23 0 -41.5 9.5t-30 25.5t-15.5 37t1 44l20 93q6 28 22 53.5t38.5 45t49.5 30.5t55 11h40q23 0 41.5 -9.5
t30 -25.5t15.5 -37t-1 -44l-11 -51h-241zM231 304q-19 0 -37 -7t-32.5 -19.5t-25 -29.5t-14.5 -36h196l3 16q3 13 0.5 27t-9 24.5t-17.5 17.5t-24 7h-40zM409 538q-8 0 -14.5 -6.5t-8.5 -16.5h-39q6 28 24.5 42t45.5 16h8q26 0 42.5 -10t9.5 -39q-3 -15 -12.5 -25t-20.5 -16
q-10 -5 -17 -10t-13 -17l-3 -15h-37l3 15q2 7 8 19t29 26q11 5 17 11.5t7 10.5q2 11 -4.5 13t-16.5 2h-8zM269 510h39l58 -117h-43l-41 87l-76 -87h-43z" />
    <glyph glyph-name="uni1EC4" unicode="&#xca;&#x303;" horiz-adv-x="468" 
d="M144 475h380l-8 -40h-335l-36 -167h286l-8 -40h-286l-40 -188h335l-8 -40h-338q-17 0 -27 13.5t-6 30.5zM355 640h39l58 -117h-43l-41 87l-76 -87h-43zM420 651q-14 0 -22.5 8t-15.5 17.5t-14 17.5t-18 8q-10 0 -20 -9.5t-14 -25.5h-34q5 20 14 33t20 20.5t22.5 10
t22.5 2.5q17 0 27 -8t17 -17.5t13 -17.5t15 -8q10 0 20 9.5t13 25.5h34q-5 -20 -13.5 -33t-19.5 -20.5t-23 -10t-24 -2.5z" />
    <glyph glyph-name="uni1EC5" unicode="&#xea;&#x303;" horiz-adv-x="349" 
d="M100 111q-3 -14 -0.5 -27.5t9 -24t17 -17.5t24.5 -7h40q19 0 36.5 7t32.5 19t25.5 28.5t14.5 35.5h45q-6 -29 -22 -52.5t-38 -41t-48.5 -27t-54.5 -9.5h-40q-23 0 -41.5 9.5t-30 25.5t-15.5 37t1 44l20 93q6 28 22 53.5t38.5 45t49.5 30.5t55 11h40q23 0 41.5 -9.5
t30 -25.5t15.5 -37t-1 -44l-11 -51h-241zM231 304q-19 0 -37 -7t-32.5 -19.5t-25 -29.5t-14.5 -36h196l3 16q3 13 0.5 27t-9 24.5t-17.5 17.5t-24 7h-40zM262 500h39l58 -117h-43l-41 87l-76 -87h-43zM325 510q-14 0 -22.5 8t-15.5 17.5t-14 17.5t-18 8q-10 0 -20 -9.5
t-14 -25.5h-34q5 20 14 33t20 20.5t22.5 10t22.5 2.5q17 0 27 -8t17 -17.5t13 -17.5t15 -8q10 0 20 9.5t13 25.5h34q-5 -20 -13.5 -33t-19.5 -20.5t-23 -10t-24 -2.5z" />
    <glyph glyph-name="uni1EC6" unicode="&#xca;&#x323;" horiz-adv-x="468" 
d="M144 475h380l-8 -40h-335l-36 -167h286l-8 -40h-286l-40 -188h335l-8 -40h-338q-17 0 -27 13.5t-6 30.5zM192 -76q3 12 13.5 21.5t23.5 9.5q14 0 20.5 -9.5t3.5 -21.5q-2 -12 -12.5 -21t-24.5 -9q-13 0 -19.5 9t-4.5 21zM361 660h39l58 -117h-43l-41 87l-76 -87h-43z" />
    <glyph glyph-name="uni1EC7" unicode="&#xea;&#x323;" horiz-adv-x="350" 
d="M100 111q-3 -14 -0.5 -27.5t9 -24t17 -17.5t24.5 -7h40q19 0 36.5 7t32.5 19t25.5 28.5t14.5 35.5h45q-6 -29 -22 -52.5t-38 -41t-48.5 -27t-54.5 -9.5h-40q-23 0 -41.5 9.5t-30 25.5t-15.5 37t1 44l20 93q6 28 22 53.5t38.5 45t49.5 30.5t55 11h40q23 0 41.5 -9.5
t30 -25.5t15.5 -37t-1 -44l-11 -51h-241zM231 304q-19 0 -37 -7t-32.5 -19.5t-25 -29.5t-14.5 -36h196l3 16q3 13 0.5 27t-9 24.5t-17.5 17.5t-24 7h-40zM128 -76q3 12 13.5 21.5t23.5 9.5q14 0 20.5 -9.5t3.5 -21.5q-2 -12 -12.5 -21t-24.5 -9q-13 0 -19.5 9t-4.5 21z
M266 510h39l58 -117h-43l-41 87l-76 -87h-43z" />
    <glyph glyph-name="uni1EC8" unicode="I&#x309;" horiz-adv-x="191" 
d="M173 475h45l-100 -475h-45zM231 640q-8 0 -14.5 -6.5t-8.5 -16.5h-39q6 28 24.5 42t45.5 16h8q26 0 42.5 -10t9.5 -39q-3 -15 -12.5 -25t-20.5 -16q-10 -5 -17 -10t-13 -17l-3 -15h-37l3 15q2 7 8 19t29 26q11 5 17 11.5t7 10.5q2 11 -4.5 13t-16.5 2h-8z" />
    <glyph glyph-name="uni1EC9" unicode="i&#x309;" horiz-adv-x="162" 
d="M60 0l72 339h45l-72 -339h-45zM188 490q-8 0 -14.5 -6.5t-8.5 -16.5h-39q6 28 24.5 42t45.5 16h8q26 0 42.5 -10t9.5 -39q-3 -15 -12.5 -25t-20.5 -16q-10 -5 -17 -10t-13 -17l-3 -15h-37l3 15q2 7 8 19t29 26q11 5 17 11.5t7 10.5q2 11 -4.5 13t-16.5 2h-8z" />
    <glyph glyph-name="uni1ECA" unicode="I&#x323;" horiz-adv-x="133" 
d="M144 475h45l-100 -475h-45zM20 -76q3 12 13.5 21.5t23.5 9.5q14 0 20.5 -9.5t3.5 -21.5q-2 -12 -12.5 -21t-24.5 -9q-13 0 -19.5 9t-4.5 21z" />
    <glyph glyph-name="uni1ECB" unicode="i&#x323;" horiz-adv-x="165" 
d="M132 339h45l-72 -339h-45zM140 433q3 15 15 25t27 10t23 -10t5 -25q-4 -15 -16 -25t-27 -10t-23 10t-4 25zM34 -76q3 12 13.5 21.5t23.5 9.5q14 0 20.5 -9.5t3.5 -21.5q-2 -12 -12.5 -21t-24.5 -9q-13 0 -19.5 9t-4.5 21z" />
    <glyph glyph-name="uni1ECC" unicode="O&#x323;" horiz-adv-x="469" 
d="M475 190q-9 -40 -31.5 -76.5t-54.5 -64t-69.5 -43.5t-76.5 -16h-55q-33 0 -58.5 13.5t-41.5 36.5t-21.5 53t1.5 63l27 129q9 40 31.5 76.5t54.5 64t70 43.5t77 16h54q33 0 58.5 -13.5t41.5 -36.5t21.5 -53t-1.5 -63zM457 319q5 23 1 45.5t-15 40.5t-29 29t-41 11h-54
q-30 0 -59 -13.5t-53.5 -36t-42 -51t-24.5 -59.5l-27 -129q-5 -23 -1.5 -45.5t15 -40.5t29.5 -29t41 -11h55q29 0 58 13.5t53.5 36t42 51t24.5 59.5zM194 -76q3 12 13.5 21.5t23.5 9.5q14 0 20.5 -9.5t3.5 -21.5q-2 -12 -12.5 -21t-24.5 -9q-13 0 -19.5 9t-4.5 21z" />
    <glyph glyph-name="uni1ECD" unicode="o&#x323;" horiz-adv-x="350" 
d="M346 135q-6 -29 -22 -54t-38.5 -44.5t-49.5 -30.5t-55 -11h-40q-23 0 -41.5 9.5t-30 25.5t-15.5 37t1 44l20 93q6 28 22 53.5t38.5 45t49.5 30.5t55 11h40q23 0 41.5 -9.5t30 -25.5t15.5 -37t-1 -44zM321 228q3 13 0.5 27t-9 24.5t-17.5 17.5t-24 7h-40q-19 0 -37 -8.5
t-33 -22.5t-26 -32t-15 -37l-20 -93q-3 -14 -0.5 -27.5t9 -24t17 -17.5t24.5 -7h40q19 0 37 8.5t33 22.5t26 32t15 37zM129 -76q3 12 13.5 21.5t23.5 9.5q14 0 20.5 -9.5t3.5 -21.5q-2 -12 -12.5 -21t-24.5 -9q-13 0 -19.5 9t-4.5 21z" />
    <glyph glyph-name="uni1ECE" unicode="O&#x309;" horiz-adv-x="469" 
d="M475 190q-9 -40 -31.5 -76.5t-54.5 -64t-69.5 -43.5t-76.5 -16h-55q-33 0 -58.5 13.5t-41.5 36.5t-21.5 53t1.5 63l27 129q9 40 31.5 76.5t54.5 64t70 43.5t77 16h54q33 0 58.5 -13.5t41.5 -36.5t21.5 -53t-1.5 -63zM457 319q5 23 1 45.5t-15 40.5t-29 29t-41 11h-54
q-30 0 -59 -13.5t-53.5 -36t-42 -51t-24.5 -59.5l-27 -129q-5 -23 -1.5 -45.5t15 -40.5t29.5 -29t41 -11h55q29 0 58 13.5t53.5 36t42 51t24.5 59.5zM375 639q-8 0 -14.5 -6.5t-8.5 -16.5h-39q6 28 24.5 42t45.5 16h8q26 0 42.5 -10t9.5 -39q-3 -15 -12.5 -25t-20.5 -16
q-10 -5 -17 -10t-13 -17l-3 -15h-37l3 15q2 7 8 19t29 26q11 5 17 11.5t7 10.5q2 11 -4.5 13t-16.5 2h-8z" />
    <glyph glyph-name="uni1ECF" unicode="o&#x309;" horiz-adv-x="350" 
d="M346 135q-6 -29 -22 -54t-38.5 -44.5t-49.5 -30.5t-55 -11h-40q-23 0 -41.5 9.5t-30 25.5t-15.5 37t1 44l20 93q6 28 22 53.5t38.5 45t49.5 30.5t55 11h40q23 0 41.5 -9.5t30 -25.5t15.5 -37t-1 -44zM321 228q3 13 0.5 27t-9 24.5t-17.5 17.5t-24 7h-40q-19 0 -37 -8.5
t-33 -22.5t-26 -32t-15 -37l-20 -93q-3 -14 -0.5 -27.5t9 -24t17 -17.5t24.5 -7h40q19 0 37 8.5t33 22.5t26 32t15 37zM282 490q-8 0 -14.5 -6.5t-8.5 -16.5h-39q6 28 24.5 42t45.5 16h8q26 0 42.5 -10t9.5 -39q-3 -15 -12.5 -25t-20.5 -16q-10 -5 -17 -10t-13 -17l-3 -15
h-37l3 15q2 7 8 19t29 26q11 5 17 11.5t7 10.5q2 11 -4.5 13t-16.5 2h-8z" />
    <glyph glyph-name="uni1ED0" unicode="&#xd4;&#x301;" horiz-adv-x="468" 
d="M475 190q-9 -40 -31.5 -76.5t-54.5 -64t-69.5 -43.5t-76.5 -16h-55q-33 0 -58.5 13.5t-41.5 36.5t-21.5 53t1.5 63l27 129q9 40 31.5 76.5t54.5 64t70 43.5t77 16h54q33 0 58.5 -13.5t41.5 -36.5t21.5 -53t-1.5 -63zM457 319q5 23 1 45.5t-15 40.5t-29 29t-41 11h-54
q-30 0 -59 -13.5t-53.5 -36t-42 -51t-24.5 -59.5l-27 -129q-5 -23 -1.5 -45.5t15 -40.5t29.5 -29t41 -11h55q29 0 58 13.5t53.5 36t42 51t24.5 59.5zM549 721h47l-97 -110h-47zM360 660h39l58 -117h-43l-41 87l-76 -87h-43z" />
    <glyph glyph-name="uni1ED1" unicode="&#xf4;&#x301;" horiz-adv-x="350" 
d="M346 135q-6 -29 -22 -54t-38.5 -44.5t-49.5 -30.5t-55 -11h-40q-23 0 -41.5 9.5t-30 25.5t-15.5 37t1 44l20 93q6 28 22 53.5t38.5 45t49.5 30.5t55 11h40q23 0 41.5 -9.5t30 -25.5t15.5 -37t-1 -44zM321 228q3 13 0.5 27t-9 24.5t-17.5 17.5t-24 7h-40q-19 0 -37 -8.5
t-33 -22.5t-26 -32t-15 -37l-20 -93q-3 -14 -0.5 -27.5t9 -24t17 -17.5t24.5 -7h40q19 0 37 8.5t33 22.5t26 32t15 37zM457 570h47l-97 -110h-47zM270 510h39l58 -117h-43l-41 87l-76 -87h-43z" />
    <glyph glyph-name="uni1ED2" unicode="&#xd4;&#x300;" horiz-adv-x="469" 
d="M475 190q-9 -40 -31.5 -76.5t-54.5 -64t-69.5 -43.5t-76.5 -16h-55q-33 0 -58.5 13.5t-41.5 36.5t-21.5 53t1.5 63l27 129q9 40 31.5 76.5t54.5 64t70 43.5t77 16h54q33 0 58.5 -13.5t41.5 -36.5t21.5 -53t-1.5 -63zM457 319q5 23 1 45.5t-15 40.5t-29 29t-41 11h-54
q-30 0 -59 -13.5t-53.5 -36t-42 -51t-24.5 -59.5l-27 -129q-5 -23 -1.5 -45.5t15 -40.5t29.5 -29t41 -11h55q29 0 58 13.5t53.5 36t42 51t24.5 59.5zM359 660h39l58 -117h-43l-41 87l-76 -87h-43zM514 611h-47l-49 110h47z" />
    <glyph glyph-name="uni1ED3" unicode="&#xf4;&#x300;" horiz-adv-x="350" 
d="M346 135q-6 -29 -22 -54t-38.5 -44.5t-49.5 -30.5t-55 -11h-40q-23 0 -41.5 9.5t-30 25.5t-15.5 37t1 44l20 93q6 28 22 53.5t38.5 45t49.5 30.5t55 11h40q23 0 41.5 -9.5t30 -25.5t15.5 -37t-1 -44zM321 228q3 13 0.5 27t-9 24.5t-17.5 17.5t-24 7h-40q-19 0 -37 -8.5
t-33 -22.5t-26 -32t-15 -37l-20 -93q-3 -14 -0.5 -27.5t9 -24t17 -17.5t24.5 -7h40q19 0 37 8.5t33 22.5t26 32t15 37zM269 510h39l58 -117h-43l-41 87l-76 -87h-43zM420 457h-47l-49 110h47z" />
    <glyph glyph-name="uni1ED4" unicode="&#xd4;&#x309;" horiz-adv-x="471" 
d="M475 190q-9 -40 -31.5 -76.5t-54.5 -64t-69.5 -43.5t-76.5 -16h-55q-33 0 -58.5 13.5t-41.5 36.5t-21.5 53t1.5 63l27 129q9 40 31.5 76.5t54.5 64t70 43.5t77 16h54q33 0 58.5 -13.5t41.5 -36.5t21.5 -53t-1.5 -63zM457 319q5 23 1 45.5t-15 40.5t-29 29t-41 11h-54
q-30 0 -59 -13.5t-53.5 -36t-42 -51t-24.5 -59.5l-27 -129q-5 -23 -1.5 -45.5t15 -40.5t29.5 -29t41 -11h55q29 0 58 13.5t53.5 36t42 51t24.5 59.5zM518 640q-8 0 -14.5 -6.5t-8.5 -16.5h-39q6 28 24.5 42t45.5 16h8q26 0 42.5 -10t9.5 -39q-3 -15 -12.5 -25t-20.5 -16
q-10 -5 -17 -10t-13 -17l-3 -15h-37l3 15q2 7 8 19t29 26q11 5 17 11.5t7 10.5q2 11 -4.5 13t-16.5 2h-8zM360 660h39l58 -117h-43l-41 87l-76 -87h-43z" />
    <glyph glyph-name="uni1ED5" unicode="&#xf4;&#x309;" horiz-adv-x="350" 
d="M346 135q-6 -29 -22 -54t-38.5 -44.5t-49.5 -30.5t-55 -11h-40q-23 0 -41.5 9.5t-30 25.5t-15.5 37t1 44l20 93q6 28 22 53.5t38.5 45t49.5 30.5t55 11h40q23 0 41.5 -9.5t30 -25.5t15.5 -37t-1 -44zM321 228q3 13 0.5 27t-9 24.5t-17.5 17.5t-24 7h-40q-19 0 -37 -8.5
t-33 -22.5t-26 -32t-15 -37l-20 -93q-3 -14 -0.5 -27.5t9 -24t17 -17.5t24.5 -7h40q19 0 37 8.5t33 22.5t26 32t15 37zM409 538q-8 0 -14.5 -6.5t-8.5 -16.5h-39q6 28 24.5 42t45.5 16h8q26 0 42.5 -10t9.5 -39q-3 -15 -12.5 -25t-20.5 -16q-10 -5 -17 -10t-13 -17l-3 -15
h-37l3 15q2 7 8 19t29 26q11 5 17 11.5t7 10.5q2 11 -4.5 13t-16.5 2h-8zM269 510h39l58 -117h-43l-41 87l-76 -87h-43z" />
    <glyph glyph-name="uni1ED6" unicode="&#xd4;&#x303;" horiz-adv-x="469" 
d="M475 190q-9 -40 -31.5 -76.5t-54.5 -64t-69.5 -43.5t-76.5 -16h-55q-33 0 -58.5 13.5t-41.5 36.5t-21.5 53t1.5 63l27 129q9 40 31.5 76.5t54.5 64t70 43.5t77 16h54q33 0 58.5 -13.5t41.5 -36.5t21.5 -53t-1.5 -63zM457 319q5 23 1 45.5t-15 40.5t-29 29t-41 11h-54
q-30 0 -59 -13.5t-53.5 -36t-42 -51t-24.5 -59.5l-27 -129q-5 -23 -1.5 -45.5t15 -40.5t29.5 -29t41 -11h55q29 0 58 13.5t53.5 36t42 51t24.5 59.5zM356 640h39l58 -117h-43l-41 87l-76 -87h-43zM421 651q-14 0 -22.5 8t-15.5 17.5t-14 17.5t-18 8q-10 0 -20 -9.5
t-14 -25.5h-34q5 20 14 33t20 20.5t22.5 10t22.5 2.5q17 0 27 -8t17 -17.5t13 -17.5t15 -8q10 0 20 9.5t13 25.5h34q-5 -20 -13.5 -33t-19.5 -20.5t-23 -10t-24 -2.5z" />
    <glyph glyph-name="uni1ED7" unicode="&#xf4;&#x303;" horiz-adv-x="350" 
d="M346 135q-6 -29 -22 -54t-38.5 -44.5t-49.5 -30.5t-55 -11h-40q-23 0 -41.5 9.5t-30 25.5t-15.5 37t1 44l20 93q6 28 22 53.5t38.5 45t49.5 30.5t55 11h40q23 0 41.5 -9.5t30 -25.5t15.5 -37t-1 -44zM321 228q3 13 0.5 27t-9 24.5t-17.5 17.5t-24 7h-40q-19 0 -37 -8.5
t-33 -22.5t-26 -32t-15 -37l-20 -93q-3 -14 -0.5 -27.5t9 -24t17 -17.5t24.5 -7h40q19 0 37 8.5t33 22.5t26 32t15 37zM267 500h39l58 -117h-43l-41 87l-76 -87h-43zM330 510q-14 0 -22.5 8t-15.5 17.5t-14 17.5t-18 8q-10 0 -20 -9.5t-14 -25.5h-34q5 20 14 33t20 20.5
t22.5 10t22.5 2.5q17 0 27 -8t17 -17.5t13 -17.5t15 -8q10 0 20 9.5t13 25.5h34q-5 -20 -13.5 -33t-19.5 -20.5t-23 -10t-24 -2.5z" />
    <glyph glyph-name="uni1ED8" unicode="&#xd4;&#x323;" horiz-adv-x="469" 
d="M475 190q-9 -40 -31.5 -76.5t-54.5 -64t-69.5 -43.5t-76.5 -16h-55q-33 0 -58.5 13.5t-41.5 36.5t-21.5 53t1.5 63l27 129q9 40 31.5 76.5t54.5 64t70 43.5t77 16h54q33 0 58.5 -13.5t41.5 -36.5t21.5 -53t-1.5 -63zM457 319q5 23 1 45.5t-15 40.5t-29 29t-41 11h-54
q-30 0 -59 -13.5t-53.5 -36t-42 -51t-24.5 -59.5l-27 -129q-5 -23 -1.5 -45.5t15 -40.5t29.5 -29t41 -11h55q29 0 58 13.5t53.5 36t42 51t24.5 59.5zM193 -76q3 12 13.5 21.5t23.5 9.5q14 0 20.5 -9.5t3.5 -21.5q-2 -12 -12.5 -21t-24.5 -9q-13 0 -19.5 9t-4.5 21zM359 660
h39l58 -117h-43l-41 87l-76 -87h-43z" />
    <glyph glyph-name="uni1ED9" unicode="&#xf4;&#x323;" horiz-adv-x="350" 
d="M346 135q-6 -29 -22 -54t-38.5 -44.5t-49.5 -30.5t-55 -11h-40q-23 0 -41.5 9.5t-30 25.5t-15.5 37t1 44l20 93q6 28 22 53.5t38.5 45t49.5 30.5t55 11h40q23 0 41.5 -9.5t30 -25.5t15.5 -37t-1 -44zM321 228q3 13 0.5 27t-9 24.5t-17.5 17.5t-24 7h-40q-19 0 -37 -8.5
t-33 -22.5t-26 -32t-15 -37l-20 -93q-3 -14 -0.5 -27.5t9 -24t17 -17.5t24.5 -7h40q19 0 37 8.5t33 22.5t26 32t15 37zM134 -76q3 12 13.5 21.5t23.5 9.5q14 0 20.5 -9.5t3.5 -21.5q-2 -12 -12.5 -21t-24.5 -9q-13 0 -19.5 9t-4.5 21zM269 510h39l58 -117h-43l-41 87
l-76 -87h-43z" />
    <glyph glyph-name="uni1EDA" unicode="&#x1a0;&#x301;" horiz-adv-x="468" 
d="M475 190q-9 -40 -31.5 -76.5t-54.5 -64t-69.5 -43.5t-76.5 -16h-55q-33 0 -58.5 13.5t-41.5 36.5t-21.5 53t1.5 63l27 129q9 40 31.5 76.5t54.5 64t70 43.5t77 16h54q28 0 50.5 -10.5t38.5 -28.5q21 7 35.5 21t24.5 31t15.5 34.5t8.5 32.5h45q-4 -20 -11.5 -42.5
t-19.5 -44t-30.5 -40t-43.5 -28.5q8 -20 10 -43.5t-3 -47.5zM457 319q5 23 1 45.5t-15 40.5t-29 29t-41 11h-54q-30 0 -59 -13.5t-53.5 -36t-42 -51t-24.5 -59.5l-27 -129q-5 -23 -1.5 -45.5t15 -40.5t29.5 -29t41 -11h55q29 0 58 13.5t53.5 36t42 51t24.5 59.5zM388 652h47
l-97 -110h-47z" />
    <glyph glyph-name="uni1EDB" unicode="&#x1a1;&#x301;" horiz-adv-x="350" 
d="M346 135q-6 -29 -22 -54t-38.5 -44.5t-49.5 -30.5t-55 -11h-40q-23 0 -41.5 9.5t-30 25.5t-15.5 37t1 44l20 93q6 28 22 53.5t38.5 45t49.5 30.5t55 11h40q27 0 50 -15q19 2 33 14.5t23.5 28t14.5 30t6 21.5h37q-5 -16 -10 -33t-15 -33.5t-25 -32t-39 -28.5q7 -14 11 -32
t0 -36zM321 228q3 13 0.5 27t-9 24.5t-17.5 17.5t-24 7h-40q-19 0 -37 -8.5t-33 -22.5t-26 -32t-15 -37l-20 -93q-3 -14 -0.5 -27.5t9 -24t17 -17.5t24.5 -7h40q19 0 37 8.5t33 22.5t26 32t15 37zM275 501h47l-97 -110h-47z" />
    <glyph glyph-name="uni1EDC" unicode="&#x1a0;&#x300;" horiz-adv-x="468" 
d="M475 190q-9 -40 -31.5 -76.5t-54.5 -64t-69.5 -43.5t-76.5 -16h-55q-33 0 -58.5 13.5t-41.5 36.5t-21.5 53t1.5 63l27 129q9 40 31.5 76.5t54.5 64t70 43.5t77 16h54q28 0 50.5 -10.5t38.5 -28.5q21 7 35.5 21t24.5 31t15.5 34.5t8.5 32.5h45q-4 -20 -11.5 -42.5
t-19.5 -44t-30.5 -40t-43.5 -28.5q8 -20 10 -43.5t-3 -47.5zM457 319q5 23 1 45.5t-15 40.5t-29 29t-41 11h-54q-30 0 -59 -13.5t-53.5 -36t-42 -51t-24.5 -59.5l-27 -129q-5 -23 -1.5 -45.5t15 -40.5t29.5 -29t41 -11h55q29 0 58 13.5t53.5 36t42 51t24.5 59.5zM410 542
h-47l-49 110h47z" />
    <glyph glyph-name="uni1EDD" unicode="&#x1a1;&#x300;" horiz-adv-x="350" 
d="M346 135q-6 -29 -22 -54t-38.5 -44.5t-49.5 -30.5t-55 -11h-40q-23 0 -41.5 9.5t-30 25.5t-15.5 37t1 44l20 93q6 28 22 53.5t38.5 45t49.5 30.5t55 11h40q27 0 50 -15q19 2 33 14.5t23.5 28t14.5 30t6 21.5h37q-5 -16 -10 -33t-15 -33.5t-25 -32t-39 -28.5q7 -14 11 -32
t0 -36zM321 228q3 13 0.5 27t-9 24.5t-17.5 17.5t-24 7h-40q-19 0 -37 -8.5t-33 -22.5t-26 -32t-15 -37l-20 -93q-3 -14 -0.5 -27.5t9 -24t17 -17.5t24.5 -7h40q19 0 37 8.5t33 22.5t26 32t15 37zM306 391h-47l-49 110h47z" />
    <glyph glyph-name="uni1EDE" unicode="&#x1a0;&#x309;" horiz-adv-x="468" 
d="M475 190q-9 -40 -31.5 -76.5t-54.5 -64t-69.5 -43.5t-76.5 -16h-55q-33 0 -58.5 13.5t-41.5 36.5t-21.5 53t1.5 63l27 129q9 40 31.5 76.5t54.5 64t70 43.5t77 16h54q28 0 50.5 -10.5t38.5 -28.5q21 7 35.5 21t24.5 31t15.5 34.5t8.5 32.5h45q-4 -20 -11.5 -42.5
t-19.5 -44t-30.5 -40t-43.5 -28.5q8 -20 10 -43.5t-3 -47.5zM457 319q5 23 1 45.5t-15 40.5t-29 29t-41 11h-54q-30 0 -59 -13.5t-53.5 -36t-42 -51t-24.5 -59.5l-27 -129q-5 -23 -1.5 -45.5t15 -40.5t29.5 -29t41 -11h55q29 0 58 13.5t53.5 36t42 51t24.5 59.5zM375 639
q-8 0 -14.5 -6.5t-8.5 -16.5h-39q6 28 24.5 42t45.5 16h8q26 0 42.5 -10t9.5 -39q-3 -15 -12.5 -25t-20.5 -16q-10 -5 -17 -10t-13 -17l-3 -15h-37l3 15q2 7 8 19t29 26q11 5 17 11.5t7 10.5q2 11 -4.5 13t-16.5 2h-8z" />
    <glyph glyph-name="uni1EDF" unicode="&#x1a1;&#x309;" horiz-adv-x="350" 
d="M346 135q-6 -29 -22 -54t-38.5 -44.5t-49.5 -30.5t-55 -11h-40q-23 0 -41.5 9.5t-30 25.5t-15.5 37t1 44l20 93q6 28 22 53.5t38.5 45t49.5 30.5t55 11h40q27 0 50 -15q19 2 33 14.5t23.5 28t14.5 30t6 21.5h37q-5 -16 -10 -33t-15 -33.5t-25 -32t-39 -28.5q7 -14 11 -32
t0 -36zM321 228q3 13 0.5 27t-9 24.5t-17.5 17.5t-24 7h-40q-19 0 -37 -8.5t-33 -22.5t-26 -32t-15 -37l-20 -93q-3 -14 -0.5 -27.5t9 -24t17 -17.5t24.5 -7h40q19 0 37 8.5t33 22.5t26 32t15 37zM283 490q-8 0 -14.5 -6.5t-8.5 -16.5h-39q6 28 24.5 42t45.5 16h8
q26 0 42.5 -10t9.5 -39q-3 -15 -12.5 -25t-20.5 -16q-10 -5 -17 -10t-13 -17l-3 -15h-37l3 15q2 7 8 19t29 26q11 5 17 11.5t7 10.5q2 11 -4.5 13t-16.5 2h-8z" />
    <glyph glyph-name="uni1EE0" unicode="&#x1a0;&#x303;" horiz-adv-x="468" 
d="M475 190q-9 -40 -31.5 -76.5t-54.5 -64t-69.5 -43.5t-76.5 -16h-55q-33 0 -58.5 13.5t-41.5 36.5t-21.5 53t1.5 63l27 129q9 40 31.5 76.5t54.5 64t70 43.5t77 16h54q28 0 50.5 -10.5t38.5 -28.5q21 7 35.5 21t24.5 31t15.5 34.5t8.5 32.5h45q-4 -20 -11.5 -42.5
t-19.5 -44t-30.5 -40t-43.5 -28.5q8 -20 10 -43.5t-3 -47.5zM457 319q5 23 1 45.5t-15 40.5t-29 29t-41 11h-54q-30 0 -59 -13.5t-53.5 -36t-42 -51t-24.5 -59.5l-27 -129q-5 -23 -1.5 -45.5t15 -40.5t29.5 -29t41 -11h55q29 0 58 13.5t53.5 36t42 51t24.5 59.5zM387 527
q-14 0 -22.5 8t-15.5 17.5t-14 17.5t-18 8q-10 0 -20 -9.5t-14 -25.5h-34q5 20 14 33t20 20.5t22.5 10t22.5 2.5q17 0 27 -8t17 -17.5t13 -17.5t15 -8q10 0 20 9.5t13 25.5h34q-5 -20 -13.5 -33t-19.5 -20.5t-23 -10t-24 -2.5z" />
    <glyph glyph-name="uni1EE1" unicode="&#x1a1;&#x303;" horiz-adv-x="370" 
d="M346 135q-6 -29 -22 -54t-38.5 -44.5t-49.5 -30.5t-55 -11h-40q-23 0 -41.5 9.5t-30 25.5t-15.5 37t1 44l20 93q6 28 22 53.5t38.5 45t49.5 30.5t55 11h40q27 0 50 -15q19 2 33 14.5t23.5 28t14.5 30t6 21.5h37q-5 -16 -10 -33t-15 -33.5t-25 -32t-39 -28.5q7 -14 11 -32
t0 -36zM321 228q3 13 0.5 27t-9 24.5t-17.5 17.5t-24 7h-40q-19 0 -37 -8.5t-33 -22.5t-26 -32t-15 -37l-20 -93q-3 -14 -0.5 -27.5t9 -24t17 -17.5t24.5 -7h40q19 0 37 8.5t33 22.5t26 32t15 37zM295 377q-14 0 -22.5 8t-15.5 17.5t-14 17.5t-18 8q-10 0 -20 -9.5
t-14 -25.5h-34q5 20 14 33t20 20.5t22.5 10t22.5 2.5q17 0 27 -8t17 -17.5t13 -17.5t15 -8q10 0 20 9.5t13 25.5h34q-5 -20 -13.5 -33t-19.5 -20.5t-23 -10t-24 -2.5z" />
    <glyph glyph-name="uni1EE2" unicode="&#x1a0;&#x323;" horiz-adv-x="468" 
d="M475 190q-9 -40 -31.5 -76.5t-54.5 -64t-69.5 -43.5t-76.5 -16h-55q-33 0 -58.5 13.5t-41.5 36.5t-21.5 53t1.5 63l27 129q9 40 31.5 76.5t54.5 64t70 43.5t77 16h54q28 0 50.5 -10.5t38.5 -28.5q21 7 35.5 21t24.5 31t15.5 34.5t8.5 32.5h45q-4 -20 -11.5 -42.5
t-19.5 -44t-30.5 -40t-43.5 -28.5q8 -20 10 -43.5t-3 -47.5zM457 319q5 23 1 45.5t-15 40.5t-29 29t-41 11h-54q-30 0 -59 -13.5t-53.5 -36t-42 -51t-24.5 -59.5l-27 -129q-5 -23 -1.5 -45.5t15 -40.5t29.5 -29t41 -11h55q29 0 58 13.5t53.5 36t42 51t24.5 59.5zM191 -76
q3 12 13.5 21.5t23.5 9.5q14 0 20.5 -9.5t3.5 -21.5q-2 -12 -12.5 -21t-24.5 -9q-13 0 -19.5 9t-4.5 21z" />
    <glyph glyph-name="uni1EE3" unicode="&#x1a1;&#x323;" horiz-adv-x="350" 
d="M346 135q-6 -29 -22 -54t-38.5 -44.5t-49.5 -30.5t-55 -11h-40q-23 0 -41.5 9.5t-30 25.5t-15.5 37t1 44l20 93q6 28 22 53.5t38.5 45t49.5 30.5t55 11h40q27 0 50 -15q19 2 33 14.5t23.5 28t14.5 30t6 21.5h37q-5 -16 -10 -33t-15 -33.5t-25 -32t-39 -28.5q7 -14 11 -32
t0 -36zM321 228q3 13 0.5 27t-9 24.5t-17.5 17.5t-24 7h-40q-19 0 -37 -8.5t-33 -22.5t-26 -32t-15 -37l-20 -93q-3 -14 -0.5 -27.5t9 -24t17 -17.5t24.5 -7h40q19 0 37 8.5t33 22.5t26 32t15 37zM135 -76q3 12 13.5 21.5t23.5 9.5q14 0 20.5 -9.5t3.5 -21.5
q-2 -12 -12.5 -21t-24.5 -9q-13 0 -19.5 9t-4.5 21z" />
    <glyph glyph-name="uni1EE4" unicode="U&#x323;" horiz-adv-x="478" 
d="M184 475l-67 -319q-5 -23 -1.5 -45.5t15 -40.5t29.5 -29t41 -11h55q29 0 58 13.5t53.5 36t42 51t24.5 59.5l60 285h45l-60 -285q-9 -40 -31.5 -76.5t-54.5 -64t-69.5 -43.5t-76.5 -16h-55q-33 0 -58.5 13.5t-41.5 36.5t-21.5 53t1.5 63l67 319h45zM194 -76
q3 12 13.5 21.5t23.5 9.5q14 0 20.5 -9.5t3.5 -21.5q-2 -12 -12.5 -21t-24.5 -9q-13 0 -19.5 9t-4.5 21z" />
    <glyph glyph-name="uni1EE5" unicode="u&#x323;" horiz-adv-x="357" 
d="M104 109q-6 -27 7 -50.5t40 -23.5h40q17 0 34 7t31.5 18.5t26.5 26.5t18 31l47 221h45l-72 -339h-45l9 43q-18 -20 -47 -34t-56 -14h-40q-23 0 -41 9.5t-29 25.5t-14.5 37t1.5 44l49 228h45zM136 -76q3 12 13.5 21.5t23.5 9.5q14 0 20.5 -9.5t3.5 -21.5q-2 -12 -12.5 -21
t-24.5 -9q-13 0 -19.5 9t-4.5 21z" />
    <glyph glyph-name="uni1EE6" unicode="U&#x309;" horiz-adv-x="478" 
d="M184 475l-67 -319q-5 -23 -1.5 -45.5t15 -40.5t29.5 -29t41 -11h55q29 0 58 13.5t53.5 36t42 51t24.5 59.5l60 285h45l-60 -285q-9 -40 -31.5 -76.5t-54.5 -64t-69.5 -43.5t-76.5 -16h-55q-33 0 -58.5 13.5t-41.5 36.5t-21.5 53t1.5 63l67 319h45zM375 640
q-8 0 -14.5 -6.5t-8.5 -16.5h-39q6 28 24.5 42t45.5 16h8q26 0 42.5 -10t9.5 -39q-3 -15 -12.5 -25t-20.5 -16q-10 -5 -17 -10t-13 -17l-3 -15h-37l3 15q2 7 8 19t29 26q11 5 17 11.5t7 10.5q2 11 -4.5 13t-16.5 2h-8z" />
    <glyph glyph-name="uni1EE7" unicode="u&#x309;" horiz-adv-x="357" 
d="M104 109q-6 -27 7 -50.5t40 -23.5h40q17 0 34 7t31.5 18.5t26.5 26.5t18 31l47 221h45l-72 -339h-45l9 43q-18 -20 -47 -34t-56 -14h-40q-23 0 -41 9.5t-29 25.5t-14.5 37t1.5 44l49 228h45zM283 490q-8 0 -14.5 -6.5t-8.5 -16.5h-39q6 28 24.5 42t45.5 16h8
q26 0 42.5 -10t9.5 -39q-3 -15 -12.5 -25t-20.5 -16q-10 -5 -17 -10t-13 -17l-3 -15h-37l3 15q2 7 8 19t29 26q11 5 17 11.5t7 10.5q2 11 -4.5 13t-16.5 2h-8z" />
    <glyph glyph-name="uni1EE8" unicode="&#x1af;&#x301;" horiz-adv-x="497" 
d="M479 190q-9 -40 -31.5 -76.5t-54.5 -64t-69.5 -43.5t-76.5 -16h-55q-33 0 -58.5 13.5t-41.5 36.5t-21.5 53t1.5 63l67 319h45l-67 -319q-5 -23 -1.5 -45.5t15 -40.5t29.5 -29t41 -11h55q29 0 58 13.5t53.5 36t42 51t24.5 59.5l60 285h45l-4 -23q36 20 52.5 47t24.5 66h39
q-5 -21 -14.5 -45.5t-24.5 -47.5t-37 -41.5t-51 -27.5zM388 652h47l-97 -110h-47z" />
    <glyph glyph-name="uni1EE9" unicode="&#x1b0;&#x301;" horiz-adv-x="375" 
d="M104 109q-6 -27 7 -50.5t40 -23.5h40q17 0 34 7t31.5 18.5t26.5 26.5t18 31l47 221h45l-4 -19q20 4 33.5 19t22 32.5t12 33t4.5 18.5h32q-3 -13 -9 -33t-18 -40.5t-32.5 -38t-52.5 -25.5l-60 -286h-45l9 43q-18 -20 -47 -34t-56 -14h-40q-23 0 -41 9.5t-29 25.5t-14.5 37
t1.5 44l49 228h45zM296 501h47l-97 -110h-47z" />
    <glyph glyph-name="uni1EEA" unicode="&#x1af;&#x300;" horiz-adv-x="497" 
d="M479 190q-9 -40 -31.5 -76.5t-54.5 -64t-69.5 -43.5t-76.5 -16h-55q-33 0 -58.5 13.5t-41.5 36.5t-21.5 53t1.5 63l67 319h45l-67 -319q-5 -23 -1.5 -45.5t15 -40.5t29.5 -29t41 -11h55q29 0 58 13.5t53.5 36t42 51t24.5 59.5l60 285h45l-4 -23q36 20 52.5 47t24.5 66h39
q-5 -21 -14.5 -45.5t-24.5 -47.5t-37 -41.5t-51 -27.5zM411 542h-47l-49 110h47z" />
    <glyph glyph-name="uni1EEB" unicode="&#x1b0;&#x300;" horiz-adv-x="375" 
d="M104 109q-6 -27 7 -50.5t40 -23.5h40q17 0 34 7t31.5 18.5t26.5 26.5t18 31l47 221h45l-4 -19q20 4 33.5 19t22 32.5t12 33t4.5 18.5h32q-3 -13 -9 -33t-18 -40.5t-32.5 -38t-52.5 -25.5l-60 -286h-45l9 43q-18 -20 -47 -34t-56 -14h-40q-23 0 -41 9.5t-29 25.5t-14.5 37
t1.5 44l49 228h45zM319 391h-47l-49 110h47z" />
    <glyph glyph-name="uni1EEC" unicode="&#x1af;&#x309;" horiz-adv-x="497" 
d="M479 190q-9 -40 -31.5 -76.5t-54.5 -64t-69.5 -43.5t-76.5 -16h-55q-33 0 -58.5 13.5t-41.5 36.5t-21.5 53t1.5 63l67 319h45l-67 -319q-5 -23 -1.5 -45.5t15 -40.5t29.5 -29t41 -11h55q29 0 58 13.5t53.5 36t42 51t24.5 59.5l60 285h45l-4 -23q36 20 52.5 47t24.5 66h39
q-5 -21 -14.5 -45.5t-24.5 -47.5t-37 -41.5t-51 -27.5zM375 639q-8 0 -14.5 -6.5t-8.5 -16.5h-39q6 28 24.5 42t45.5 16h8q26 0 42.5 -10t9.5 -39q-3 -15 -12.5 -25t-20.5 -16q-10 -5 -17 -10t-13 -17l-3 -15h-37l3 15q2 7 8 19t29 26q11 5 17 11.5t7 10.5q2 11 -4.5 13
t-16.5 2h-8z" />
    <glyph glyph-name="uni1EED" unicode="&#x1b0;&#x309;" horiz-adv-x="375" 
d="M104 109q-6 -27 7 -50.5t40 -23.5h40q17 0 34 7t31.5 18.5t26.5 26.5t18 31l47 221h45l-4 -19q20 4 33.5 19t22 32.5t12 33t4.5 18.5h32q-3 -13 -9 -33t-18 -40.5t-32.5 -38t-52.5 -25.5l-60 -286h-45l9 43q-18 -20 -47 -34t-56 -14h-40q-23 0 -41 9.5t-29 25.5t-14.5 37
t1.5 44l49 228h45zM283 490q-8 0 -14.5 -6.5t-8.5 -16.5h-39q6 28 24.5 42t45.5 16h8q26 0 42.5 -10t9.5 -39q-3 -15 -12.5 -25t-20.5 -16q-10 -5 -17 -10t-13 -17l-3 -15h-37l3 15q2 7 8 19t29 26q11 5 17 11.5t7 10.5q2 11 -4.5 13t-16.5 2h-8z" />
    <glyph glyph-name="uni1EEE" unicode="&#x1af;&#x303;" horiz-adv-x="497" 
d="M479 190q-9 -40 -31.5 -76.5t-54.5 -64t-69.5 -43.5t-76.5 -16h-55q-33 0 -58.5 13.5t-41.5 36.5t-21.5 53t1.5 63l67 319h45l-67 -319q-5 -23 -1.5 -45.5t15 -40.5t29.5 -29t41 -11h55q29 0 58 13.5t53.5 36t42 51t24.5 59.5l60 285h45l-4 -23q36 20 52.5 47t24.5 66h39
q-5 -21 -14.5 -45.5t-24.5 -47.5t-37 -41.5t-51 -27.5zM388 526q-14 0 -22.5 8t-15.5 17.5t-14 17.5t-18 8q-10 0 -20 -9.5t-14 -25.5h-34q5 20 14 33t20 20.5t22.5 10t22.5 2.5q17 0 27 -8t17 -17.5t13 -17.5t15 -8q10 0 20 9.5t13 25.5h34q-5 -20 -13.5 -33t-19.5 -20.5
t-23 -10t-24 -2.5z" />
    <glyph glyph-name="uni1EEF" unicode="&#x1b0;&#x303;" horiz-adv-x="375" 
d="M104 109q-6 -27 7 -50.5t40 -23.5h40q17 0 34 7t31.5 18.5t26.5 26.5t18 31l47 221h45l-4 -19q20 4 33.5 19t22 32.5t12 33t4.5 18.5h32q-3 -13 -9 -33t-18 -40.5t-32.5 -38t-52.5 -25.5l-60 -286h-45l9 43q-18 -20 -47 -34t-56 -14h-40q-23 0 -41 9.5t-29 25.5t-14.5 37
t1.5 44l49 228h45zM296 377q-14 0 -22.5 8t-15.5 17.5t-14 17.5t-18 8q-10 0 -20 -9.5t-14 -25.5h-34q5 20 14 33t20 20.5t22.5 10t22.5 2.5q17 0 27 -8t17 -17.5t13 -17.5t15 -8q10 0 20 9.5t13 25.5h34q-5 -20 -13.5 -33t-19.5 -20.5t-23 -10t-24 -2.5z" />
    <glyph glyph-name="uni1EF0" unicode="&#x1af;&#x323;" horiz-adv-x="497" 
d="M479 190q-9 -40 -31.5 -76.5t-54.5 -64t-69.5 -43.5t-76.5 -16h-55q-33 0 -58.5 13.5t-41.5 36.5t-21.5 53t1.5 63l67 319h45l-67 -319q-5 -23 -1.5 -45.5t15 -40.5t29.5 -29t41 -11h55q29 0 58 13.5t53.5 36t42 51t24.5 59.5l60 285h45l-4 -23q36 20 52.5 47t24.5 66h39
q-5 -21 -14.5 -45.5t-24.5 -47.5t-37 -41.5t-51 -27.5zM192 -76q3 12 13.5 21.5t23.5 9.5q14 0 20.5 -9.5t3.5 -21.5q-2 -12 -12.5 -21t-24.5 -9q-13 0 -19.5 9t-4.5 21z" />
    <glyph glyph-name="uni1EF1" unicode="&#x1b0;&#x323;" horiz-adv-x="375" 
d="M104 109q-6 -27 7 -50.5t40 -23.5h40q17 0 34 7t31.5 18.5t26.5 26.5t18 31l47 221h45l-4 -19q20 4 33.5 19t22 32.5t12 33t4.5 18.5h32q-3 -13 -9 -33t-18 -40.5t-32.5 -38t-52.5 -25.5l-60 -286h-45l9 43q-18 -20 -47 -34t-56 -14h-40q-23 0 -41 9.5t-29 25.5t-14.5 37
t1.5 44l49 228h45zM136 -76q3 12 13.5 21.5t23.5 9.5q14 0 20.5 -9.5t3.5 -21.5q-2 -12 -12.5 -21t-24.5 -9q-13 0 -19.5 9t-4.5 21z" />
    <glyph glyph-name="Ygrave" unicode="Y&#x300;" horiz-adv-x="450" 
d="M247 0h-45l50 237l-127 238h51l106 -200l192 200h51l-228 -238zM371 542h-47l-49 110h47z" />
    <glyph glyph-name="ygrave" unicode="y&#x300;" horiz-adv-x="358" 
d="M81 -50q6 -14 18 -25t29 -11h40q17 0 34.5 6.5t32 17t25.5 25t14 31.5l14 67q-21 -17 -47 -29t-53 -12h-40q-23 0 -41 9.5t-29 25.5t-15 37t1 44l44 203h45l-44 -205q-6 -27 7 -50t40 -23h40q17 0 34 7t32 18t26.5 26t17.5 31l42 196h45l-74 -345q-5 -24 -22 -45.5
t-40.5 -37.5t-49.5 -25.5t-50 -9.5h-40q-37 0 -60.5 21t-28.5 53h53zM309 391h-47l-49 110h47z" />
    <glyph glyph-name="uni1EF4" unicode="Y&#x323;" horiz-adv-x="450" 
d="M247 0h-45l50 237l-127 238h51l106 -200l192 200h51l-228 -238zM177 -76q3 12 13.5 21.5t23.5 9.5q14 0 20.5 -9.5t3.5 -21.5q-2 -12 -12.5 -21t-24.5 -9q-13 0 -19.5 9t-4.5 21z" />
    <glyph glyph-name="uni1EF5" unicode="y&#x323;" horiz-adv-x="358" 
d="M81 -50q6 -14 18 -25t29 -11h40q17 0 34.5 6.5t32 17t25.5 25t14 31.5l14 67q-21 -17 -47 -29t-53 -12h-40q-23 0 -41 9.5t-29 25.5t-15 37t1 44l44 203h45l-44 -205q-6 -27 7 -50t40 -23h40q17 0 34 7t32 18t26.5 26t17.5 31l42 196h45l-74 -345q-5 -24 -22 -45.5
t-40.5 -37.5t-49.5 -25.5t-50 -9.5h-40q-37 0 -60.5 21t-28.5 53h53zM109 -182q3 12 13.5 21.5t23.5 9.5q14 0 20.5 -9.5t3.5 -21.5q-2 -12 -12.5 -21t-24.5 -9q-13 0 -19.5 9t-4.5 21z" />
    <glyph glyph-name="uni1EF6" unicode="Y&#x309;" horiz-adv-x="450" 
d="M247 0h-45l50 237l-127 238h51l106 -200l192 200h51l-228 -238zM359 640q-8 0 -14.5 -6.5t-8.5 -16.5h-39q6 28 24.5 42t45.5 16h8q26 0 42.5 -10t9.5 -39q-3 -15 -12.5 -25t-20.5 -16q-10 -5 -17 -10t-13 -17l-3 -15h-37l3 15q2 7 8 19t29 26q11 5 17 11.5t7 10.5
q2 11 -4.5 13t-16.5 2h-8z" />
    <glyph glyph-name="uni1EF7" unicode="y&#x309;" horiz-adv-x="358" 
d="M81 -50q6 -14 18 -25t29 -11h40q17 0 34.5 6.5t32 17t25.5 25t14 31.5l14 67q-21 -17 -47 -29t-53 -12h-40q-23 0 -41 9.5t-29 25.5t-15 37t1 44l44 203h45l-44 -205q-6 -27 7 -50t40 -23h40q17 0 34 7t32 18t26.5 26t17.5 31l42 196h45l-74 -345q-5 -24 -22 -45.5
t-40.5 -37.5t-49.5 -25.5t-50 -9.5h-40q-37 0 -60.5 21t-28.5 53h53zM283 490q-8 0 -14.5 -6.5t-8.5 -16.5h-39q6 28 24.5 42t45.5 16h8q26 0 42.5 -10t9.5 -39q-3 -15 -12.5 -25t-20.5 -16q-10 -5 -17 -10t-13 -17l-3 -15h-37l3 15q2 7 8 19t29 26q11 5 17 11.5t7 10.5
q2 11 -4.5 13t-16.5 2h-8z" />
    <glyph glyph-name="uni1EF8" unicode="Y&#x303;" horiz-adv-x="450" 
d="M247 0h-45l50 237l-127 238h51l106 -200l192 200h51l-228 -238zM374 533q-14 0 -22.5 8t-15.5 17.5t-14 17.5t-18 8q-10 0 -20 -9.5t-14 -25.5h-34q5 20 14 33t20 20.5t22.5 10t22.5 2.5q17 0 27 -8t17 -17.5t13 -17.5t15 -8q10 0 20 9.5t13 25.5h34q-5 -20 -13.5 -33
t-19.5 -20.5t-23 -10t-24 -2.5z" />
    <glyph glyph-name="uni1EF9" unicode="y&#x303;" horiz-adv-x="358" 
d="M81 -50q6 -14 18 -25t29 -11h40q17 0 34.5 6.5t32 17t25.5 25t14 31.5l14 67q-21 -17 -47 -29t-53 -12h-40q-23 0 -41 9.5t-29 25.5t-15 37t1 44l44 203h45l-44 -205q-6 -27 7 -50t40 -23h40q17 0 34 7t32 18t26.5 26t17.5 31l42 196h45l-74 -345q-5 -24 -22 -45.5
t-40.5 -37.5t-49.5 -25.5t-50 -9.5h-40q-37 0 -60.5 21t-28.5 53h53zM296 383q-14 0 -22.5 8t-15.5 17.5t-14 17.5t-18 8q-10 0 -20 -9.5t-14 -25.5h-34q5 20 14 33t20 20.5t22.5 10t22.5 2.5q17 0 27 -8t17 -17.5t13 -17.5t15 -8q10 0 20 9.5t13 25.5h34q-5 -20 -13.5 -33
t-19.5 -20.5t-23 -10t-24 -2.5z" />
    <glyph glyph-name="uni0E4F.liga" unicode="&#xe4f;&#x22;" horiz-adv-x="420" 
d="M292 378q39 0 69.5 -16t50.5 -42.5t27.5 -61.5t-0.5 -74t-30.5 -73.5t-53.5 -61t-68.5 -42t-76.5 -15.5t-70.5 15.5t-51.5 42t-27 61t1 73.5q7 36 28.5 71t52.5 62.5t69.5 44t79.5 16.5zM283 338q-33 0 -63.5 -13t-54.5 -35t-41 -49.5t-23 -56.5q-7 -31 -1 -58.5
t21.5 -48.5t40.5 -33t56 -12t60.5 12t54.5 33t42.5 48.5t24.5 58.5q6 30 0 58t-22 49.5t-40.5 34t-54.5 12.5zM148 184q4 21 16.5 40t29.5 33t37.5 22t41.5 8q43 0 66.5 -30t14.5 -73q-5 -21 -17 -40t-29 -33t-37.5 -22t-41.5 -8t-38.5 8t-28.5 22t-15 33t1 40zM183 184
q-6 -28 9.5 -48t43.5 -20t52.5 20t30.5 48q5 28 -10.5 48t-43.5 20t-52.5 -20t-29.5 -48zM250 553h47l-31 -146h-47zM362 553h47l-31 -146h-47z" />
    <glyph glyph-name="uni0E24.liga" unicode="&#xe24;&#xe32;" horiz-adv-x="616" 
d="M541 -169h-47l98 465q6 22 -8 38q-11 15 -33 17h-33q-41 -3 -76 -32q-11 -10 -19 -19.5t-16 -20.5l-95 -448h-45l98 465q5 23 -8 41.5t-35 18.5h-63q-15 0 -31.5 -6.5t-31.5 -17.5t-27.5 -24.5t-20.5 -27.5q17 -16 20.5 -35t-1.5 -39l-17 -82q5 2 9.5 2h9.5
q25 0 40.5 -19.5t10.5 -42.5q-6 -27 -28.5 -45.5t-48.5 -18.5q-22 0 -38.5 15t-14.5 37l32 155q5 18 -5 34.5t-27 18.5q9 28 27.5 53t43 43.5t53 29t56.5 10.5h61q26 0 46.5 -15t28.5 -38l11 8q51 43 113 45h31q41 0 63 -28q23 -31 14 -72zM121 64q-3 -14 5 -25t22 -11
t26.5 10.5t15.5 25.5q3 13 -5 23.5t-22 10.5t-26.5 -11t-15.5 -23z" />
    <glyph glyph-name="uni0E26.liga" unicode="&#xe26;&#xe32;" horiz-adv-x="616" 
d="M158 60q-3 -12 -10.5 -23t-18 -19t-22.5 -13t-24 -5q-26 0 -40.5 19.5t-9.5 43.5q5 26 28 45t48 19q9 0 18 -3l17 82q2 8 -2 17.5t-12 18t-18.5 14.5t-21.5 7q9 28 27.5 52.5t43 42.5t53 28t56.5 10h61q26 0 46.5 -15t28.5 -38l11 8q51 43 113 45h31q41 0 63 -28
q24 -32 15 -72l-98 -465h-47l98 465q6 22 -8 38q-11 15 -33 17h-33q-41 -3 -76 -32q-22 -19 -35 -39l-95 -449h-45l98 465q5 23 -8 41.5t-35 18.5h-63q-15 0 -31 -6t-31 -16.5t-27.5 -23.5t-20.5 -27q17 -7 31.5 -28.5t8.5 -47.5zM61 63q-2 -14 6 -24t22 -10t26.5 10
t15.5 24t-5.5 24.5t-22.5 10.5t-26 -10.5t-16 -24.5z" />
    <glyph glyph-name="fi" unicode="fi" horiz-adv-x="367" 
d="M149 304h-65l8 35h65q6 28 22 52.5t38 43t48.5 29t54.5 10.5l-9 -45q-19 0 -36.5 -7t-32.5 -19t-25.5 -28.5t-14.5 -35.5h176l-72 -339h-45l64 304h-131l-64 -304h-45z" />
    <glyph glyph-name="fl" unicode="fl" horiz-adv-x="376" 
d="M336 304h-142l-64 -304h-45l64 304h-65l8 35h65q6 28 22 52.5t38 43t48.5 29t54.5 10.5l-9 -45q-19 0 -36.5 -7t-32.5 -19t-25.5 -28.5t-14.5 -35.5h142l28 136h45l-100 -475h-45z" />
    <glyph glyph-name="PITA" unicode="PITA&#x28;c&#x29;" horiz-adv-x="941" 
d="M98 184h826l-6 -26h-826zM160 522h154q31 0 48.5 -21.5t11.5 -53.5q-7 -31 -33.5 -52t-57.5 -21h-127l-29 -137h-27zM182 498l-21 -100h127q20 0 37 14.5t22 34.5q4 20 -7 35.5t-31 15.5h-127zM445 522h27l-60 -285h-27zM610 498h-90l5 24h205l-5 -24h-88l-55 -261h-27z
M842 523q13 0 22.5 -5.5t12.5 -16.5l62 -264h-31l-17 80h-155l-52 -80h-29zM752 341h132l-34 150zM1035 591q28 0 43 -21t9 -48q-5 -28 -29 -48t-52 -20t-43 20t-10 48q3 13 10.5 25t18.5 22t24.5 16t28.5 6zM1033 579q-24 0 -43.5 -17.5t-24.5 -39.5q-5 -23 7.5 -40
t35.5 -17t43 17t25 40t-7.5 40t-35.5 17zM1043 538q2 13 -10 13h-9q-7 0 -13.5 -6t-8.5 -14l-4 -19q-1 -6 1.5 -11t8.5 -5h8q8 0 14.5 4.5t8.5 12.5h11q-3 -12 -13 -19.5t-23 -7.5h-8q-11 0 -16.5 7.5t-3.5 16.5l4 21q3 13 14 21.5t22 8.5h9q24 0 19 -23h-11z" />
    <glyph glyph-name=".notdef" horiz-adv-x="500" 
d="M397 53l126 593h-274l-126 -593h274zM436 0h-373l147 695h373z" />
    <glyph glyph-name=".null" 
 />
    <glyph glyph-name="nonmarkingreturn" horiz-adv-x="221" 
 />
    <glyph glyph-name="space" unicode=" " horiz-adv-x="300" 
 />
    <glyph glyph-name="exclam" unicode="!" horiz-adv-x="181" 
d="M172 476h45l-78 -367h-45zM65 30q-3 -15 4.5 -25t22.5 -10t27.5 10t15.5 25t-5 25t-23 10t-27 -10t-15 -25z" />
    <glyph glyph-name="quotedbl" unicode="&#x22;" horiz-adv-x="232" 
d="M143 505h47l-31 -146h-47zM255 505h47l-31 -146h-47z" />
    <glyph glyph-name="numbersign" unicode="#" horiz-adv-x="437" 
d="M315 132h-128l-28 -132h-42l28 132h-79l8 42h79l30 138h-79l9 42h79l25 121h42l-25 -121h128l25 121h42l-25 -121h72l-9 -42h-72l-30 -138h72l-8 -42h-72l-28 -132h-42zM195 174h128l30 138h-128z" />
    <glyph glyph-name="dollar" unicode="$" horiz-adv-x="363" 
d="M167 0h-38q-47 0 -73.5 27t-16.5 74h45q-6 -27 10.5 -41.5t43.5 -14.5h38l39 181l-50 24q-22 10 -34.5 23t-18 27t-5.5 30t3 32q5 25 19.5 45.5t34.5 35.5t43.5 23.5t46.5 8.5h13l11 50h42l-11 -50h14q47 0 73.5 -27t16.5 -74h-45q6 27 -10.5 41.5t-43.5 14.5h-14
l-38 -177l51 -24q22 -11 34.5 -22t18.5 -24.5t6 -29t-4 -34.5q-5 -21 -18.5 -42.5t-33.5 -38.5t-44 -27.5t-49 -10.5h-14l-12 -53h-42zM253 208l-35 -163h14q9 0 23 6t28.5 16.5t25.5 23.5t14 27q5 28 -0.5 44t-28.5 27zM156 363q-5 -20 -2 -40t30 -33l40 -19l34 159h-13
q-14 0 -28.5 -5t-27 -14t-21.5 -21.5t-12 -26.5z" />
    <glyph glyph-name="percent" unicode="%" horiz-adv-x="581" 
d="M231 450q-15 0 -30 -7t-27.5 -18.5t-21.5 -26t-12 -29.5l-18 -84q-7 -31 7.5 -49t46.5 -18h22q32 0 59.5 24t34.5 55l18 87q7 31 -7 48.5t-48 17.5h-24zM178 361q4 18 20 32.5t36 14.5h4q38 0 30 -34l-15 -69q-4 -18 -20.5 -31.5t-34.5 -13.5h-4q-38 0 -30 35zM472 243
q-15 0 -30 -7t-27.5 -18t-21.5 -26t-12 -30l-18 -84q-6 -30 8 -48t46 -18h22q32 0 59.5 23.5t34.5 55.5l18 87q7 30 -7 47.5t-48 17.5h-24zM131 -17l365 507h44l-363 -507h-46zM419 155q5 18 20.5 32.5t35.5 14.5h4q38 0 30 -34l-14 -69q-5 -18 -21.5 -31.5t-34.5 -13.5h-4
q-36 0 -30 35z" />
    <glyph glyph-name="ampersand" unicode="&#x26;" horiz-adv-x="436" 
d="M420 211q-6 -30 -23 -62t-40 -61q11 -19 21.5 -35t18.5 -28q9 -14 16 -25h-56l-10 15q-10 16 -23 38q-30 -26 -65 -42.5t-72 -16.5h-29q-23 0 -43 11t-33.5 28.5t-19.5 40t-1 45.5l4 22q4 20 16.5 37.5t30 32.5t39 27.5t43.5 23.5l-13 20q-10 15 -16 32.5t-1 39.5l1 8
q5 24 18.5 44.5t32 35.5t41 24t45.5 9h26q39 0 60.5 -27t13.5 -66l-2 -9q-5 -23 -17.5 -41.5t-30.5 -32.5t-40 -25.5t-46 -21.5l-9 -4q17 -26 36.5 -58t39.5 -64q16 22 27 44.5t15 40.5h45zM214 230q-17 -8 -34.5 -18t-32 -21.5t-24.5 -24t-13 -25.5l-4 -22q-3 -14 1 -28
t13 -25.5t21.5 -19t26.5 -7.5h29q28 0 55 14t50 37zM262 292q34 14 61 33t33 48l1 8q5 21 -7 36t-33 15h-24q-29 0 -53 -20.5t-31 -49.5l-1 -7q-3 -13 2 -23t9 -20q0 -2 4.5 -10t12.5 -21q7 3 13.5 5.5t12.5 5.5z" />
    <glyph glyph-name="quotesingle" unicode="'" horiz-adv-x="125" 
d="M143 505h47l-31 -146h-47z" />
    <glyph glyph-name="parenleft" unicode="(" horiz-adv-x="217" 
d="M108 -137q-28 69 -35.5 146.5t9.5 159.5q18 85 56 159.5t100 146.5h49q-62 -72 -102 -146.5t-58 -159.5q-17 -82 -7.5 -159.5t37.5 -146.5h-49z" />
    <glyph glyph-name="parenright" unicode=")" horiz-adv-x="217" 
d="M17 -137q58 69 100.5 146.5t59.5 159.5q18 85 10 159.5t-40 146.5h49q62 -140 26 -306q-17 -82 -57.5 -159.5t-98.5 -146.5h-49z" />
    <glyph glyph-name="asterisk" unicode="*" horiz-adv-x="313" 
d="M233 456l21 98h35l-20 -97l94 49q1 -3 3 -7t3.5 -9.5t5.5 -13.5l-97 -49l76 -49l-25 -30l-73 48l-21 -96h-35l21 97l-94 -48l-12 30l93 48l-73 48q2 3 6 7q3 4 7.5 9.5t11.5 13.5z" />
    <glyph glyph-name="plus" unicode="+" horiz-adv-x="381" 
d="M254 199l-28 -133h-42l28 133h-133l9 42h133l28 133h42l-28 -133h133q-1 -6 -3 -12q-2 -5 -3 -13t-3 -17h-133z" />
    <glyph glyph-name="comma" unicode="," horiz-adv-x="154" 
d="M80 62h41l-6 -27q-6 -29 -18 -48t-26 -32t-27.5 -21t-23.5 -14l-16 32q9 7 19.5 13.5t20.5 15.5t18 22t12 32z" />
    <glyph glyph-name="hyphen" unicode="-" horiz-adv-x="237" 
d="M67 187l10 46h180q-1 -7 -3 -14q-2 -6 -3.5 -14.5t-3.5 -17.5h-180z" />
    <glyph glyph-name="period" unicode="." horiz-adv-x="181" 
d="M65 30q3 15 15 25t27 10t23 -10t5 -25t-15.5 -25t-27.5 -10t-22.5 10t-4.5 25z" />
    <glyph glyph-name="slash" unicode="/" horiz-adv-x="301" 
d="M-4 -17l364 507h44l-363 -507h-45z" />
    <glyph glyph-name="zero" unicode="0" horiz-adv-x="381" 
d="M312 480q68 0 96 -38t14 -101l-38 -178q-7 -32 -26 -62.5t-45.5 -54t-58.5 -37.5t-63 -14h-22q-66 0 -94 39t-15 102l37 172q7 31 25.5 62t44.5 55.5t57 39.5t61 15h27zM105 136q-9 -44 9 -72.5t63 -28.5h17q23 0 47 11.5t44 30t34.5 41t19.5 45.5l38 178q9 44 -9 71.5
t-64 27.5h-17q-24 0 -47.5 -11.5t-43.5 -30.5t-34.5 -42.5t-19.5 -47.5z" />
    <glyph glyph-name="one" unicode="1" horiz-adv-x="272" 
d="M141 0l78 368q-26 -22 -55.5 -31.5t-61.5 -10.5l9 41q21 0 42 9t39 24t31 34.5t18 40.5h45l-100 -475h-45z" />
    <glyph glyph-name="two" unicode="2" horiz-adv-x="388" 
d="M311 488q68 0 96.5 -35.5t15.5 -98.5q-4 -17 -9.5 -30.5t-14.5 -26t-23 -24.5t-35 -25l-193 -123q-29 -19 -42 -42.5t-17 -42.5h275l-8 -40h-324l9 45q8 35 27.5 62t48.5 46l220 141q12 8 24.5 25.5t16.5 34.5q20 94 -74 94h-17q-34 0 -66.5 -17t-58.5 -41l-30 27
q33 33 75.5 52t87.5 19h16z" />
    <glyph glyph-name="three" unicode="3" horiz-adv-x="392" 
d="M199 295h94q26 2 46.5 17t26.5 42q20 94 -74 94h-17q-34 0 -66.5 -17t-58.5 -41l-30 27q33 33 75.5 52t87.5 19h16q68 0 96.5 -35.5t15.5 -98.5q-11 -50 -51 -78q23 -19 32 -49.5t2 -62.5q-8 -38 -28 -68.5t-48.5 -53t-63.5 -34.5t-72 -12q-55 0 -88 20.5t-56 60.5l40 30
q20 -30 45.5 -50.5t67.5 -20.5q26 0 52 10t47.5 27.5t37 41t21.5 49.5q4 18 0.5 34t-12.5 29t-23.5 20.5t-33.5 7.5h-89z" />
    <glyph glyph-name="four" unicode="4" horiz-adv-x="391" 
d="M260 0l20 98h-183q-21 0 -31 10.5t-5 31.5l299 335h45l-71 -337h61l-9 -40h-61l-20 -98h-45zM344 397l-228 -259h173z" />
    <glyph glyph-name="five" unicode="5" horiz-adv-x="402" 
d="M436 435h-224l-30 -140h129q27 0 47 -11.5t32 -30t15.5 -42t-1.5 -47.5q-8 -38 -28 -68.5t-48.5 -53t-63.5 -34.5t-72 -12q-55 0 -88 20.5t-56 60.5l40 30q20 -30 45.5 -50.5t67.5 -20.5q26 0 52 10t47.5 27.5t37 41t21.5 49.5q4 18 0.5 34t-12.5 29t-23.5 20.5
t-33.5 7.5h-161l46 220h269z" />
    <glyph glyph-name="six" unicode="6" horiz-adv-x="397" 
d="M288 298q68 0 96.5 -34.5t15.5 -97.5l-2 -7q-7 -32 -26 -61.5t-45 -52t-57.5 -36t-62.5 -13.5h-22q-49 0 -76.5 21t-36.5 57q-6 24 -4 57t8 60l23 107q8 40 30.5 74.5t53.5 60t68.5 40.5t76.5 15q31 0 55 -8.5t41 -23.5l-34 -37q-13 11 -30.5 20t-39.5 9q-30 0 -58.5 -12
t-52.5 -32t-41.5 -47.5t-23.5 -57.5l-14 -65q28 29 62 46.5t69 17.5h27zM120 133q-10 -45 8.5 -71t63.5 -26h17q23 0 47 11t44 28t34 39t19 45l2 7q9 44 -10 68t-65 24h-17q-24 0 -47.5 -10.5t-43 -28t-33.5 -40t-19 -46.5z" />
    <glyph glyph-name="seven" unicode="7" horiz-adv-x="368" 
d="M126 476h319l-7 -30l-209 -304q-23 -33 -37.5 -69.5t-22.5 -72.5h-45q8 35 20.5 71.5t33.5 68.5q10 16 23 36t35.5 52.5t56.5 82.5t86 125h-262z" />
    <glyph glyph-name="eight" unicode="8" horiz-adv-x="393" 
d="M345 260q28 -14 41 -46t5 -69q-8 -38 -27.5 -66t-47.5 -46.5t-62.5 -28t-71.5 -9.5h-13q-59 0 -91.5 34.5t-19.5 95.5q7 33 34 67.5t64 57.5q-21 15 -30 37t-2 54q6 29 22.5 54.5t39.5 44.5t50.5 30t55.5 11h25q62 0 88 -33t14 -90q-6 -28 -28.5 -55.5t-45.5 -42.5z
M244 236q-24 0 -48 -11t-43.5 -28t-33 -36.5t-16.5 -35.5q-9 -42 12.5 -66t61.5 -24h13q27 0 52.5 7.5t46.5 21.5t36 34.5t21 46.5q4 18 -0.5 34t-14.5 29t-24.5 20.5t-29.5 7.5h-33zM265 276q19 1 37 9t33 20t25 26.5t13 26.5q8 38 -8 60.5t-57 22.5h-15q-21 0 -41.5 -7.5
t-37 -21t-29 -31.5t-16.5 -39q-4 -20 2 -33t16.5 -20.5t22 -10t18.5 -2.5h37z" />
    <glyph glyph-name="nine" unicode="9" horiz-adv-x="393" 
d="M211 187q-68 0 -97 34t-15 97l2 7q7 32 25.5 61.5t45 52t57.5 36t63 13.5h22q49 0 76.5 -21t36.5 -57q6 -24 3.5 -57.5t-7.5 -60.5l-23 -107q-9 -40 -31 -74.5t-53 -60t-68.5 -40t-76.5 -14.5q-31 0 -55.5 8.5t-41.5 23.5l35 37q13 -11 30.5 -20t39.5 -9q30 0 58.5 12
t52.5 32t41.5 47.5t23.5 57.5l14 65q-28 -29 -62 -46t-69 -17h-27zM379 351q10 45 -8.5 71t-63.5 26h-17q-23 0 -47 -11t-44 -28t-34.5 -39.5t-18.5 -44.5l-2 -7q-9 -44 10 -67.5t65 -23.5h17q24 0 47.5 10.5t43 27.5t33.5 39.5t19 46.5z" />
    <glyph glyph-name="colon" unicode=":" horiz-adv-x="200" 
d="M82 53q3 15 15 25t27 10t23 -10t5 -25t-15.5 -25t-27.5 -10t-22.5 10t-4.5 25zM134 298q3 15 15 25t27 10t23 -10t5 -25t-15.5 -25t-27.5 -10t-22.5 10t-4.5 25z" />
    <glyph glyph-name="semicolon" unicode=";" horiz-adv-x="200" 
d="M134 298q3 15 15 25t27 10t23 -10t5 -25t-15.5 -25t-27.5 -10t-22.5 10t-4.5 25zM111 94h41l-5 -27q-6 -29 -18 -48t-26 -32t-27.5 -21t-23.5 -14l-16 32q9 7 19.5 13.5t20.5 15.5t18 22t12 32z" />
    <glyph glyph-name="less" unicode="&#x3c;" horiz-adv-x="412" 
d="M466 408l-9 -45l-305 -163l236 -162l-10 -45l-304 207z" />
    <glyph glyph-name="equal" unicode="=" horiz-adv-x="350" 
d="M54 123l9 46h280q-1 -7 -3 -14q-2 -6 -3 -14.5t-3 -17.5h-280zM81 251l10 46h280q-1 -7 -3 -14q-2 -6 -3.5 -14.5t-3.5 -17.5h-280z" />
    <glyph glyph-name="greater" unicode="&#x3e;" horiz-adv-x="413" 
d="M422 200l-392 -207l10 45l304 162l-235 163l9 45z" />
    <glyph glyph-name="question" unicode="?" horiz-adv-x="358" 
d="M125 30q3 15 15 25t27 10t23 -10t5 -25t-15.5 -25t-27.5 -10t-22.5 10t-4.5 25zM108 439q17 16 48.5 26.5t69.5 10.5h55q29 0 53 -8t40 -24t22.5 -40t0.5 -55q-8 -36 -39.5 -68t-96.5 -58q-15 -6 -25.5 -16t-17 -21t-10 -21.5t-4.5 -16.5l-8 -39h-45l8 39q3 12 9.5 27.5
t18.5 32t31 32t47 27.5q45 19 63.5 39t23.5 43q8 41 -16.5 62t-64.5 21h-55q-31 0 -56 -9.5t-41 -23.5z" />
    <glyph glyph-name="at" unicode="@" horiz-adv-x="601" 
d="M421 290q3 22 -10 36.5t-35 14.5h-33q-32 0 -58.5 -21.5t-33.5 -54.5l-17 -79q-5 -23 7.5 -39t35.5 -16h34q32 0 58 20.5t34 52.5zM478 23q-29 -20 -62 -30.5t-67 -10.5h-143q-35 0 -63 13t-46 35.5t-25 53.5t1 66l30 139q9 43 33 80.5t57.5 65t74 43t82.5 15.5h142
q35 0 63 -13t46 -35.5t24.5 -53.5t-0.5 -66l-15 -70q-9 -44 -23 -74.5t-31.5 -49.5t-39 -27.5t-45.5 -8.5q-29 0 -43.5 14t-19.5 30q-10 -13 -23.5 -22t-28 -14.5t-28.5 -8t-25 -2.5h-34q-40 0 -61 27t-13 67l17 79q5 24 18.5 45t32.5 36.5t41.5 24.5t46.5 9h33
q17 0 30 -4.5t23 -12.5l3 17h39l-37 -175q-6 -28 3 -48.5t34 -20.5q18 0 32.5 9.5t25.5 26t19 38t13 46.5l15 72q6 26 1 48.5t-18 39.5t-33.5 26.5t-46.5 9.5h-147q-33 0 -65 -12.5t-58.5 -34t-46 -51t-26.5 -63.5l-30 -144q-6 -26 -1 -48.5t18 -39.5t33.5 -26.5t46.5 -9.5
h148q26 0 52.5 8.5t49.5 24.5z" />
    <glyph glyph-name="A" unicode="A" horiz-adv-x="523" 
d="M337 476q21 0 37 -9t21 -27l103 -440h-50l-31 133h-256l-86 -133h-50zM186 173h221l-57 249z" />
    <glyph glyph-name="B" unicode="B" horiz-adv-x="474" 
d="M86 0q-17 0 -27 13.5t-6 30.5l91 431h231q25 0 45 -10.5t33 -27.5t18 -39.5t0 -47.5q-5 -26 -20 -47t-37 -40q35 -14 50.5 -51t7.5 -77q-5 -25 -20 -49t-35.5 -43t-45 -31t-49.5 -12h-236zM330 40q15 0 30.5 9t29 23t23 31t12.5 32t1 31.5t-9.5 30t-19.5 22.5t-27 9h-233
l-40 -188h233zM181 435l-36 -167h186q15 0 30.5 7t28 18.5t22 26.5t12.5 30t0.5 30.5t-10 27.5t-20 19.5t-27.5 7.5h-186z" />
    <glyph glyph-name="C" unicode="C" horiz-adv-x="468" 
d="M457 333q5 22 1 42.5t-15.5 36t-30 24.5t-41.5 9h-54q-30 0 -59 -13.5t-53 -35.5t-41.5 -51t-24.5 -59l-28 -131q-5 -23 -1 -45.5t15 -40t29 -28.5t41 -11h56q29 0 57.5 10.5t52 29.5t40.5 44.5t23 54.5h45q-8 -40 -30 -73t-53 -56.5t-68 -36.5t-76 -13h-56
q-32 0 -57.5 13.5t-41.5 36.5t-22 53t1 62l28 131q9 40 31.5 76t54 63.5t69.5 43.5t77 16h54q33 0 58.5 -11.5t42 -32t22.5 -48t-1 -60.5h-45z" />
    <glyph glyph-name="D" unicode="D" horiz-adv-x="488" 
d="M86 0q-17 0 -27 13.5t-6 30.5l91 431h244q33 0 59 -12t42.5 -33t22.5 -49.5t-1 -61.5l-27 -129q-9 -40 -31 -75t-53.5 -60.5t-68.5 -40t-76 -14.5h-169zM97 40h166q29 0 57.5 12t52.5 32.5t41.5 47.5t24.5 58l27 129q5 23 1 44t-15.5 37t-30 25.5t-41.5 9.5h-199z" />
    <glyph glyph-name="E" unicode="E" horiz-adv-x="468" 
d="M144 475h380l-8 -40h-335l-36 -167h286l-8 -40h-286l-40 -188h335l-8 -40h-338q-17 0 -27 13.5t-6 30.5z" />
    <glyph glyph-name="F" unicode="F" horiz-adv-x="468" 
d="M137 228l-48 -228h-45l100 475h380l-8 -40h-335l-36 -167h286l-8 -40h-286z" />
    <glyph glyph-name="G" unicode="G" horiz-adv-x="468" 
d="M469 169q-8 -40 -30 -73t-53 -56.5t-68 -36.5t-76 -13h-56q-32 0 -57.5 13.5t-41.5 36.5t-22 53t1 62l28 131q9 40 31.5 76t54 63.5t69.5 43.5t77 16h54q33 0 58.5 -11.5t42 -32t22.5 -48t-1 -60.5h-45q5 22 1 42.5t-15.5 36t-30 24.5t-41.5 9h-54q-30 0 -59 -13.5
t-53 -35.5t-41.5 -51t-24.5 -59l-28 -131q-5 -23 -1 -45.5t15 -40t29 -28.5t41 -11h56q29 0 57.5 10.5t52 29.5t40.5 44.5t23 54.5h-142l9 40h187z" />
    <glyph glyph-name="H" unicode="H" horiz-adv-x="468" 
d="M427 228h-290l-48 -228h-45l100 475h45l-44 -207h290l44 207h45l-100 -475h-45z" />
    <glyph glyph-name="I" unicode="I" horiz-adv-x="133" 
d="M144 475h45l-100 -475h-45z" />
    <glyph glyph-name="J" unicode="J" horiz-adv-x="408" 
d="M97 155q-5 -23 -1 -44.5t15.5 -38.5t29.5 -27t41 -10q29 0 57.5 10t52 28t40 42.5t22.5 53.5l65 306h45l-65 -306q-8 -40 -30 -73t-53 -56.5t-68 -36.5t-76 -13q-32 0 -57.5 13.5t-41.5 36.5t-22 53t1 62h45z" />
    <glyph glyph-name="K" unicode="K" horiz-adv-x="448" 
d="M360 0l-136 175q-22 27 -48 34t-42 7l-45 -216h-45l100 475h45l-43 -205l309 205h68l-336 -227q16 0 30 -6.5t25.5 -16.5t22 -21.5t19.5 -23.5q0 -1 2.5 -4.5t16 -20.5t41.5 -53t79 -102h-63z" />
    <glyph glyph-name="L" unicode="L" horiz-adv-x="409" 
d="M144 475h45l-92 -435h295l-8 -40h-298q-17 0 -27 13.5t-6 30.5z" />
    <glyph glyph-name="M" unicode="M" horiz-adv-x="584" 
d="M540 0h-45l79 375l-284 -381l-122 381l-79 -375h-45l101 476h45l123 -375l282 374h45z" />
    <glyph glyph-name="N" unicode="N" horiz-adv-x="488" 
d="M413 76l85 400h47l-101 -476h-45l-225 400l-85 -400h-45l101 476h45z" />
    <glyph glyph-name="O" unicode="O" horiz-adv-x="469" 
d="M475 190q-9 -40 -31.5 -76.5t-54.5 -64t-69.5 -43.5t-76.5 -16h-55q-33 0 -58.5 13.5t-41.5 36.5t-21.5 53t1.5 63l27 129q9 40 31.5 76.5t54.5 64t70 43.5t77 16h54q33 0 58.5 -13.5t41.5 -36.5t21.5 -53t-1.5 -63zM457 319q5 23 1 45.5t-15 40.5t-29 29t-41 11h-54
q-30 0 -59 -13.5t-53.5 -36t-42 -51t-24.5 -59.5l-27 -129q-5 -23 -1.5 -45.5t15 -40.5t29.5 -29t41 -11h55q29 0 58 13.5t53.5 36t42 51t24.5 59.5z" />
    <glyph glyph-name="P" unicode="P" horiz-adv-x="449" 
d="M144 475h255q26 0 46.5 -10t34 -27t19 -39.5t-0.5 -48.5t-20.5 -48t-35 -38.5t-45 -26t-50.5 -9.5h-210l-48 -228h-45zM181 435l-36 -167h210q16 0 32.5 6.5t30 18t23 26t12.5 31.5q3 16 0 31.5t-11 27.5t-21.5 19t-29.5 7h-210z" />
    <glyph glyph-name="Q" unicode="Q" horiz-adv-x="468" 
d="M371 37q-29 -22 -62 -34.5t-67 -12.5h-55q-33 0 -58.5 13.5t-41.5 36.5t-21.5 53t1.5 63l27 129q9 40 31.5 76.5t54.5 64t70 43.5t77 16h54q33 0 58.5 -13.5t41.5 -36.5t21.5 -53t-1.5 -63l-27 -129q-7 -33 -24 -63.5t-41 -56.5l34 -47l-38 -32zM456 319q5 23 1 45.5
t-15 40.5t-29 29t-41 11h-54q-30 0 -59 -13.5t-53.5 -36t-42 -51t-24.5 -59.5l-27 -129q-5 -23 -1.5 -45.5t15 -40.5t29.5 -29t41 -11h55q25 0 49.5 10t47.5 27l-57 72l39 32l54 -69q35 41 45 88z" />
    <glyph glyph-name="R" unicode="R" horiz-adv-x="458" 
d="M144 475h255q26 0 46.5 -10t34 -27t19 -39.5t-0.5 -48.5t-20.5 -48t-35 -38.5t-45 -26t-50.5 -9.5h-14q5 0 12 -10t14 -27l84 -191h-53l-85 191q-6 14 -18 25.5t-24 11.5h-126l-48 -228h-45zM181 435l-36 -167h210q16 0 32.5 6.5t30 18t23 26t12.5 31.5q3 16 0 31.5
t-11 27.5t-21.5 19t-29.5 7h-210z" />
    <glyph glyph-name="S" unicode="S" horiz-adv-x="508" 
d="M110 149q-5 -24 -0.5 -45.5t17 -38t32 -26t44.5 -9.5h100q28 0 53.5 9t46.5 24t35 34.5t19 40.5q2 12 2.5 26t-4.5 27.5t-17 23.5t-36 13l-193 25q-36 7 -54 20t-24.5 28.5t-5 31.5t4.5 28q7 34 29.5 58t50 39t55.5 21.5t47 6.5h101q29 0 52.5 -9.5t39.5 -27.5t22 -43.5
t0 -56.5h-45q8 41 -14.5 69.5t-62.5 28.5h-101q-14 0 -34 -5.5t-39.5 -16.5t-35.5 -27t-20 -37q-2 -7 -2.5 -16.5t3.5 -19t15.5 -17t34.5 -10.5l191 -25q36 -6 55.5 -21.5t27 -35t7 -40.5t-4.5 -38q-7 -32 -26.5 -59t-47.5 -46.5t-62.5 -31t-71.5 -11.5h-100q-34 0 -61 12
t-44.5 33.5t-24 50.5t0.5 63h45z" />
    <glyph glyph-name="T" unicode="T" horiz-adv-x="390" 
d="M265 435h-148l8 40h340l-8 -40h-147l-92 -435h-45z" />
    <glyph glyph-name="U" unicode="U" horiz-adv-x="478" 
d="M184 475l-67 -319q-5 -23 -1.5 -45.5t15 -40.5t29.5 -29t41 -11h55q29 0 58 13.5t53.5 36t42 51t24.5 59.5l60 285h45l-60 -285q-9 -40 -31.5 -76.5t-54.5 -64t-69.5 -43.5t-76.5 -16h-55q-33 0 -58.5 13.5t-41.5 36.5t-21.5 53t1.5 63l67 319h45z" />
    <glyph glyph-name="V" unicode="V" horiz-adv-x="472" 
d="M499 475h48l-288 -480q-29 0 -42.5 12.5t-19.5 37.5l-72 430h48l71 -425z" />
    <glyph glyph-name="W" unicode="W" horiz-adv-x="706" 
d="M241 -5q-29 0 -43.5 12.5t-20.5 37.5l-52 430h48l51 -425l207 430q6 0 13.5 -1t15 -4.5t13 -10t7.5 -17.5l22 -397l231 425h48l-234 -430q-17 -25 -37 -37.5t-49 -12.5l-21 418z" />
    <glyph glyph-name="X" unicode="X" horiz-adv-x="462" 
d="M82 0h-57l227 237l-127 238h57l106 -200l192 200h57l-228 -238l128 -237h-57l-107 199z" />
    <glyph glyph-name="Y" unicode="Y" horiz-adv-x="450" 
d="M247 0h-45l50 237l-127 238h51l106 -200l192 200h51l-228 -238z" />
    <glyph glyph-name="Z" unicode="Z" horiz-adv-x="466" 
d="M133 435l8 40h400l-418 -435h310l-8 -40h-400l418 435h-310z" />
    <glyph glyph-name="bracketleft" unicode="[" horiz-adv-x="194" 
d="M64 -67q-2 -11 1.5 -18t11 -11.5t17 -6.5t20.5 -2h24l-8 -37h-24q-20 0 -37 4t-29 12.5t-17.5 22t-0.5 33.5l112 527q4 20 15 34t26.5 23t34.5 13t39 4h24l-7 -37h-24q-21 0 -41.5 -9t-25.5 -31z" />
    <glyph glyph-name="backslash" unicode="\" horiz-adv-x="302" 
d="M304 -17l-363.979 507h-43.9971l362.979 -507h44.9971z" />
    <glyph glyph-name="bracketright" unicode="]" horiz-adv-x="194" 
d="M215 454q4 22 -12 31t-37 9h-24l7 37h24q40 0 66.5 -17t18.5 -57l-112 -527q-9 -40 -42.5 -56t-73.5 -16h-24l8 37h24q21 0 41 8t25 30z" />
    <glyph glyph-name="asciicircum" unicode="^" horiz-adv-x="452" 
d="M317 440l-163 -192h-45l225 271l111 -271h-46z" />
    <glyph glyph-name="underscore" unicode="_" horiz-adv-x="358" 
d="M-20 -91l9 40h359q-1 -5 -3 -11q-3 -10 -6 -29h-359z" />
    <glyph glyph-name="grave" unicode="`" horiz-adv-x="119" 
d="M196 375h-47l-49 110h47z" />
    <glyph glyph-name="a" unicode="a" horiz-adv-x="352" 
d="M282 46q-9 -11 -22.5 -20t-29 -16t-31 -11t-28.5 -4h-40q-23 0 -39.5 9.5t-26.5 25.5t-12.5 37t2.5 44l20 93q6 28 22 53.5t38.5 45t49.5 30.5t55 11h40q27 0 37.5 -12t20.5 -24l7 31h45l-73 -341h-45zM321 228q1 13 -1.5 26.5t-9 24.5t-16.5 18t-23 7h-40
q-19 0 -37 -8.5t-33 -22.5t-26 -32t-15 -37l-20 -93q-6 -27 3.5 -51.5t36.5 -24.5h40q18 0 37.5 8t36 21.5t29 31t17.5 35.5z" />
    <glyph glyph-name="b" unicode="b" horiz-adv-x="353" 
d="M136 475h45l-37 -177q22 17 46 31.5t56 14.5h40q23 0 41 -9.5t29 -25.5t14.5 -37t-1.5 -44l-20 -93q-6 -29 -21.5 -54t-37.5 -44.5t-48.5 -30.5t-54.5 -11h-40q-26 0 -38 10.5t-23 21.5l-5 -27h-45zM324 230q6 27 -7 50.5t-40 23.5h-40q-17 0 -34 -7t-31.5 -18.5
t-26.5 -26.5t-18 -31l-25 -119q0 -12 3.5 -23.5t10.5 -21.5t17.5 -16t22.5 -6h40q19 0 36.5 9t32.5 23t25.5 32.5t14.5 37.5z" />
    <glyph glyph-name="c" unicode="c" horiz-adv-x="349" 
d="M322 238q6 27 -9.5 46.5t-42.5 19.5h-39q-19 0 -37 -8.5t-33 -22.5t-26 -32t-15 -37l-20 -93q-3 -14 -0.5 -27.5t9 -24t17 -17.5t24.5 -7h40q19 0 36.5 6.5t32 17.5t25 27t14.5 35h45q-6 -29 -21.5 -52t-37.5 -39.5t-48.5 -25.5t-54.5 -9h-40q-23 0 -41.5 9.5t-30 25.5
t-15.5 37t1 44l20 93q6 28 22 53.5t38.5 45t49.5 30.5t55 11h39q47 0 72.5 -29.5t15.5 -76.5h-45z" />
    <glyph glyph-name="d" unicode="d" horiz-adv-x="354" 
d="M282 46q-3 -5 -14 -13.5t-26.5 -17t-34 -14.5t-36.5 -6h-40q-23 0 -39.5 9.5t-26.5 25.5t-12.5 37t2.5 44l20 93q6 28 22 53.5t38.5 45t49.5 30.5t55 11h40q30 0 40.5 -9t18.5 -22l34 162h45l-101 -477h-45zM322 233q3 26 -11 48.5t-40 22.5h-40q-19 0 -37 -8.5
t-33 -22.5t-26 -32t-15 -37l-20 -93q-6 -27 3.5 -51.5t36.5 -24.5h40q18 0 37.5 8t36 21.5t29 31t17.5 35.5z" />
    <glyph glyph-name="e" unicode="e" horiz-adv-x="350" 
d="M100 111q-3 -14 -0.5 -27.5t9 -24t17 -17.5t24.5 -7h40q19 0 36.5 7t32.5 19t25.5 28.5t14.5 35.5h45q-6 -29 -22 -52.5t-38 -41t-48.5 -27t-54.5 -9.5h-40q-23 0 -41.5 9.5t-30 25.5t-15.5 37t1 44l20 93q6 28 22 53.5t38.5 45t49.5 30.5t55 11h40q23 0 41.5 -9.5
t30 -25.5t15.5 -37t-1 -44l-11 -51h-241zM231 304q-19 0 -37 -7t-32.5 -19.5t-25 -29.5t-14.5 -36h196l3 16q3 13 0.5 27t-9 24.5t-17.5 17.5t-24 7h-40z" />
    <glyph glyph-name="f" unicode="f" horiz-adv-x="212" 
d="M149 304h-65l8 35h65q6 28 22 52.5t38 43t48.5 29t54.5 10.5l-9 -45q-19 0 -36.5 -7t-32.5 -19t-25.5 -28.5t-14.5 -35.5h62l-8 -35h-62l-64 -304h-45z" />
    <glyph glyph-name="g" unicode="g" horiz-adv-x="354" 
d="M285 59q-22 -17 -47 -28t-51 -11h-40q-23 0 -41.5 9.5t-30 25.5t-16 37t0.5 44l15 68q6 28 22 53.5t38.5 45t49.5 30.5t55 11h40q23 0 36.5 -9.5t22.5 -21.5l6 26h45l-74 -345q-5 -24 -22 -45.5t-40.5 -37.5t-49.5 -25.5t-50 -9.5h-40q-37 0 -60.5 21t-28.5 53h53
q6 -14 18 -25t29 -11h40q17 0 34.5 6.5t32 17t25.5 25t14 31.5zM322 233q3 26 -11 48t-40 22h-40q-19 0 -37 -8.5t-33 -22t-26 -31.5t-15 -37l-15 -68q-3 -14 -0.5 -27.5t9.5 -24t17 -17.5t24 -7h40q18 0 36 8t33 21.5t26 31t16 35.5z" />
    <glyph glyph-name="h" unicode="h" horiz-adv-x="357" 
d="M324 230q6 27 -7 50.5t-40 23.5h-40q-17 0 -34 -7t-31.5 -18.5t-26.5 -26.5t-18 -31l-46 -221h-45l100 475h45l-36 -172q22 17 48 29t53 12h40q23 0 41 -9.5t29 -25.5t14.5 -37t-1.5 -44l-48 -228h-45z" />
    <glyph glyph-name="i" unicode="i" horiz-adv-x="165" 
d="M132 339h45l-72 -339h-45zM140 433q3 15 15 25t27 10t23 -10t5 -25q-4 -15 -16 -25t-27 -10t-23 10t-4 25z" />
    <glyph glyph-name="j" unicode="j" horiz-adv-x="165" 
d="M132 339h45l-72 -339q-6 -28 -22 -52.5t-38 -43t-49 -29t-54 -10.5h-40l9 45h40q37 0 68.5 26t40.5 64zM140 433q3 15 15 25t27 10t23 -10t5 -25q-4 -15 -16 -25t-27 -10t-23 10t-4 25z" />
    <glyph glyph-name="k" unicode="k" horiz-adv-x="336" 
d="M172 202q9 -3 18.5 -12t15.5 -17l129 -173h-61l-109 144q-18 23 -48 26l-36 -170h-45l100 475h45l-55 -259l188 123h69z" />
    <glyph glyph-name="l" unicode="l" horiz-adv-x="165" 
d="M160 475h45l-100 -475h-45z" />
    <glyph glyph-name="m" unicode="m" horiz-adv-x="523" 
d="M239 0l48 228q3 13 0.5 27t-9 24.5t-17.5 17.5t-24 7q-17 0 -35 -7t-33.5 -18t-26.5 -26.5t-15 -31.5l-46 -221h-45l72 339h45l-8 -36q22 17 48 29t53 12q28 0 48 -15t31 -36q24 23 57.5 37t66.5 14q23 0 41.5 -9.5t30 -25.5t15.5 -37t-1 -44l-48 -228h-45l48 230
q6 27 -8.5 50.5t-41.5 23.5q-17 0 -34.5 -5.5t-33 -16t-26.5 -24.5t-14 -31l-48 -227h-45z" />
    <glyph glyph-name="n" unicode="n" horiz-adv-x="360" 
d="M327 230q6 27 -8.5 50.5t-41.5 23.5h-40q-17 0 -34 -7t-31.5 -18.5t-26.5 -26.5t-18 -31l-46 -221h-45l72 339h45l-8 -36q22 17 48 29t53 12h40q23 0 41.5 -9.5t30 -25.5t15.5 -37t-1 -44l-48 -228h-45z" />
    <glyph glyph-name="o" unicode="o" horiz-adv-x="350" 
d="M346 135q-6 -29 -22 -54t-38.5 -44.5t-49.5 -30.5t-55 -11h-40q-23 0 -41.5 9.5t-30 25.5t-15.5 37t1 44l20 93q6 28 22 53.5t38.5 45t49.5 30.5t55 11h40q23 0 41.5 -9.5t30 -25.5t15.5 -37t-1 -44zM321 228q3 13 0.5 27t-9 24.5t-17.5 17.5t-24 7h-40q-19 0 -37 -8.5
t-33 -22.5t-26 -32t-15 -37l-20 -93q-3 -14 -0.5 -27.5t9 -24t17 -17.5t24.5 -7h40q19 0 37 8.5t33 22.5t26 32t15 37z" />
    <glyph glyph-name="p" unicode="p" horiz-adv-x="354" 
d="M108 339h45l-9 -39q14 16 42 30t58 14h40q23 0 41.5 -9.5t30 -25.5t15.5 -37t-1 -44l-20 -93q-6 -29 -22 -54t-38.5 -44.5t-49.5 -30.5t-55 -11h-40q-23 0 -36.5 10t-22.5 21l-32 -151h-45zM325 228q3 13 0.5 27t-9 24.5t-17.5 17.5t-24 7h-40q-18 0 -36.5 -8
t-33.5 -21.5t-25.5 -31t-14.5 -35.5l-21 -97q-3 -14 -0.5 -27.5t9 -24t17 -17.5t24.5 -7h40q19 0 37 8.5t33 22.5t26 32t15 37z" />
    <glyph glyph-name="q" unicode="q" horiz-adv-x="354" 
d="M281 42q-19 -20 -46.5 -33.5t-53.5 -13.5h-40q-23 0 -41.5 9.5t-30 25.5t-15.5 37t1 44l20 93q6 28 22 53.5t38.5 45t49.5 30.5t55 11h40q25 0 37 -9.5t22 -21.5l6 26h45l-99 -464h-45zM322 233q3 26 -11 48t-40 22h-40q-19 0 -37 -8.5t-33 -22t-26 -31.5t-15 -37
l-20 -93q-3 -14 -0.5 -27.5t9 -24t17 -17.5t24.5 -7h40q18 0 35.5 8t32.5 21.5t26 31t16 35.5z" />
    <glyph glyph-name="r" unicode="r" horiz-adv-x="232" 
d="M109 339h45l-8 -35q22 16 47.5 28t51.5 12h40l-9 -40h-40q-18 0 -36.5 -9t-33.5 -23t-26 -32t-15 -36l-43 -204h-45z" />
    <glyph glyph-name="s" unicode="s" horiz-adv-x="380" 
d="M160 163q-25 4 -38.5 13t-19 20.5t-5.5 24t3 24.5q5 25 20.5 43.5t35.5 31t42.5 18.5t42.5 6h69q47 0 72.5 -29.5t15.5 -76.5h-45q6 27 -9.5 46.5t-42.5 19.5h-69q-9 0 -22.5 -3.5t-27 -11t-24 -18.5t-13.5 -25q-1 -5 -1.5 -11.5t2.5 -12.5t10.5 -11t23.5 -8l138 -17
q25 -4 38 -14.5t18.5 -24t5 -27.5t-3.5 -26q-5 -21 -18 -39.5t-32 -31.5t-42.5 -20.5t-48.5 -7.5h-94q-47 0 -72.5 29.5t-15.5 76.5h45q-6 -27 9.5 -46.5t42.5 -19.5h94q9 0 22.5 4t27 11.5t24 18t13.5 24.5q5 19 -0.5 33.5t-31.5 19.5z" />
    <glyph glyph-name="t" unicode="t" horiz-adv-x="212" 
d="M149 304h-65l8 35h65l28 136h45l-28 -136h62l-8 -35h-62l-64 -304h-45z" />
    <glyph glyph-name="u" unicode="u" horiz-adv-x="357" 
d="M104 109q-6 -27 7 -50.5t40 -23.5h40q17 0 34 7t31.5 18.5t26.5 26.5t18 31l47 221h45l-72 -339h-45l9 43q-18 -20 -47 -34t-56 -14h-40q-23 0 -41 9.5t-29 25.5t-14.5 37t1.5 44l49 228h45z" />
    <glyph glyph-name="v" unicode="v" horiz-adv-x="349" 
d="M197 -5q-21 0 -37 9t-21 27l-47 308h47l45 -291l170 291h47z" />
    <glyph glyph-name="w" unicode="w" horiz-adv-x="561" 
d="M339 280l-158 -285q-16 0 -27 7t-14 21l-48 316h48l36 -286l159 292q16 0 28 -7.5t14 -21.5l30 -263l158 286h48l-183 -316q-8 -14 -23 -21t-31 -7z" />
    <glyph glyph-name="x" unicode="x" horiz-adv-x="373" 
d="M357 339h56l-159 -160l105 -179h-57l-86 145l-145 -145h-57l180 179l-90 160h56l71 -126z" />
    <glyph glyph-name="y" unicode="y" horiz-adv-x="358" 
d="M81 -50q6 -14 18 -25t29 -11h40q17 0 34.5 6.5t32 17t25.5 25t14 31.5l14 67q-21 -17 -47 -29t-53 -12h-40q-23 0 -41 9.5t-29 25.5t-15 37t1 44l44 203h45l-44 -205q-6 -27 7 -50t40 -23h40q17 0 34 7t32 18t26.5 26t17.5 31l42 196h45l-74 -345q-5 -24 -22 -45.5
t-40.5 -37.5t-49.5 -25.5t-50 -9.5h-40q-37 0 -60.5 21t-28.5 53h53z" />
    <glyph glyph-name="z" unicode="z" horiz-adv-x="375" 
d="M336 0h-304l289 304h-215l8 35h301l-291 -304h219z" />
    <glyph glyph-name="braceleft" unicode="{" horiz-adv-x="284" 
d="M144 -67q-2 -11 1.5 -18t11 -11.5t17 -6.5t20.5 -2h24l-8 -37h-24q-20 0 -37 4t-29 12.5t-17.5 22t-0.5 33.5l31 149q4 17 -3 34.5t-19.5 32t-28 23.5t-27.5 9q12 0 31 7.5t37.5 21t33 32t19.5 39.5l38 179q4 20 15 34t26.5 23t34.5 13t39 4h24l-7 -37h-24
q-21 0 -41.5 -9t-25.5 -31l-37 -176q-5 -21 -15.5 -38.5t-22.5 -30.5t-24 -21t-21 -10q7 -5 15.5 -14t15.5 -22t10 -29t-1 -34z" />
    <glyph glyph-name="bar" unicode="|" horiz-adv-x="164" 
d="M182 575h45l-144 -675h-45z" />
    <glyph glyph-name="braceright" unicode="}" horiz-adv-x="284" 
d="M140 79q4 18 14 34t22 29t24.5 22t21.5 14q-7 2 -16 10t-15.5 21t-9.5 30.5t2 38.5l37 176q4 22 -12 31t-37 9h-24l7 37h24q40 0 66.5 -17t18.5 -57l-38 -179q-5 -21 2 -39.5t19.5 -32t28 -21t27.5 -7.5q-12 0 -31 -9t-37.5 -23.5t-33 -32t-18.5 -34.5l-31 -149
q-9 -40 -42.5 -56t-73.5 -16h-24l8 37h24q21 0 41 8t25 30z" />
    <glyph glyph-name="asciitilde" unicode="~" horiz-adv-x="400" 
d="M322 217q21 0 42.5 21.5t33.5 55.5h36q-7 -31 -21.5 -54t-32.5 -38t-36 -22.5t-32 -7.5q-33 0 -50 13t-28.5 29t-21.5 29t-29 13q-21 0 -43 -21.5t-33 -55.5h-36q6 31 20.5 54t32.5 38t36 22.5t32 7.5q28 0 42.5 -13t25.5 -29t24 -29t38 -13z" />
    <glyph glyph-name="nonbreakingspace" unicode="&#xa0;" horiz-adv-x="220" 
 />
    <glyph glyph-name="exclamdown" unicode="&#xa1;" horiz-adv-x="155" 
d="M89.0107 -134.971h-44.9971l77.9951 366.978h44.9971zM196.004 311.002q3 14.999 -4.5 24.998q-7.49902 10 -22.498 10t-27.499 -10q-12.499 -9.99902 -15.499 -24.998q-2.99902 -14.999 5 -24.999q8 -9.99902 22.999 -9.99902t26.998 9.99902q11.999 10 14.999 24.999z
" />
    <glyph glyph-name="cent" unicode="&#xa2;" horiz-adv-x="382" 
d="M241 104q32 5 58.5 28t34.5 58h45q-6 -27 -20 -49t-33.5 -38t-43.5 -26t-50 -12l-16 -79h-45l16 78h-10q-23 0 -41.5 9.5t-30 25.5t-15.5 37t1 44l20 93q6 27 20 50.5t34.5 42.5t45 31t50.5 15l17 80h45l-17 -79h8q47 0 73 -29.5t16 -76.5h-45q5 27 -10 46.5t-42 19.5
h-53q-17 -3 -33 -12.5t-29 -23t-22.5 -30.5t-12.5 -34l-20 -93q-3 -14 -0.5 -27.5t9 -24t17 -17.5t24.5 -7h55z" />
    <glyph glyph-name="sterling" unicode="&#xa3;" horiz-adv-x="382" 
d="M230 209l-5 -80q-3 -14 -12.5 -30t-21 -29t-23.5 -21.5t-21 -8.5h215l-8 -40h-309l8 40q14 0 34.5 7.5t39.5 20t34 28.5t19 34q0 1 0.5 3t0.5 9.5t1 23t3 43.5h-98l9 45h90q1 16 2 27t2.5 20l3 18t4.5 21q6 28 22 53.5t38.5 45t49.5 30.5t55 11q43 0 68 -30l-38 -36
q-7 9 -17 15t-23 6q-19 0 -37 -7.5t-33 -20.5t-25.5 -30.5t-14.5 -36.5q-9 -38 -12 -86h130l-9 -45h-122z" />
    <glyph glyph-name="currency" unicode="&#xa4;" horiz-adv-x="486" 
d="M120 116q-15 24 -19 53t3 61t23 62t42 54l-31 41l36 31l32 -42q29 20 61 30.5t64 10.5t59.5 -10.5t47.5 -30.5l52 42l23 -31l-50 -41q16 -24 18.5 -54t-4.5 -62q-6 -31 -22 -60.5t-41 -53.5l32 -42l-36 -30l-33 43q-29 -22 -61.5 -32.5t-64.5 -10.5t-59.5 10t-46.5 33
l-50 -43l-24 30zM321 374q-30 0 -58.5 -12.5t-51.5 -32.5t-39 -46t-22 -53q-6 -29 -0.5 -55t20.5 -45.5t38 -31t52 -11.5t57 11.5t51.5 31t40 45.5t22.5 55q6 28 0.5 54.5t-20.5 46t-38 31.5t-52 12z" />
    <glyph glyph-name="yen" unicode="&#xa5;" horiz-adv-x="382" 
d="M197 174h-109l10 43h109l4 20l-107 238h51l86 -200l172 200h51l-208 -238l-4 -20h111l-10 -43h-111l-36 -174h-45z" />
    <glyph glyph-name="brokenbar" unicode="&#xa6;" horiz-adv-x="158" 
d="M122 295l60 280h45l-60 -280h-45zM148 205l-65 -305h-45l65 305h45z" />
    <glyph glyph-name="section" unicode="&#xa7;" horiz-adv-x="399" 
d="M146 395q5 25 20.5 43.5t36 31t43 18.5t42.5 6h69q47 0 72.5 -29.5t15.5 -76.5h-45q6 27 -9.5 46.5t-42.5 19.5h-69q-9 0 -22.5 -3.5t-27 -11t-24 -18.5t-13.5 -25q-1 -5 -1 -10.5t3 -11t11 -11t22 -10.5l131 -49q23 -9 36 -20t19 -23t6 -24.5t-2 -24.5q-6 -26 -24 -47
t-44 -34q16 -16 18.5 -33.5t-1.5 -33.5q-5 -21 -18 -39.5t-32 -31.5t-42.5 -20.5t-48.5 -7.5h-94q-23 0 -42 8t-31 22t-16 33.5t1 42.5h45q-6 -27 9.5 -46.5t42.5 -19.5h94q9 0 22.5 4t27 11.5t24 18t13.5 24.5q4 19 -2 31.5t-31 21.5l-131 49q-23 8 -36.5 17.5t-19.5 20
t-7 21.5t2 23q7 30 27.5 51t47.5 33q-20 14 -24 30.5t-1 33.5zM371 211q5 19 -1.5 31.5t-30.5 21.5l-113 42q-10 0 -23.5 -4t-26 -11.5t-22.5 -18t-13 -24.5q-1 -5 -1 -10.5t3 -11t11 -11t22 -10.5l130 -49q20 6 40 20t25 35z" />
    <glyph glyph-name="dieresis" unicode="&#xa8;" horiz-adv-x="231" 
d="M100 437q4 15 16 25t27 10t23 -10t4 -25q-3 -15 -15 -25t-27 -10t-23 10t-5 25zM243 437q4 15 16 25t27 10t23 -10t4 -25q-3 -15 -15 -25t-27 -10t-23 10t-5 25z" />
    <glyph glyph-name="copyright" unicode="&#xa9;" horiz-adv-x="487" 
d="M342 459q45 0 80.5 -18.5t58.5 -49t31.5 -71t-0.5 -84.5q-10 -45 -35.5 -85t-61.5 -70t-79 -48t-88 -18t-81 18t-59 48t-31.5 70t1.5 85q9 42 33.5 82t60 71.5t79.5 50.5t91 19zM334 423q-40 0 -76.5 -16t-66 -42.5t-50.5 -60t-28 -68.5q-8 -38 -1 -71.5t26 -58.5t49 -40
t68 -15t74.5 15t66.5 40t51.5 58.5t29.5 71.5q8 37 0.5 71t-27 59.5t-49.5 41t-67 15.5zM367 288q4 17 -6.5 29t-27.5 12h-27q-24 0 -46 -20.5t-27 -46.5l-13 -60q-4 -18 6 -34.5t27 -16.5h27q25 0 45.5 15t25.5 41h36q-8 -41 -41 -65t-73 -24h-28q-16 0 -29 6.5t-21 18
t-11 26t0 30.5l14 65q4 20 15.5 38t27 31.5t34.5 21.5t39 8h28q33 0 50.5 -21.5t10.5 -53.5h-36z" />
    <glyph glyph-name="ordfeminine" unicode="&#xaa;" horiz-adv-x="252" 
d="M239.403 223.878q-6.2998 -7.62305 -15.75 -13.8604q-9.4502 -6.23633 -20.3008 -11.0879q-10.8496 -4.85059 -21.7002 -7.62305q-10.8496 -2.77148 -19.9502 -2.77148h-28.001q-16.0996 0 -27.6504 6.58301q-11.5498 6.58398 -18.5498 17.6719t-8.75 25.6406
t1.75 30.4912l14 64.4492q4.2002 19.4033 15.4004 37.0742q11.2002 17.6719 26.9502 31.1855q15.75 13.5127 34.6504 21.1357t38.501 7.62305h28.001q18.8994 0 26.25 -8.31543q7.34961 -8.31641 14.3506 -16.6328l4.89941 21.4834h31.501l-51.1006 -236.311h-31.501z
M266.704 350.002q0.700195 9.00977 -1.0498 18.3652t-6.30078 16.9775q-4.5498 7.62305 -11.5498 12.4746q-7 4.85059 -16.1006 4.85059h-28q-13.3008 0 -25.9004 -5.89062q-12.6006 -5.89062 -23.1006 -15.5918q-10.5 -9.70215 -18.2002 -22.1758
q-7.7002 -12.4746 -10.5 -25.6406l-14.001 -64.4492q-4.2002 -18.7109 2.4502 -35.6885q6.65039 -16.9785 25.5508 -16.9785h28q12.6006 0 26.251 5.54395t25.2002 14.8994t20.3008 21.4824q8.75 12.1279 12.25 24.6016z" />
    <glyph glyph-name="guillemotleft" unicode="&#xab;" horiz-adv-x="364" 
d="M275 358l-12 -56l-147 -120l96 -120l-12 -56l-142 176zM412 358l-12 -56l-147 -120l96 -120l-12 -56l-142 176z" />
    <glyph glyph-name="logicalnot" unicode="&#xac;" horiz-adv-x="429" 
d="M373 93l33 153h-326l9 45h371l-42 -198h-45z" />
    <glyph glyph-name="registered" unicode="&#xae;" horiz-adv-x="367" 
d="M288 485q32 0 57.5 -13t42 -35t22.5 -51t-1 -60q-7 -32 -25 -60t-44 -50t-57 -34.5t-63 -12.5t-57 12.5t-41.5 34.5t-22.5 50t1 60q6 30 24 58.5t43 51t56.5 36t64.5 13.5zM282 459q-28 0 -54 -11.5t-47 -30t-36 -42.5t-20 -49q-6 -27 -0.5 -50.5t19 -41.5t34.5 -28.5
t48 -10.5t53 10.5t47.5 28.5t36.5 41.5t21 50.5t0.5 51t-19 42t-35 29t-48.5 11zM213 410h85q17 0 26.5 -13.5t5.5 -30.5t-18.5 -29t-31.5 -12h-4q3 0 8 -13l28 -61h-28l-27 62q-2 4 -6 7.5t-11 3.5h-20l-15 -73h-26zM234 389l-9 -44h54q8 0 15 6.5t9 14.5t-2.5 15.5
t-12.5 7.5h-54z" />
    <glyph glyph-name="macron" unicode="&#xaf;" horiz-adv-x="237" 
d="M117 422l9 40h180l-9 -40h-180z" />
    <glyph glyph-name="degree" unicode="&#xb0;" horiz-adv-x="216" 
d="M106 409q4 18 14.5 34t25 28t32 19t35.5 7q37 0 57 -25.5t12 -62.5q-4 -18 -14 -34t-24.5 -28t-32 -19t-35.5 -7q-37 0 -57.5 25.5t-12.5 62.5zM136 409q-5 -24 8.5 -41t37.5 -17t44.5 17t25.5 41t-8 41t-37 17t-45 -17t-26 -41z" />
    <glyph glyph-name="plusminus" unicode="&#xb1;" horiz-adv-x="429" 
d="M282 223l-28 -133h-42l28 133h-133l9 42h133l28 133h42l-28 -133h133l-9 -42h-133zM368 0h-308l8 42h308z" />
    <glyph glyph-name="twosuperior" unicode="&#xb2;" horiz-adv-x="259" 
d="M240 488q43 0 60.5 -22.5t9.5 -61.5q-5 -21 -15 -35.5t-36 -31.5l-116 -74q-13 -9 -21 -21.5t-11 -22.5h164l-7 -32h-201l7 31q5 22 17.5 39t30.5 28q31 21 66 43.5t65 42.5q7 4 13.5 14t8.5 19q5 25 -5 39t-35 14h-10q-20 0 -39 -11t-35 -26l-24 21q22 22 49 34.5
t55 12.5h9z" />
    <glyph glyph-name="threesuperior" unicode="&#xb3;" horiz-adv-x="245" 
d="M165 372h60q14 1 24.5 9.5t13.5 22.5q11 52 -41 52h-11q-19 0 -38.5 -10.5t-34.5 -25.5l-23 20q21 22 48 35t55 13h10q43 0 61 -23t10 -61q-6 -31 -28 -48q14 -11 17.5 -29t-0.5 -38q-10 -47 -47.5 -75.5t-84.5 -28.5q-35 0 -55.5 13.5t-36.5 39.5l31 23q13 -19 29 -31.5
t40 -12.5q30 0 56.5 21t33.5 51q5 20 -6.5 35.5t-32.5 15.5h-57z" />
    <glyph glyph-name="acute" unicode="&#xb4;" horiz-adv-x="119" 
d="M173 485h47l-97 -110h-47z" />
    <glyph glyph-name="mu" unicode="&#xb5;" horiz-adv-x="361" 
d="M9 -124l99 463h45l-49 -230q-6 -27 7 -50.5t40 -23.5h40q17 0 34 7t31.5 18.5t26.5 26.5t18 31l47 221h45l-72 -339h-45l9 43q-18 -20 -47 -34t-56 -14h-40q-35 0 -58 21l-30 -140h-45z" />
    <glyph glyph-name="paragraph" unicode="&#xb6;" horiz-adv-x="411" 
d="M479 476l-110 -515h-45l100 470h-44l-100 -470h-45l48 227h-89q-26 0 -46 12t-33 31.5t-17 45t2 53.5t21 54t36 46t46.5 32.5t51.5 12.5z" />
    <glyph glyph-name="periodcentered" unicode="&#xb7;" horiz-adv-x="230" 
d="M113 230q5 22 22 36t39 14t33 -14t6 -36t-21.5 -36t-38.5 -14t-33.5 14t-6.5 36z" />
    <glyph glyph-name="cedilla" unicode="&#xb8;" horiz-adv-x="216" 
d="M84 -93q10 0 17.5 2t9.5 13q1 4 -2.5 10.5t-11.5 11.5q-19 14 -20 26t1 19l3 15h37l-3 -15q2 -12 6.5 -17t11.5 -10q9 -6 14.5 -16t2.5 -25q-7 -29 -27.5 -39t-46.5 -10h-8q-26 2 -38 16t-6 42h39q-2 -10 1.5 -16.5t11.5 -6.5h8z" />
    <glyph glyph-name="onesuperior" unicode="&#xb9;" horiz-adv-x="216" 
d="M150 187l45 212q-15 -11 -31.5 -15t-36.5 -4l7 31q26 0 48.5 19.5t28.5 44.5h35l-61 -288h-35z" />
    <glyph glyph-name="ordmasculine" unicode="&#xba;" horiz-adv-x="252" 
d="M286.204 284.502q-4.2002 -20.3008 -15.4004 -37.8008t-26.9502 -31.1504t-34.6504 -21.3506t-38.501 -7.7002h-28q-16.1006 0 -29.0508 6.65039q-12.9502 6.64941 -21.001 17.8496q-8.0498 11.2002 -10.8496 25.9004q-2.7998 14.7012 0.700195 30.8008l14 65.1016
q4.2002 19.5996 15.4004 37.4502t26.9502 31.501t34.6504 21.3506t38.501 7.7002h28.001q16.0996 0 29.0498 -6.65039t21.001 -17.8506q8.0498 -11.2002 10.8496 -25.9004t-0.700195 -30.8008zM268.704 349.603q2.09961 9.10059 0.349609 18.9004
q-1.75 9.80078 -6.2998 17.1504q-4.5498 7.35059 -12.25 12.25q-7.7002 4.90039 -16.8008 4.90039h-28q-13.3008 0 -25.9004 -5.9502q-12.6006 -5.9502 -23.1006 -15.75q-10.5 -9.80078 -18.2002 -22.4004q-7.7002 -12.6006 -10.5 -25.9004l-14.001 -65.1016
q-2.09961 -9.7998 -0.349609 -19.25t6.2998 -16.8008q4.5498 -7.34961 11.9004 -12.25q7.34961 -4.90039 17.1504 -4.90039h28q13.3008 0 25.9004 5.9502q12.6006 5.9502 23.1006 15.751q10.5 9.7998 18.2002 22.4004q7.7002 12.5996 10.501 25.9004z" />
    <glyph glyph-name="guillemotright" unicode="&#xbb;" horiz-adv-x="364" 
d="M240 182l-216 -176l12 56l146 120l-95 120l12 56zM379 182l-216 -176l12 56l146 120l-95 120l12 56z" />
    <glyph glyph-name="onequarter" unicode="&#xbc;" horiz-adv-x="547" 
d="M462 0l12 58h35l7 32h-35l42 198h-34l-180 -200q-6 -30 25 -30h104l-12 -58h36zM445 90h-91l119 135zM87 -17l365 507h44l-363 -507h-46zM167 187l61 288h-35q-6 -25 -28.5 -44.5t-48.5 -19.5l-7 -31q20 0 36 4t32 15l-45 -212h35z" />
    <glyph glyph-name="onehalf" unicode="&#xbd;" horiz-adv-x="547" 
d="M482 288q42 0 59 -21.5t9 -58.5q-5 -20 -16 -35t-34 -29l-111 -71q-14 -9 -21 -21t-10 -21h159l-6 -31h-194l6 30q5 20 17 36.5t28 27.5l127 82q7 4 13 13.5t8 18.5q5 23 -5.5 36.5t-34.5 13.5h-10q-18 0 -37 -10.5t-33 -24.5l-22 20q21 21 47 33t52 12h9zM87 -17
l365 507h44l-363 -507h-46zM167 187l61 288h-35q-6 -25 -28.5 -44.5t-48.5 -19.5l-7 -31q20 0 36 4t32 15l-45 -212h35z" />
    <glyph glyph-name="threequarters" unicode="&#xbe;" horiz-adv-x="547" 
d="M170 340h58q21 0 32 -16t7 -36q-7 -29 -34 -50.5t-57 -21.5q-25 0 -40.5 12.5t-27.5 31.5l-31 -23q16 -26 36.5 -39.5t55.5 -13.5q47 0 84.5 28.5t47.5 75.5q4 20 -0.5 38.5t-16.5 29.5q21 18 27 48q8 38 -9.5 61t-60.5 23h-10q-28 0 -55 -13t-49 -35l24 -20
q15 15 34 25.5t39 10.5h11q52 0 41 -52q-3 -15 -14 -23t-26 -10h-60zM462 0l12 58h35l7 32h-35l42 198h-34l-180 -200q-6 -30 25 -30h104l-12 -58h36zM445 90h-91l119 135zM136 -17l365 507h44l-363 -507h-46z" />
    <glyph glyph-name="questiondown" unicode="&#xbf;" horiz-adv-x="295" 
d="M282.008 310.002q-3 -14.999 -14.999 -24.999q-11.999 -9.99902 -26.999 -9.99902q-14.999 0 -22.998 9.99902q-8 10 -5 24.999t15.499 24.998q12.499 10 27.499 10q14.999 0 22.498 -10q7.5 -9.99902 4.5 -24.998zM299.007 -98.9736q-16.999 -15.999 -48.4971 -26.498
t-69.4961 -10.499h-54.9961q-28.999 0 -52.9971 7.99902q-23.999 8 -39.998 23.999t-22.498 39.9971q-6.5 23.999 -0.5 54.9971q7.99902 35.998 39.4971 67.9961t96.4941 57.9961q14.999 6 25.499 15.999q10.499 9.99902 16.999 20.999q6.49902 10.999 9.99902 21.498
q3.5 10.5 4.5 16.499l7.99902 38.998h44.9971l-7.99902 -38.998q-3 -11.999 -9.49902 -27.498q-6.5 -15.499 -18.499 -31.998q-12 -16.499 -30.998 -31.998q-18.999 -15.499 -46.9971 -27.498q-44.998 -18.999 -63.4961 -38.998q-18.499 -19.999 -23.499 -42.9971
q-8 -40.998 16.499 -61.9961q24.498 -20.999 64.4961 -20.999h54.9971q30.998 0 55.9961 9.49902q24.998 9.5 40.9971 23.499z" />
    <glyph glyph-name="Acircumflex" unicode="&#xc2;" horiz-adv-x="523" 
d="M337 476q21 0 37 -9t21 -27l103 -440h-50l-31 133h-256l-86 -133h-50zM186 173h221l-57 249zM380 660h39l58 -117h-43l-41 87l-76 -87h-43z" />
    <glyph glyph-name="Adieresis" unicode="&#xc4;" horiz-adv-x="523" 
d="M337 476q21 0 37 -9t21 -27l103 -440h-50l-31 133h-256l-86 -133h-50zM186 173h221l-57 249zM275 573q4 15 16 25t27 10t23 -10t4 -25q-3 -15 -15 -25t-27 -10t-23 10t-5 25zM418 573q4 15 16 25t27 10t23 -10t4 -25q-3 -15 -15 -25t-27 -10t-23 10t-5 25z" />
    <glyph glyph-name="Aring" unicode="&#xc5;" horiz-adv-x="530" 
d="M328 464q-16 8 -23 25t-2 38q6 29 31 50t55 21q29 0 45 -21t10 -50q-5 -23 -22.5 -41t-39.5 -25q10 -10 13 -21l103 -440h-50l-31 133h-256l-86 -133h-50zM186 173h221l-57 249zM337 527q-4 -15 4.5 -25.5t24.5 -10.5q14 0 27 10.5t17 25.5q3 15 -6 26t-23 11
q-16 0 -28.5 -11t-15.5 -26z" />
    <glyph glyph-name="AE" unicode="&#xc6;" horiz-adv-x="634" 
d="M329 476q6 0 10.5 -0.5t8.5 -0.5h275l-8 -40h-239l2 -167h243l-8 -40h-234l2 -188h241l-8 -40h-277l-2 133h-182l-86 -133h-50zM178 173h156l-3 247z" />
    <glyph glyph-name="Ccedilla" unicode="&#xc7;" horiz-adv-x="461" 
d="M457 333q5 22 1 42.5t-15.5 36t-30 24.5t-41.5 9h-54q-30 0 -59 -13.5t-53 -35.5t-41.5 -51t-24.5 -59l-28 -131q-5 -23 -1 -45.5t15 -40t29 -28.5t41 -11h56q29 0 57.5 10.5t52 29.5t40.5 44.5t23 54.5h45q-8 -39 -29.5 -71t-51 -55.5t-65.5 -37.5t-73 -15v-1
q2 -12 6.5 -17t11.5 -10q9 -6 14.5 -16t2.5 -25q-7 -29 -27.5 -39t-46.5 -10h-8q-26 2 -38 16t-6 42h39q-2 -10 1.5 -16.5t11.5 -6.5h8q10 0 17.5 2t9.5 13q1 4 -2.5 10.5t-11.5 11.5q-19 14 -20 26t1 19v1h-27q-32 0 -57.5 13.5t-41.5 36.5t-22 53t1 62l28 131
q9 40 31.5 76t54 63.5t69.5 43.5t77 16h54q33 0 58.5 -11.5t42 -32t22.5 -48t-1 -60.5h-45z" />
    <glyph glyph-name="Ecircumflex" unicode="&#xca;" horiz-adv-x="468" 
d="M144 475h380l-8 -40h-335l-36 -167h286l-8 -40h-286l-40 -188h335l-8 -40h-338q-17 0 -27 13.5t-6 30.5zM362 660h39l58 -117h-43l-41 87l-76 -87h-43z" />
    <glyph glyph-name="Edieresis" unicode="&#xcb;" horiz-adv-x="468" 
d="M144 475h380l-8 -40h-335l-36 -167h286l-8 -40h-286l-40 -188h335l-8 -40h-338q-17 0 -27 13.5t-6 30.5zM255 573q4 15 16 25t27 10t23 -10t4 -25q-3 -15 -15 -25t-27 -10t-23 10t-5 25zM398 573q4 15 16 25t27 10t23 -10t4 -25q-3 -15 -15 -25t-27 -10t-23 10t-5 25z
" />
    <glyph glyph-name="Icircumflex" unicode="&#xce;" horiz-adv-x="195" 
d="M172 475h45l-100 -475h-45zM218 660h39l58 -117h-43l-41 87l-76 -87h-43z" />
    <glyph glyph-name="Idieresis" unicode="&#xcf;" horiz-adv-x="219" 
d="M186 475h45l-100 -475h-45zM123 573q4 15 16 25t27 10t23 -10t4 -25q-3 -15 -15 -25t-27 -10t-23 10t-5 25zM266 573q4 15 16 25t27 10t23 -10t4 -25q-3 -15 -15 -25t-27 -10t-23 10t-5 25z" />
    <glyph glyph-name="Eth" unicode="&#xd0;" horiz-adv-x="533" 
d="M190 264h168l-9 -42h-168l-39 -182h166q29 0 57.5 12t52.5 32.5t41.5 47.5t24.5 58l27 129q5 23 1 44t-15.5 37t-30 25.5t-41.5 9.5h-199zM136 222h-45l9 42h45l44 211h244q33 0 59 -12t42.5 -33t22.5 -49.5t-1 -61.5l-27 -129q-9 -40 -31 -75t-53.5 -60.5t-68.5 -40
t-76 -14.5h-169q-17 0 -27 13.5t-6 30.5z" />
    <glyph glyph-name="Ntilde" unicode="&#xd1;" horiz-adv-x="488" 
d="M413 76l85 400h47l-101 -476h-45l-225 400l-85 -400h-45l101 476h45zM387 527q-14 0 -22.5 8t-15.5 17.5t-14 17.5t-18 8q-10 0 -20 -9.5t-14 -25.5h-34q5 20 14 33t20 20.5t22.5 10t22.5 2.5q17 0 27 -8t17 -17.5t13 -17.5t15 -8q10 0 20 9.5t13 25.5h34
q-5 -20 -13.5 -33t-19.5 -20.5t-23 -10t-24 -2.5z" />
    <glyph glyph-name="Ocircumflex" unicode="&#xd4;" horiz-adv-x="469" 
d="M475 190q-9 -40 -31.5 -76.5t-54.5 -64t-69.5 -43.5t-76.5 -16h-55q-33 0 -58.5 13.5t-41.5 36.5t-21.5 53t1.5 63l27 129q9 40 31.5 76.5t54.5 64t70 43.5t77 16h54q33 0 58.5 -13.5t41.5 -36.5t21.5 -53t-1.5 -63zM457 319q5 23 1 45.5t-15 40.5t-29 29t-41 11h-54
q-30 0 -59 -13.5t-53.5 -36t-42 -51t-24.5 -59.5l-27 -129q-5 -23 -1.5 -45.5t15 -40.5t29.5 -29t41 -11h55q29 0 58 13.5t53.5 36t42 51t24.5 59.5zM348 660h39l58 -117h-43l-41 87l-76 -87h-43z" />
    <glyph glyph-name="Odieresis" unicode="&#xd6;" horiz-adv-x="469" 
d="M475 190q-9 -40 -31.5 -76.5t-54.5 -64t-69.5 -43.5t-76.5 -16h-55q-33 0 -58.5 13.5t-41.5 36.5t-21.5 53t1.5 63l27 129q9 40 31.5 76.5t54.5 64t70 43.5t77 16h54q33 0 58.5 -13.5t41.5 -36.5t21.5 -53t-1.5 -63zM457 319q5 23 1 45.5t-15 40.5t-29 29t-41 11h-54
q-30 0 -59 -13.5t-53.5 -36t-42 -51t-24.5 -59.5l-27 -129q-5 -23 -1.5 -45.5t15 -40.5t29.5 -29t41 -11h55q29 0 58 13.5t53.5 36t42 51t24.5 59.5zM246 573q4 15 16 25t27 10t23 -10t4 -25q-3 -15 -15 -25t-27 -10t-23 10t-5 25zM389 573q4 15 16 25t27 10t23 -10t4 -25
q-3 -15 -15 -25t-27 -10t-23 10t-5 25z" />
    <glyph glyph-name="multiply" unicode="&#xd7;" horiz-adv-x="429" 
d="M291 221q4 -5 11.5 -14.5t17 -21.5t19.5 -25t18 -23q4 -5 8.5 -11.5t9.5 -11.5l-35 -29l-85 107l-128 -107l-20 23l-3 6l128 107q-6 6 -17.5 20.5t-24 31t-24 31.5t-17.5 23l35 29l84 -106l129 106l18 -24l5 -5z" />
    <glyph glyph-name="Oslash" unicode="&#xd8;" horiz-adv-x="476" 
d="M36 -17l51 58q-16 23 -21 53t2 62l27 129q9 40 31.5 76.5t54.5 64t70 43.5t77 16h54q45 0 79 -28l29 33h44l-51 -57q15 -23 20.5 -52.5t-1.5 -61.5l-27 -129q-9 -40 -31.5 -76.5t-54.5 -64t-69.5 -43.5t-76.5 -16h-55q-23 0 -42 7t-35 19l-30 -33h-45zM113 156
q-9 -42 8 -77l308 343q-11 11 -25 17t-31 6h-54q-30 0 -59 -13.5t-53.5 -36t-42 -51t-24.5 -59.5zM457 319q5 20 2.5 39.5t-11.5 36.5l-307 -344q24 -21 56 -21h55q29 0 58 13.5t53.5 36t42 51t24.5 59.5z" />
    <glyph glyph-name="Ucircumflex" unicode="&#xdb;" horiz-adv-x="478" 
d="M184 475l-67 -319q-5 -23 -1.5 -45.5t15 -40.5t29.5 -29t41 -11h55q29 0 58 13.5t53.5 36t42 51t24.5 59.5l60 285h45l-60 -285q-9 -40 -31.5 -76.5t-54.5 -64t-69.5 -43.5t-76.5 -16h-55q-33 0 -58.5 13.5t-41.5 36.5t-21.5 53t1.5 63l67 319h45zM359 660h39l58 -117
h-43l-41 87l-76 -87h-43z" />
    <glyph glyph-name="Udieresis" unicode="&#xdc;" horiz-adv-x="478" 
d="M184 475l-67 -319q-5 -23 -1.5 -45.5t15 -40.5t29.5 -29t41 -11h55q29 0 58 13.5t53.5 36t42 51t24.5 59.5l60 285h45l-60 -285q-9 -40 -31.5 -76.5t-54.5 -64t-69.5 -43.5t-76.5 -16h-55q-33 0 -58.5 13.5t-41.5 36.5t-21.5 53t1.5 63l67 319h45zM253 573q4 15 16 25
t27 10t23 -10t4 -25q-3 -15 -15 -25t-27 -10t-23 10t-5 25zM396 573q4 15 16 25t27 10t23 -10t4 -25q-3 -15 -15 -25t-27 -10t-23 10t-5 25z" />
    <glyph glyph-name="Thorn" unicode="&#xde;" horiz-adv-x="395" 
d="M276 390q33 0 60.5 -8.5t46 -25t26.5 -41t1 -57.5q-8 -40 -29 -68t-50 -45.5t-65 -25.5t-75 -8h-63l-23 -111h-45l103 486h45l-21 -96h89zM137 151h63q29 0 56 5t49 17.5t38 33t22 51.5q5 23 -1.5 40.5t-21 29t-34 17t-40.5 5.5h-89z" />
    <glyph glyph-name="uni00DF" unicode="&#xdf;" horiz-adv-x="402" 
d="M17 -126l99 469q6 28 22.5 53.5t39 45t49 30.5t54.5 11h40q23 0 41.5 -9.5t30 -25.5t16 -37t-0.5 -44l-10 -46q-29 -10 -55.5 -25t-31.5 -35q-2 -11 -0.5 -19.5t5.5 -15.5t11 -14t15 -16q9 -12 18.5 -20.5t16.5 -17.5t9.5 -21.5t-1.5 -32.5q-5 -23 -17.5 -43.5t-31.5 -36
t-43.5 -24.5t-54.5 -9q-22 0 -48 7.5t-43 18.5l29 41q36 -22 71 -22q18 0 34 6t28 15t19.5 20.5t10.5 23.5q3 13 1.5 21t-6.5 14.5t-12.5 12.5t-17.5 17q-25 26 -34 47.5t-4 47.5q6 27 31.5 49t61.5 39l4 18q3 13 0.5 27t-9.5 24.5t-17.5 17.5t-23.5 7h-40q-19 0 -37 -8.5
t-33.5 -22.5t-26.5 -32t-15 -37l-99 -469h-45z" />
    <glyph glyph-name="acircumflex" unicode="&#xe2;" horiz-adv-x="354" 
d="M282 46q-9 -11 -22.5 -20t-29 -16t-31 -11t-28.5 -4h-40q-23 0 -39.5 9.5t-26.5 25.5t-12.5 37t2.5 44l20 93q6 28 22 53.5t38.5 45t49.5 30.5t55 11h40q27 0 37.5 -12t20.5 -24l7 31h45l-73 -341h-45zM321 228q1 13 -1.5 26.5t-9 24.5t-16.5 18t-23 7h-40
q-19 0 -37 -8.5t-33 -22.5t-26 -32t-15 -37l-20 -93q-6 -27 3.5 -51.5t36.5 -24.5h40q18 0 37.5 8t36 21.5t29 31t17.5 35.5zM270 510h39l58 -117h-43l-41 87l-76 -87h-43z" />
    <glyph glyph-name="adieresis" unicode="&#xe4;" horiz-adv-x="354" 
d="M282 46q-9 -11 -22.5 -20t-29 -16t-31 -11t-28.5 -4h-40q-23 0 -39.5 9.5t-26.5 25.5t-12.5 37t2.5 44l20 93q6 28 22 53.5t38.5 45t49.5 30.5t55 11h40q27 0 37.5 -12t20.5 -24l7 31h45l-73 -341h-45zM321 228q1 13 -1.5 26.5t-9 24.5t-16.5 18t-23 7h-40
q-19 0 -37 -8.5t-33 -22.5t-26 -32t-15 -37l-20 -93q-6 -27 3.5 -51.5t36.5 -24.5h40q18 0 37.5 8t36 21.5t29 31t17.5 35.5zM163 427q4 15 16 25t27 10t23 -10t4 -25q-3 -15 -15 -25t-27 -10t-23 10t-5 25zM306 427q4 15 16 25t27 10t23 -10t4 -25q-3 -15 -15 -25t-27 -10
t-23 10t-5 25z" />
    <glyph glyph-name="aring" unicode="&#xe5;" horiz-adv-x="354" 
d="M282 46q-9 -11 -22.5 -20t-29 -16t-31 -11t-28.5 -4h-40q-23 0 -39.5 9.5t-26.5 25.5t-12.5 37t2.5 44l20 93q6 28 22 53.5t38.5 45t49.5 30.5t55 11h40q27 0 37.5 -12t20.5 -24l7 31h45l-73 -341h-45zM321 228q1 13 -1.5 26.5t-9 24.5t-16.5 18t-23 7h-40
q-19 0 -37 -8.5t-33 -22.5t-26 -32t-15 -37l-20 -93q-6 -27 3.5 -51.5t36.5 -24.5h40q18 0 37.5 8t36 21.5t29 31t17.5 35.5zM204 462q7 32 32.5 53t57.5 21q31 0 47 -21t9 -53q-7 -31 -31.5 -51.5t-55.5 -20.5q-32 0 -49 20.5t-10 51.5zM236 462q-3 -16 7 -28t27 -12
q16 0 30.5 12t17.5 28q4 17 -5.5 29.5t-25.5 12.5q-17 0 -32 -12.5t-19 -29.5z" />
    <glyph glyph-name="ae" unicode="&#xe6;" horiz-adv-x="601" 
d="M138 317q42 28 86 28h61q29 0 50.5 -16.5t31.5 -40.5q24 25 55 40.5t64 15.5h40q23 0 41.5 -9.5t30 -25.5t15.5 -37t-1 -44l-11 -51h-241l-6 -31l-2 -6l-6 -29q-3 -13 -0.5 -26.5t9 -24.5t17 -18t24.5 -7h40q19 0 36.5 7t32.5 19t25.5 28.5t14.5 35.5h45q-6 -28 -22 -52
t-38 -41t-49 -27t-54 -10h-40q-32 0 -54 17.5t-30 44.5q-26 -27 -59.5 -44t-66.5 -17h-40q-42 0 -65 28t-15 70q6 26 22.5 48t39 37.5t48.5 24t50 8.5h106l4 22q1 12 -1.5 24.5t-9.5 23t-17 17t-23 6.5h-61q-16 0 -31 -6t-29 -17zM209 177q-15 0 -32.5 -7t-32.5 -18
t-26 -25.5t-15 -30.5q-5 -23 6.5 -41.5t35.5 -18.5h40q18 0 37.5 8t36 21.5t29.5 31t18 35.5l9 45h-106zM477 304q-19 0 -37 -7.5t-32.5 -20t-25 -29t-14.5 -35.5h196l3 16q3 13 0.5 26.5t-9 24.5t-17 18t-24.5 7h-40z" />
    <glyph glyph-name="ccedilla" unicode="&#xe7;" horiz-adv-x="349" 
d="M161 -93q10 0 17.5 2t9.5 13q1 4 -2.5 10.5t-11.5 11.5q-19 14 -20 26t1 19l1 6h-15q-23 0 -41.5 9.5t-30 25.5t-15.5 37t1 44l20 93q6 28 22 53.5t38.5 45t49.5 30.5t55 11h39q47 0 72.5 -29.5t15.5 -76.5h-45q6 27 -9.5 46.5t-42.5 19.5h-39q-19 0 -37 -8.5t-33 -22.5
t-26 -32t-15 -37l-20 -93q-3 -14 -0.5 -27.5t9 -24t17 -17.5t24.5 -7h40q19 0 36.5 6.5t32 17.5t25 27t14.5 35h45q-6 -27 -20 -49t-34.5 -38.5t-45 -26t-50.5 -11.5l-1 -7q2 -12 6.5 -17t11.5 -10q9 -6 14.5 -16t2.5 -25q-7 -29 -27.5 -39t-46.5 -10h-8q-26 2 -38 16t-6 42
h39q-2 -10 1.5 -16.5t11.5 -6.5h8z" />
    <glyph glyph-name="ecircumflex" unicode="&#xea;" horiz-adv-x="350" 
d="M100 111q-3 -14 -0.5 -27.5t9 -24t17 -17.5t24.5 -7h40q19 0 36.5 7t32.5 19t25.5 28.5t14.5 35.5h45q-6 -29 -22 -52.5t-38 -41t-48.5 -27t-54.5 -9.5h-40q-23 0 -41.5 9.5t-30 25.5t-15.5 37t1 44l20 93q6 28 22 53.5t38.5 45t49.5 30.5t55 11h40q23 0 41.5 -9.5
t30 -25.5t15.5 -37t-1 -44l-11 -51h-241zM231 304q-19 0 -37 -7t-32.5 -19.5t-25 -29.5t-14.5 -36h196l3 16q3 13 0.5 27t-9 24.5t-17.5 17.5t-24 7h-40zM270 510h39l58 -117h-43l-41 87l-76 -87h-43z" />
    <glyph glyph-name="edieresis" unicode="&#xeb;" horiz-adv-x="350" 
d="M100 111q-3 -14 -0.5 -27.5t9 -24t17 -17.5t24.5 -7h40q19 0 36.5 7t32.5 19t25.5 28.5t14.5 35.5h45q-6 -29 -22 -52.5t-38 -41t-48.5 -27t-54.5 -9.5h-40q-23 0 -41.5 9.5t-30 25.5t-15.5 37t1 44l20 93q6 28 22 53.5t38.5 45t49.5 30.5t55 11h40q23 0 41.5 -9.5
t30 -25.5t15.5 -37t-1 -44l-11 -51h-241zM231 304q-19 0 -37 -7t-32.5 -19.5t-25 -29.5t-14.5 -36h196l3 16q3 13 0.5 27t-9 24.5t-17.5 17.5t-24 7h-40zM162 428q4 15 16 25t27 10t23 -10t4 -25q-3 -15 -15 -25t-27 -10t-23 10t-5 25zM305 428q4 15 16 25t27 10t23 -10
t4 -25q-3 -15 -15 -25t-27 -10t-23 10t-5 25z" />
    <glyph glyph-name="icircumflex" unicode="&#xee;" horiz-adv-x="162" 
d="M60 0l72 339h45l-72 -339h-45zM172 510h39l58 -117h-43l-41 87l-76 -87h-43z" />
    <glyph glyph-name="idieresis" unicode="&#xef;" horiz-adv-x="162" 
d="M60 0l72 339h45l-72 -339h-45zM68 428q4 15 16 25t27 10t23 -10t4 -25q-3 -15 -15 -25t-27 -10t-23 10t-5 25zM211 428q4 15 16 25t27 10t23 -10t4 -25q-3 -15 -15 -25t-27 -10t-23 10t-5 25z" />
    <glyph glyph-name="eth" unicode="&#xf0;" horiz-adv-x="416" 
d="M420 183q-11 -50 -34 -86.5t-53.5 -60t-65 -34.5t-67.5 -11q-38 0 -67 13.5t-46.5 37.5t-23.5 56.5t2 70.5q9 43 31.5 77.5t52.5 59t64 37.5t67 13q26 0 50.5 -7t45.5 -26q-12 29 -31 54.5t-44 48.5q-32 -14 -63 -27.5t-62 -25.5l-7 33l102 43q-15 11 -35 21t-40 18
l26 37q26 -12 49.5 -25t43.5 -31q26 11 53 22.5t52 23.5l9 -35l-86 -35q2 -1 2 -2t1 -2q49 -50 70.5 -113t3.5 -145zM375 178q7 36 4.5 61t-15 41.5t-35.5 25t-57 13.5q-35 0 -63.5 -13.5t-49.5 -35t-34.5 -48t-18.5 -52.5q-8 -35 -2 -61.5t20.5 -44.5t36 -27t45.5 -9
q58 0 105.5 37.5t63.5 112.5z" />
    <glyph glyph-name="ntilde" unicode="&#xf1;" horiz-adv-x="360" 
d="M327 230q6 27 -8.5 50.5t-41.5 23.5h-40q-17 0 -34 -7t-31.5 -18.5t-26.5 -26.5t-18 -31l-46 -221h-45l72 339h45l-8 -36q22 17 48 29t53 12h40q23 0 41.5 -9.5t30 -25.5t15.5 -37t-1 -44l-48 -228h-45zM299 377q-14 0 -22.5 8t-15.5 17.5t-14 17.5t-18 8q-10 0 -20 -9.5
t-14 -25.5h-34q5 20 14 33t20 20.5t22.5 10t22.5 2.5q17 0 27 -8t17 -17.5t13 -17.5t15 -8q10 0 20 9.5t13 25.5h34q-5 -20 -13.5 -33t-19.5 -20.5t-23 -10t-24 -2.5z" />
    <glyph glyph-name="ocircumflex" unicode="&#xf4;" horiz-adv-x="350" 
d="M346 135q-6 -29 -22 -54t-38.5 -44.5t-49.5 -30.5t-55 -11h-40q-23 0 -41.5 9.5t-30 25.5t-15.5 37t1 44l20 93q6 28 22 53.5t38.5 45t49.5 30.5t55 11h40q23 0 41.5 -9.5t30 -25.5t15.5 -37t-1 -44zM321 228q3 13 0.5 27t-9 24.5t-17.5 17.5t-24 7h-40q-19 0 -37 -8.5
t-33 -22.5t-26 -32t-15 -37l-20 -93q-3 -14 -0.5 -27.5t9 -24t17 -17.5t24.5 -7h40q19 0 37 8.5t33 22.5t26 32t15 37zM269 510h39l58 -117h-43l-41 87l-76 -87h-43z" />
    <glyph glyph-name="odieresis" unicode="&#xf6;" horiz-adv-x="350" 
d="M346 135q-6 -29 -22 -54t-38.5 -44.5t-49.5 -30.5t-55 -11h-40q-23 0 -41.5 9.5t-30 25.5t-15.5 37t1 44l20 93q6 28 22 53.5t38.5 45t49.5 30.5t55 11h40q23 0 41.5 -9.5t30 -25.5t15.5 -37t-1 -44zM321 228q3 13 0.5 27t-9 24.5t-17.5 17.5t-24 7h-40q-19 0 -37 -8.5
t-33 -22.5t-26 -32t-15 -37l-20 -93q-3 -14 -0.5 -27.5t9 -24t17 -17.5t24.5 -7h40q19 0 37 8.5t33 22.5t26 32t15 37zM163 428q4 15 16 25t27 10t23 -10t4 -25q-3 -15 -15 -25t-27 -10t-23 10t-5 25zM306 428q4 15 16 25t27 10t23 -10t4 -25q-3 -15 -15 -25t-27 -10t-23 10
t-5 25z" />
    <glyph glyph-name="divide" unicode="&#xf7;" horiz-adv-x="429" 
d="M79 199l9 42h308l-9 -42h-308zM228 317q3 15 15 25t27 10t23 -10t5 -25t-15.5 -25t-27.5 -10t-22.5 10t-4.5 25zM185 117q4 15 16 25t27 10t23 -10t4 -25q-3 -15 -15 -25t-27 -10t-23 10t-5 25z" />
    <glyph glyph-name="oslash" unicode="&#xf8;" horiz-adv-x="359" 
d="M22 -17l48 53q-20 31 -11 75l20 93q6 28 22 53.5t38.5 45t49.5 30.5t55 11h40q29 0 51 -16l26 28h45l-48 -53q21 -32 12 -75l-20 -93q-6 -29 -22 -54t-38.5 -44.5t-49.5 -30.5t-55 -11h-40q-30 0 -51 15l-25 -27h-47zM325 228q2 9 1 18.5t-3 17.5l-198 -219
q11 -10 29 -10h40q19 0 37 8.5t33 22.5t26 32t15 37zM104 111q-3 -20 1 -36l199 218q-13 11 -29 11h-40q-19 0 -37 -8.5t-33 -22.5t-26 -32t-15 -37z" />
    <glyph glyph-name="ucircumflex" unicode="&#xfb;" horiz-adv-x="357" 
d="M104 109q-6 -27 7 -50.5t40 -23.5h40q17 0 34 7t31.5 18.5t26.5 26.5t18 31l47 221h45l-72 -339h-45l9 43q-18 -20 -47 -34t-56 -14h-40q-23 0 -41 9.5t-29 25.5t-14.5 37t1.5 44l49 228h45zM270 510h39l58 -117h-43l-41 87l-76 -87h-43z" />
    <glyph glyph-name="udieresis" unicode="&#xfc;" horiz-adv-x="357" 
d="M104 109q-6 -27 7 -50.5t40 -23.5h40q17 0 34 7t31.5 18.5t26.5 26.5t18 31l47 221h45l-72 -339h-45l9 43q-18 -20 -47 -34t-56 -14h-40q-23 0 -41 9.5t-29 25.5t-14.5 37t1.5 44l49 228h45zM162 428q4 15 16 25t27 10t23 -10t4 -25q-3 -15 -15 -25t-27 -10t-23 10t-5 25
zM305 428q4 15 16 25t27 10t23 -10t4 -25q-3 -15 -15 -25t-27 -10t-23 10t-5 25z" />
    <glyph glyph-name="thorn" unicode="&#xfe;" horiz-adv-x="441" 
d="M399 135q-6 -29 -22 -54t-38.5 -44.5t-49.5 -30.5t-55 -11h-40q-38 0 -61 23l-36 -169h-45l133 626h45l-35 -167q22 17 47 26.5t51 9.5h40q23 0 41.5 -9.5t30 -25.5t15.5 -37t-1 -44zM374 228q3 13 0.5 27t-9 24.5t-17.5 17.5t-24 7h-40q-18 0 -36.5 -8t-33.5 -21.5
t-25.5 -31t-14.5 -35.5l-21 -97q-3 -14 -0.5 -27.5t9 -24t17 -17.5t24.5 -7h40q19 0 37 8.5t33 22.5t26 32t15 37z" />
    <glyph glyph-name="ydieresis" unicode="&#xff;" horiz-adv-x="358" 
d="M81 -50q6 -14 18 -25t29 -11h40q17 0 34.5 6.5t32 17t25.5 25t14 31.5l14 67q-21 -17 -47 -29t-53 -12h-40q-23 0 -41 9.5t-29 25.5t-15 37t1 44l44 203h45l-44 -205q-6 -27 7 -50t40 -23h40q17 0 34 7t32 18t26.5 26t17.5 31l42 196h45l-74 -345q-5 -24 -22 -45.5
t-40.5 -37.5t-49.5 -25.5t-50 -9.5h-40q-37 0 -60.5 21t-28.5 53h53zM162 428q4 15 16 25t27 10t23 -10t4 -25q-3 -15 -15 -25t-27 -10t-23 10t-5 25zM305 428q4 15 16 25t27 10t23 -10t4 -25q-3 -15 -15 -25t-27 -10t-23 10t-5 25z" />
    <glyph glyph-name="Abreve" unicode="&#x102;" horiz-adv-x="523" 
d="M337 476q21 0 37 -9t21 -27l103 -440h-50l-31 133h-256l-86 -133h-50zM186 173h221l-57 249zM508 651q-5 -22 -17.5 -41.5t-30 -34.5t-39 -23.5t-43.5 -8.5t-40 8.5t-29 23.5t-15.5 34.5t0.5 41.5h35q-7 -31 8.5 -53.5t47.5 -22.5t56.5 22.5t31.5 53.5h35z" />
    <glyph glyph-name="abreve" unicode="&#x103;" horiz-adv-x="354" 
d="M282 46q-9 -11 -22.5 -20t-29 -16t-31 -11t-28.5 -4h-40q-23 0 -39.5 9.5t-26.5 25.5t-12.5 37t2.5 44l20 93q6 28 22 53.5t38.5 45t49.5 30.5t55 11h40q27 0 37.5 -12t20.5 -24l7 31h45l-73 -341h-45zM321 228q1 13 -1.5 26.5t-9 24.5t-16.5 18t-23 7h-40
q-19 0 -37 -8.5t-33 -22.5t-26 -32t-15 -37l-20 -93q-6 -27 3.5 -51.5t36.5 -24.5h40q18 0 37.5 8t36 21.5t29 31t17.5 35.5zM393 501q-5 -22 -17.5 -41.5t-30 -34.5t-39 -23.5t-43.5 -8.5t-40 8.5t-29 23.5t-15.5 34.5t0.5 41.5h35q-7 -31 8.5 -53.5t47.5 -22.5t56.5 22.5
t31.5 53.5h35z" />
    <glyph glyph-name="Cacute" unicode="&#x106;" horiz-adv-x="461" 
d="M457 333q5 22 1 42.5t-15.5 36t-30 24.5t-41.5 9h-54q-30 0 -59 -13.5t-53 -35.5t-41.5 -51t-24.5 -59l-28 -131q-5 -23 -1 -45.5t15 -40t29 -28.5t41 -11h56q29 0 57.5 10.5t52 29.5t40.5 44.5t23 54.5h45q-8 -40 -30 -73t-53 -56.5t-68 -36.5t-76 -13h-56
q-32 0 -57.5 13.5t-41.5 36.5t-22 53t1 62l28 131q9 40 31.5 76t54 63.5t69.5 43.5t77 16h54q33 0 58.5 -11.5t42 -32t22.5 -48t-1 -60.5h-45zM387 652h47l-97 -110h-47z" />
    <glyph glyph-name="cacute" unicode="&#x107;" horiz-adv-x="349" 
d="M322 238q6 27 -9.5 46.5t-42.5 19.5h-39q-19 0 -37 -8.5t-33 -22.5t-26 -32t-15 -37l-20 -93q-3 -14 -0.5 -27.5t9 -24t17 -17.5t24.5 -7h40q19 0 36.5 6.5t32 17.5t25 27t14.5 35h45q-6 -29 -21.5 -52t-37.5 -39.5t-48.5 -25.5t-54.5 -9h-40q-23 0 -41.5 9.5t-30 25.5
t-15.5 37t1 44l20 93q6 28 22 53.5t38.5 45t49.5 30.5t55 11h39q47 0 72.5 -29.5t15.5 -76.5h-45zM295 501h47l-97 -110h-47z" />
    <glyph glyph-name="Ccaron" unicode="&#x10c;" horiz-adv-x="461" 
d="M457 333q5 22 1 42.5t-15.5 36t-30 24.5t-41.5 9h-54q-30 0 -59 -13.5t-53 -35.5t-41.5 -51t-24.5 -59l-28 -131q-5 -23 -1 -45.5t15 -40t29 -28.5t41 -11h56q29 0 57.5 10.5t52 29.5t40.5 44.5t23 54.5h45q-8 -40 -30 -73t-53 -56.5t-68 -36.5t-76 -13h-56
q-32 0 -57.5 13.5t-41.5 36.5t-22 53t1 62l28 131q9 40 31.5 76t54 63.5t69.5 43.5t77 16h54q33 0 58.5 -11.5t42 -32t22.5 -48t-1 -60.5h-45zM278 659h43l40 -87l77 87h43l-106 -117h-39z" />
    <glyph glyph-name="ccaron" unicode="&#x10d;" horiz-adv-x="349" 
d="M322 238q6 27 -9.5 46.5t-42.5 19.5h-39q-19 0 -37 -8.5t-33 -22.5t-26 -32t-15 -37l-20 -93q-3 -14 -0.5 -27.5t9 -24t17 -17.5t24.5 -7h40q19 0 36.5 6.5t32 17.5t25 27t14.5 35h45q-6 -29 -21.5 -52t-37.5 -39.5t-48.5 -25.5t-54.5 -9h-40q-23 0 -41.5 9.5t-30 25.5
t-15.5 37t1 44l20 93q6 28 22 53.5t38.5 45t49.5 30.5t55 11h39q47 0 72.5 -29.5t15.5 -76.5h-45zM189 510h43l40 -87l77 87h43l-106 -117h-39z" />
    <glyph glyph-name="Dcroat" unicode="&#x110;" horiz-adv-x="533" 
d="M190 264h168l-9 -42h-168l-39 -182h166q29 0 57.5 12t52.5 32.5t41.5 47.5t24.5 58l27 129q5 23 1 44t-15.5 37t-30 25.5t-41.5 9.5h-199zM136 222h-45l9 42h45l44 211h244q33 0 59 -12t42.5 -33t22.5 -49.5t-1 -61.5l-27 -129q-9 -40 -31 -75t-53.5 -60.5t-68.5 -40
t-76 -14.5h-169q-17 0 -27 13.5t-6 30.5z" />
    <glyph glyph-name="dcroat" unicode="&#x111;" horiz-adv-x="378" 
d="M282 46q-3 -5 -14 -13.5t-26.5 -17t-34 -14.5t-36.5 -6h-40q-23 0 -39.5 9.5t-26.5 25.5t-12.5 37t2.5 44l20 93q6 28 22 53.5t38.5 45t49.5 30.5t55 11h40q30 0 40.5 -9t18.5 -22l16 74h-96l9 42h96l9 46h45l-9 -46h64l-9 -42h-64l-83 -389h-45zM322 233q3 26 -11 48.5
t-40 22.5h-40q-19 0 -37 -8.5t-33 -22.5t-26 -32t-15 -37l-20 -93q-6 -27 3.5 -51.5t36.5 -24.5h40q18 0 37.5 8t36 21.5t29 31t17.5 35.5z" />
    <glyph glyph-name="Gbreve" unicode="&#x11e;" horiz-adv-x="468" 
d="M469 169q-8 -40 -30 -73t-53 -56.5t-68 -36.5t-76 -13h-56q-32 0 -57.5 13.5t-41.5 36.5t-22 53t1 62l28 131q9 40 31.5 76t54 63.5t69.5 43.5t77 16h54q33 0 58.5 -11.5t42 -32t22.5 -48t-1 -60.5h-45q5 22 1 42.5t-15.5 36t-30 24.5t-41.5 9h-54q-30 0 -59 -13.5
t-53 -35.5t-41.5 -51t-24.5 -59l-28 -131q-5 -23 -1 -45.5t15 -40t29 -28.5t41 -11h56q29 0 57.5 10.5t52 29.5t40.5 44.5t23 54.5h-142l9 40h187zM485 651q-5 -22 -17.5 -41.5t-30 -34.5t-39 -23.5t-43.5 -8.5t-40 8.5t-29 23.5t-15.5 34.5t0.5 41.5h35q-7 -31 8.5 -53.5
t47.5 -22.5t56.5 22.5t31.5 53.5h35z" />
    <glyph glyph-name="gbreve" unicode="&#x11f;" horiz-adv-x="357" 
d="M288 59q-22 -17 -47 -28t-51 -11h-40q-23 0 -41.5 9.5t-30 25.5t-16 37t0.5 44l15 68q6 28 22 53.5t38.5 45t49.5 30.5t55 11h40q23 0 36.5 -9.5t22.5 -21.5l6 26h45l-74 -345q-5 -24 -22 -45.5t-40.5 -37.5t-49.5 -25.5t-50 -9.5h-40q-37 0 -60.5 21t-28.5 53h53
q6 -14 18 -25t29 -11h40q17 0 34.5 6.5t32 17t25.5 25t14 31.5zM325 233q3 26 -11 48t-40 22h-40q-19 0 -37 -8.5t-33 -22t-26 -31.5t-15 -37l-15 -68q-3 -14 -0.5 -27.5t9.5 -24t17 -17.5t24 -7h40q18 0 36 8t33 21.5t26 31t16 35.5zM393 501q-5 -22 -17.5 -41.5t-30 -34.5
t-39 -23.5t-43.5 -8.5t-40 8.5t-29 23.5t-15.5 34.5t0.5 41.5h35q-7 -31 8.5 -53.5t47.5 -22.5t56.5 22.5t31.5 53.5h35z" />
    <glyph glyph-name="Idotaccent" unicode="&#x130;" horiz-adv-x="163" 
d="M60 0l103 486h40l-103 -486h-40zM166 576q4 17 17 27.5t27 10.5q17 0 26 -10.5t5 -27.5q-3 -15 -16.5 -25.5t-30.5 -10.5q-14 0 -22.5 10.5t-5.5 25.5z" />
    <glyph glyph-name="dotlessi" unicode="&#x131;" horiz-adv-x="165" 
d="M60 0l72 339h45l-72 -339h-45z" />
    <glyph glyph-name="Lslash" unicode="&#x141;" horiz-adv-x="439" 
d="M52 199l63 40l50 236h45l-42 -202l84 54l-11 -53l-85 -54l-38 -180h295l-8 -40h-340l39 186l-63 -40z" />
    <glyph glyph-name="lslash" unicode="&#x142;" horiz-adv-x="193" 
d="M64 201l63 45l48 229h45l-40 -191l59 42l-12 -55l-59 -43l-48 -228h-45l40 189l-60 -43z" />
    <glyph glyph-name="OE" unicode="&#x152;" horiz-adv-x="751" 
d="M192 0q-33 0 -59 12t-42.5 33t-22.5 49.5t1 61.5l27 129q9 40 31 75t53.5 60.5t69 40t76.5 14.5h484l-9 -45h-318l-34 -160h269l-10 -45h-269l-38 -180h318l-9 -45h-518zM256 45q29 0 57 10.5t52 29.5l68 323q-25 22 -62 22h-54q-30 0 -58.5 -11t-52.5 -30.5t-41 -46
t-24 -57.5l-27 -129q-5 -23 -1 -43.5t16 -35.5t30.5 -23.5t41.5 -8.5h55z" />
    <glyph glyph-name="oe" unicode="&#x153;" horiz-adv-x="610" 
d="M344 111q-3 -14 -0.5 -27.5t9 -24t17 -17.5t24.5 -7h40q19 0 36.5 7t32.5 19t25.5 28.5t14.5 35.5h45q-6 -29 -22 -52.5t-38 -41t-48.5 -27t-54.5 -9.5h-40q-30 0 -51.5 15.5t-30.5 39.5q-24 -25 -55.5 -40t-63.5 -15h-40q-23 0 -41.5 9.5t-30 25.5t-15.5 37t1 44l20 93
q6 28 22 53.5t38.5 45t49.5 30.5t55 11h40q30 0 51 -15.5t31 -40.5q24 26 55 41t64 15h40q23 0 41.5 -9.5t30 -25.5t15.5 -37t-1 -44l-11 -51h-241zM324 228q3 13 0.5 27t-9 24.5t-17.5 17.5t-24 7h-40q-19 0 -37 -8.5t-33 -22.5t-26 -32t-15 -37l-20 -93q-3 -14 -0.5 -27.5
t9 -24t17 -17.5t24.5 -7h40q19 0 37 8.5t33 22.5t26 32t15 37zM475 304q-19 0 -37 -7t-32.5 -19.5t-25 -29.5t-14.5 -36h196l3 16q3 13 0.5 27t-9 24.5t-17.5 17.5t-24 7h-40z" />
    <glyph glyph-name="Scedilla" unicode="&#x15e;" horiz-adv-x="508" 
d="M236 -88q10 0 17.5 2t9.5 13q1 4 -2.5 10.5t-11.5 11.5q-17 12 -19.5 23t-0.5 18h-35q-34 0 -61 12t-44.5 33.5t-24 50.5t0.5 63h45q-5 -24 -0.5 -45.5t17 -38t32 -26t44.5 -9.5h100q28 0 53.5 9t46.5 24t35 34.5t19 40.5q2 12 2.5 26t-4.5 27.5t-17 23.5t-36 13l-193 25
q-36 7 -54 20t-24.5 28.5t-5 31.5t4.5 28q7 34 29.5 58t50 39t55.5 21.5t47 6.5h101q29 0 52.5 -9.5t39.5 -27.5t22 -43.5t0 -56.5h-45q8 41 -14.5 69.5t-62.5 28.5h-101q-14 0 -34 -5.5t-39.5 -16.5t-35.5 -27t-20 -37q-2 -7 -2.5 -16.5t3.5 -19t15.5 -17t34.5 -10.5
l191 -25q36 -6 55.5 -21.5t27 -35t7 -40.5t-4.5 -38q-7 -32 -26.5 -59t-47.5 -46.5t-62.5 -31t-71.5 -11.5h-27q2 -9 7 -13.5t11 -9.5q9 -6 14.5 -16t2.5 -25q-7 -29 -27.5 -39t-46.5 -10h-8q-26 2 -38 16t-6 42h39q-2 -10 1.5 -16.5t11.5 -6.5h8z" />
    <glyph glyph-name="scedilla" unicode="&#x15f;" horiz-adv-x="380" 
d="M160 163q-25 4 -38.5 13t-19 20.5t-5.5 24t3 24.5q5 25 20.5 43.5t35.5 31t42.5 18.5t42.5 6h69q47 0 72.5 -29.5t15.5 -76.5h-45q6 27 -9.5 46.5t-42.5 19.5h-69q-9 0 -22.5 -3.5t-27 -11t-24 -18.5t-13.5 -25q-1 -5 -1.5 -11.5t2.5 -12.5t10.5 -11t23.5 -8l138 -17
q25 -4 38 -14.5t18.5 -24t5 -27.5t-3.5 -26q-5 -21 -18 -39.5t-32 -31.5t-42.5 -20.5t-48.5 -7.5h-30v-1q2 -12 6.5 -17t11.5 -10q9 -6 14.5 -16t2.5 -25q-7 -29 -27.5 -39t-46.5 -10h-8q-26 2 -38 16t-6 42h39q-2 -10 1.5 -16.5t11.5 -6.5h8q10 0 17.5 2t9.5 13
q1 4 -2.5 10.5t-11.5 11.5q-19 14 -20 26t1 19v1h-27q-47 0 -72.5 29.5t-15.5 76.5h45q-6 -27 9.5 -46.5t42.5 -19.5h94q9 0 22.5 4t27 11.5t24 18t13.5 24.5q5 19 -0.5 33.5t-31.5 19.5z" />
    <glyph glyph-name="Scaron" unicode="&#x160;" horiz-adv-x="508" 
d="M110 149q-5 -24 -0.5 -45.5t17 -38t32 -26t44.5 -9.5h100q28 0 53.5 9t46.5 24t35 34.5t19 40.5q2 12 2.5 26t-4.5 27.5t-17 23.5t-36 13l-193 25q-36 7 -54 20t-24.5 28.5t-5 31.5t4.5 28q7 34 29.5 58t50 39t55.5 21.5t47 6.5h101q29 0 52.5 -9.5t39.5 -27.5t22 -43.5
t0 -56.5h-45q8 41 -14.5 69.5t-62.5 28.5h-101q-14 0 -34 -5.5t-39.5 -16.5t-35.5 -27t-20 -37q-2 -7 -2.5 -16.5t3.5 -19t15.5 -17t34.5 -10.5l191 -25q36 -6 55.5 -21.5t27 -35t7 -40.5t-4.5 -38q-7 -32 -26.5 -59t-47.5 -46.5t-62.5 -31t-71.5 -11.5h-100q-34 0 -61 12
t-44.5 33.5t-24 50.5t0.5 63h45zM293 654h43l40 -87l77 87h43l-106 -117h-39z" />
    <glyph glyph-name="scaron" unicode="&#x161;" horiz-adv-x="380" 
d="M160 163q-25 4 -38.5 13t-19 20.5t-5.5 24t3 24.5q5 25 20.5 43.5t35.5 31t42.5 18.5t42.5 6h69q47 0 72.5 -29.5t15.5 -76.5h-45q6 27 -9.5 46.5t-42.5 19.5h-69q-9 0 -22.5 -3.5t-27 -11t-24 -18.5t-13.5 -25q-1 -5 -1.5 -11.5t2.5 -12.5t10.5 -11t23.5 -8l138 -17
q25 -4 38 -14.5t18.5 -24t5 -27.5t-3.5 -26q-5 -21 -18 -39.5t-32 -31.5t-42.5 -20.5t-48.5 -7.5h-94q-47 0 -72.5 29.5t-15.5 76.5h45q-6 -27 9.5 -46.5t42.5 -19.5h94q9 0 22.5 4t27 11.5t24 18t13.5 24.5q5 19 -0.5 33.5t-31.5 19.5zM203 490h43l40 -87l77 87h43
l-106 -117h-39z" />
    <glyph glyph-name="Ydieresis" unicode="&#x178;" horiz-adv-x="450" 
d="M247 0h-45l50 237l-127 238h51l106 -200l192 200h51l-228 -238zM236 573q4 15 16 25t27 10t23 -10t4 -25q-3 -15 -15 -25t-27 -10t-23 10t-5 25zM379 573q4 15 16 25t27 10t23 -10t4 -25q-3 -15 -15 -25t-27 -10t-23 10t-5 25z" />
    <glyph glyph-name="Zcaron" unicode="&#x17d;" horiz-adv-x="466" 
d="M133 435l8 40h400l-418 -435h310l-8 -40h-400l418 435h-310zM278 661h43l40 -87l77 87h43l-106 -117h-39z" />
    <glyph glyph-name="zcaron" unicode="&#x17e;" horiz-adv-x="375" 
d="M336 0h-304l289 304h-215l8 35h301l-291 -304h219zM201 508h43l40 -87l77 87h43l-106 -117h-39z" />
    <glyph glyph-name="florin" unicode="&#x192;" horiz-adv-x="486" 
d="M260 43q-15 -46 -42.5 -81.5t-62.5 -60t-76 -37t-81 -12.5l13 45q34 0 66.5 9.5t59.5 28.5t47 46t31 62l79 266h-75l9 30h75q14 46 41.5 81.5t63 60t76 37t81.5 12.5l-13 -45q-34 0 -66 -9.5t-59 -28.5t-47.5 -46t-31.5 -62h72l-9 -30h-72l-79 -266v0z" />
    <glyph glyph-name="Ohorn" unicode="&#x1a0;" horiz-adv-x="469" 
d="M475 190q-9 -40 -31.5 -76.5t-54.5 -64t-69.5 -43.5t-76.5 -16h-55q-33 0 -58.5 13.5t-41.5 36.5t-21.5 53t1.5 63l27 129q9 40 31.5 76.5t54.5 64t70 43.5t77 16h54q28 0 50.5 -10.5t38.5 -28.5q21 7 35.5 21t24.5 31t15.5 34.5t8.5 32.5h45q-4 -20 -11.5 -42.5
t-19.5 -44t-30.5 -40t-43.5 -28.5q8 -20 10 -43.5t-3 -47.5zM457 319q5 23 1 45.5t-15 40.5t-29 29t-41 11h-54q-30 0 -59 -13.5t-53.5 -36t-42 -51t-24.5 -59.5l-27 -129q-5 -23 -1.5 -45.5t15 -40.5t29.5 -29t41 -11h55q29 0 58 13.5t53.5 36t42 51t24.5 59.5z" />
    <glyph glyph-name="ohorn" unicode="&#x1a1;" horiz-adv-x="356" 
d="M346 135q-6 -29 -22 -54t-38.5 -44.5t-49.5 -30.5t-55 -11h-40q-23 0 -41.5 9.5t-30 25.5t-15.5 37t1 44l20 93q6 28 22 53.5t38.5 45t49.5 30.5t55 11h40q27 0 50 -15q19 2 33 14.5t23.5 28t14.5 30t6 21.5h37q-5 -16 -10 -33t-15 -33.5t-25 -32t-39 -28.5q7 -14 11 -32
t0 -36zM321 228q3 13 0.5 27t-9 24.5t-17.5 17.5t-24 7h-40q-19 0 -37 -8.5t-33 -22.5t-26 -32t-15 -37l-20 -93q-3 -14 -0.5 -27.5t9 -24t17 -17.5t24.5 -7h40q19 0 37 8.5t33 22.5t26 32t15 37z" />
    <glyph glyph-name="Uhorn" unicode="&#x1af;" horiz-adv-x="522" 
d="M479 190q-9 -40 -31.5 -76.5t-54.5 -64t-69.5 -43.5t-76.5 -16h-55q-33 0 -58.5 13.5t-41.5 36.5t-21.5 53t1.5 63l67 319h45l-67 -319q-5 -23 -1.5 -45.5t15 -40.5t29.5 -29t41 -11h55q29 0 58 13.5t53.5 36t42 51t24.5 59.5l60 285h45l-4 -23q36 20 52.5 47t24.5 66h39
q-5 -21 -14.5 -45.5t-24.5 -47.5t-37 -41.5t-51 -27.5z" />
    <glyph glyph-name="uhorn" unicode="&#x1b0;" horiz-adv-x="398" 
d="M104 109q-6 -27 7 -50.5t40 -23.5h40q17 0 34 7t31.5 18.5t26.5 26.5t18 31l47 221h45l-4 -19q20 4 33.5 19t22 32.5t12 33t4.5 18.5h32q-3 -13 -9 -33t-18 -40.5t-32.5 -38t-52.5 -25.5l-60 -286h-45l9 43q-18 -20 -47 -34t-56 -14h-40q-23 0 -41 9.5t-29 25.5t-14.5 37
t1.5 44l49 228h45z" />
    <glyph glyph-name="circumflex" unicode="&#x2c6;" horiz-adv-x="321" 
d="M276 611h39l58 -117h-43l-41 87l-76 -87h-43z" />
    <glyph glyph-name="caron" unicode="&#x2c7;" horiz-adv-x="321" 
d="M194 611h43l40 -87l77 87h43l-106 -117h-39z" />
    <glyph glyph-name="breve" unicode="&#x2d8;" horiz-adv-x="300" 
d="M369 528q-5 -22 -17.5 -41.5t-30 -34.5t-39 -23.5t-43.5 -8.5t-40 8.5t-29 23.5t-15.5 34.5t0.5 41.5h35q-7 -31 8.5 -53.5t47.5 -22.5t56.5 22.5t31.5 53.5h35z" />
    <glyph glyph-name="dotaccent" unicode="&#x2d9;" horiz-adv-x="158" 
d="M142 466q3 17 16.5 28t30.5 11t25.5 -11t5.5 -28q-4 -17 -17.5 -28t-30.5 -11t-25.5 11t-4.5 28z" />
    <glyph glyph-name="ring" unicode="&#x2da;" horiz-adv-x="278" 
d="M164 469q7 32 32.5 53t57.5 21q31 0 47 -21t9 -53q-7 -31 -31.5 -51.5t-55.5 -20.5q-32 0 -49 20.5t-10 51.5zM196 469q-3 -16 7 -28t27 -12q16 0 30.5 12t17.5 28q4 17 -5.5 29.5t-25.5 12.5q-17 0 -32 -12.5t-19 -29.5z" />
    <glyph glyph-name="ogonek" unicode="&#x2db;" horiz-adv-x="194" 
d="M80 -93q8 0 14.5 6.5t8.5 16.5h39q-6 -28 -24.5 -42t-45.5 -16h-8q-26 0 -42.5 10t-9.5 39q3 15 12.5 25t20.5 16q10 5 17 10t13 17l3 15h37l-3 -15q-2 -7 -8 -19t-29 -26q-11 -5 -17 -11.5t-7 -10.5q-2 -11 4.5 -13t16.5 -2h8z" />
    <glyph glyph-name="tilde" unicode="&#x2dc;" horiz-adv-x="216" 
d="M231 398q-14 0 -22.5 8t-15.5 17.5t-14 17.5t-18 8q-10 0 -20 -9.5t-14 -25.5h-34q5 20 14 33t20 20.5t22.5 10t22.5 2.5q17 0 27 -8t17 -17.5t13 -17.5t15 -8q10 0 20 9.5t13 25.5h34q-5 -20 -13.5 -33t-19.5 -20.5t-23 -10t-24 -2.5z" />
    <glyph glyph-name="hungarumlaut" unicode="&#x2dd;" horiz-adv-x="441" 
d="M347 485h47l-97 -110h-47zM266 485h47l-97 -110h-47z" />
    <glyph glyph-name="gravecomb" unicode="&#x300;" horiz-adv-x="119" 
d="M196 375h-47l-49 110h47z" />
    <glyph glyph-name="acutecomb" unicode="&#x301;" horiz-adv-x="119" 
d="M173 485h47l-97 -110h-47z" />
    <glyph glyph-name="tildecomb" unicode="&#x303;" horiz-adv-x="216" 
d="M231 398q-14 0 -22.5 8t-15.5 17.5t-14 17.5t-18 8q-10 0 -20 -9.5t-14 -25.5h-34q5 20 14 33t20 20.5t22.5 10t22.5 2.5q17 0 27 -8t17 -17.5t13 -17.5t15 -8q10 0 20 9.5t13 25.5h34q-5 -20 -13.5 -33t-19.5 -20.5t-23 -10t-24 -2.5z" />
    <glyph glyph-name="hookabovecomb" unicode="&#x309;" horiz-adv-x="356" 
d="M274 601q-8 0 -14.5 -6.5t-8.5 -16.5h-39q6 28 24.5 42t45.5 16h8q26 0 42.5 -10t9.5 -39q-3 -15 -12.5 -25t-20.5 -16q-10 -5 -17 -10t-13 -17l-3 -15h-37l3 15q2 7 8 19t29 26q11 5 17 11.5t7 10.5q2 11 -4.5 13t-16.5 2h-8z" />
    <glyph glyph-name="dotbelowcomb" unicode="&#x323;" horiz-adv-x="158" 
d="M29 -76q3 12 13.5 21.5t23.5 9.5q14 0 20.5 -9.5t3.5 -21.5q-2 -12 -12.5 -21t-24.5 -9q-13 0 -19.5 9t-4.5 21z" />
    <glyph glyph-name="uni0E00" unicode="&#xe00;" horiz-adv-x="428" 
 />
    <glyph glyph-name="uni0E01" unicode="&#xe01;" horiz-adv-x="394" 
d="M356 296q5 23 -8 41.5t-35 18.5h-63q-15 0 -31.5 -6.5t-31.5 -17.5t-27.5 -24.5t-20.5 -27.5q17 -16 20.5 -35t-1.5 -38l-43 -207h-45l43 207q5 18 -5 34.5t-27 18.5q9 28 27.5 53t43 43.5t53 29t56.5 10.5h61q19 0 35.5 -8.5t27.5 -22t15.5 -32t0.5 -37.5l-62 -296h-45
l62 296v0z" />
    <glyph glyph-name="uni0E02" unicode="&#xe02;" horiz-adv-x="371" 
d="M220 40h15q19 2 37.5 17t23.5 37l65 302h45l-63 -295q-4 -19 -15.5 -37t-27.5 -32t-35 -22.5t-38 -8.5h-17q-17 0 -27.5 13.5t-6.5 31.5l34 158q2 10 6 18.5t8 17.5t8 19.5t7 24.5q5 32 -9 56.5t-44 24.5q-12 0 -24.5 -6t-23.5 -18q5 1 10 1.5t10 0.5q25 0 40 -18.5
t10 -44.5q-5 -25 -28 -44t-48 -19q-32 0 -45 24t-7 53q3 13 8.5 26t13.5 24q18 24 43 38t53 14q46 -1 65 -32.5t9 -78.5zM110 280q-3 -14 5.5 -24.5t22.5 -10.5q13 0 25.5 10.5t15.5 24.5t-5 24.5t-22 10.5t-26.5 -10.5t-15.5 -24.5z" />
    <glyph glyph-name="uni0E03" unicode="&#xe03;" horiz-adv-x="382" 
d="M350 101q-4 -19 -15.5 -37t-27.5 -32.5t-35 -23t-38 -8.5h-17q-17 0 -27.5 13.5t-6.5 31.5l39 185q2 11 11.5 20.5l20.5 20.5q10 10 19.5 23.5t12.5 28.5q4 19 -8 36l-62 -71l-36 73q-19 -1 -40 -13.5t-29 -32.5q17 10 33 10q23 0 37 -17.5t9 -43.5q-3 -12 -10.5 -22
t-17.5 -18t-22 -12.5t-23 -4.5q-16 0 -26.5 7t-16 19t-6.5 26.5t2 29.5q5 22 18 42t31 34t40 22.5t44 8.5l24 -55l50 55q28 -7 37.5 -29.5t3.5 -49.5q-8 -35 -35 -64q-5 -6 -10 -12.5t-8 -19.5l-38 -181h15q19 2 37.5 17t23.5 37l65 302h45zM138 300q-11 0 -24 -9.5
t-16 -23.5q-2 -13 5 -23t21 -10q13 0 25.5 10.5t14.5 22.5q3 14 -5 23.5t-21 9.5z" />
    <glyph glyph-name="uni0E04" unicode="&#xe04;" horiz-adv-x="421" 
d="M353 396q43 0 66 -28t13 -72l-62 -296h-45l62 296q5 22 -7.5 41t-35.5 19h-69q-19 0 -39 -9.5t-37.5 -25t-30.5 -34.5t-17 -38l-37 -175l82 143q11 20 30 32.5t40 12.5q28 0 42 -19.5t9 -44.5q-6 -26 -29.5 -44.5t-48.5 -18.5q-26 0 -41 17l-86 -152h-58l52 249
q6 27 23.5 53.5t42 47t53 33.5t56.5 13h72zM218 198q-4 -15 4.5 -24.5t22.5 -9.5q13 0 26.5 10t16.5 24t-5.5 24.5t-22.5 10.5t-26.5 -10.5t-15.5 -24.5z" />
    <glyph glyph-name="uni0E05" unicode="&#xe05;" horiz-adv-x="424" 
d="M370 0h-45l63 297q4 19 -5 34t-26 20l-58 -59l-43 57q-17 -4 -34.5 -13.5t-31.5 -23t-24.5 -29.5t-13.5 -33l-38 -176l83 144q11 19 30 32t40 13q25 0 40.5 -19t10.5 -45q-3 -13 -10.5 -24.5t-18.5 -20.5t-24 -14t-25 -5q-26 0 -41 18l-87 -153h-58l53 250q6 27 22.5 52
t39.5 45.5t50.5 33.5t54.5 15l36 -48l50 48q19 -1 34 -9t25 -21.5t14 -31t0 -37.5zM219 199q-3 -14 5 -24.5t22 -10.5q13 0 26.5 10.5t16.5 24.5t-5.5 24.5t-22.5 10.5t-26.5 -10.5t-15.5 -24.5z" />
    <glyph glyph-name="uni0E06" unicode="&#xe06;" horiz-adv-x="474" 
d="M189 107q-17 0 -30.5 -11.5t-16.5 -25.5q-4 -17 9 -28.5t30 -11.5l16 77h-8zM250 145q23 -6 45 -15t40 -20.5t32 -24.5t21 -26l72 337h45l-84 -396h-45q-20 42 -55 67t-80 36l-15 -73q-11 -14 -22 -22t-37 -8q-27 0 -44 21t-12 49q3 14 11.5 26.5t20.5 22t25.5 15
t27.5 5.5h8l19 91q2 11 11.5 20.5l20.5 20.5q10 10 19.5 23.5t12.5 28.5q4 19 -8 36l-62 -71l-36 73q-19 -1 -40 -13.5t-29 -32.5q17 10 33 10q23 0 37 -17.5t9 -43.5q-3 -12 -10.5 -22t-17.5 -18t-22 -12.5t-23 -4.5q-16 0 -26.5 7t-16 19t-6.5 26.5t2 29.5q5 22 18 42
t31 34t40 22.5t44 8.5l24 -55l50 55q28 -7 37.5 -29.5t3.5 -49.5q-8 -35 -35 -64q-5 -6 -10 -12.5t-8 -19.5zM139 300q-11 0 -24 -9.5t-16 -23.5q-2 -13 5 -23t21 -10q13 0 25.5 10.5t14.5 22.5q3 14 -5 23.5t-21 9.5z" />
    <glyph glyph-name="uni0E07" unicode="&#xe07;" horiz-adv-x="343" 
d="M290 0h-45q-26 0 -44 12q-10 5 -18 15.5t-13 21.5l-91 211h52l87 -202q5 -8 14.5 -13t20.5 -5l49 231q-9 -3 -19 -3q-26 0 -40.5 19t-9.5 45q6 26 29 44.5t49 18.5q24 0 39.5 -18t9.5 -43zM305 367q-14 0 -27 -10.5t-16 -24.5q-3 -13 5.5 -24t22.5 -11t26 11t15 24
q3 14 -4.5 24.5t-21.5 10.5z" />
    <glyph glyph-name="uni0E08" unicode="&#xe08;" horiz-adv-x="384" 
d="M346 295q5 22 -7.5 41.5t-34.5 19.5h-62q-37 0 -66.5 -24t-48.5 -54l-41 15q27 43 71 72.5t94 30.5h64q20 0 36 -8.5t26 -22.5t14 -32.5t0 -37.5l-42 -198q-4 -18 -15.5 -35.5t-27 -31t-34.5 -22t-37 -8.5h-45l28 136q2 0 -4.5 -1t-13.5 -1q-26 0 -41 19t-9 45
q5 26 28 44.5t49 18.5t40.5 -19t9.5 -44l-34 -158q20 2 38.5 20.5t23.5 39.5zM221 232q-14 0 -27 -10t-15 -24q-3 -13 5 -24t22 -11t27 10.5t16 24.5t-5.5 24t-22.5 10z" />
    <glyph glyph-name="uni0E09" unicode="&#xe09;" horiz-adv-x="405" 
d="M260 356q-20 0 -41 -10t-39 -26t-31 -36.5t-17 -40.5h-46q7 30 25 57.5t43 48.5t55 34t60 13h67q20 0 36 -8.5t26.5 -22.5t14.5 -32.5t0 -38.5l-33 -157q21 -9 29.5 -27t3.5 -38q-6 -29 -30.5 -50.5t-56.5 -21.5q-28 0 -43.5 21t-10.5 49l-123 -70h-45l20 95
q-5 -1 -9 -1.5t-8 -0.5q-25 0 -40 18t-10 44q6 26 29 44t48 18q24 0 38.5 -18t9.5 -42l-23 -107l178 99l31 145q5 23 -7 42t-36 20h-65zM85 155q-3 -14 5.5 -24t22.5 -10t26.5 10t14.5 24q3 14 -4.5 24.5t-21.5 10.5t-26.5 -10t-16.5 -25zM351 109q-16 0 -29.5 -12
t-17.5 -27q-3 -16 6 -27t25 -11q15 0 29 11t17 27q4 17 -5 28t-25 11z" />
    <glyph glyph-name="uni0E0A" unicode="&#xe0a;" horiz-adv-x="374" 
d="M110 280q-3 -14 5.5 -24.5t22.5 -10.5q13 0 25.5 10.5t15.5 24.5t-5 24.5t-22 10.5t-26.5 -10.5t-15.5 -24.5zM220 40h15q19 2 38 17.5t24 37.5l32 150q1 6 -4 12t-12.5 10.5t-16.5 7.5t-16 3l4 20q30 10 51 24t35.5 33t24.5 43t19 56h45q-9 -26 -19 -52t-24 -48
t-33.5 -39.5t-48.5 -27.5q11 -3 24.5 -14.5t16.5 -21.5l-32 -150q-4 -19 -15.5 -37t-27.5 -32.5t-35 -23t-38 -8.5h-17q-17 0 -27.5 13.5t-6.5 31.5l34 159q2 10 6 18.5t8 17.5t8 19.5t7 24.5q5 32 -9 56.5t-44 24.5q-12 0 -24.5 -6t-23.5 -18q5 1 10 1.5t10 0.5
q25 0 40 -18.5t10 -44.5q-5 -25 -28 -44t-48 -19q-32 0 -45 24t-7 53q3 13 8.5 26t13.5 24q18 24 43 38t53 14q46 -1 65 -32.5t9 -78.5z" />
    <glyph glyph-name="uni0E0B" unicode="&#xe0b;" horiz-adv-x="380" 
d="M221 230q2 11 11.5 20.5l20.5 20.5q10 10 19.5 23.5t12.5 28.5q4 19 -8 36l-62 -71l-36 73q-19 -1 -40 -13.5t-29 -32.5q17 10 33 10q23 0 37 -17.5t9 -43.5q-3 -12 -10.5 -22t-17.5 -18t-22 -12.5t-23 -4.5q-16 0 -26.5 7t-16 19t-6.5 26.5t2 29.5q5 22 18 42t31 34
t40 22.5t44 8.5l24 -55l50 55q28 -7 37.5 -29.5t3.5 -49.5q-8 -35 -35 -64q-5 -6 -10 -12.5t-8 -19.5l-38 -181h15q19 2 38 17.5t24 37.5l32 153q0 12 -16 23q-2 2 -3 2q4 10 7 21q1 5 1.5 11.5t0.5 13.5q24 12 39 24.5t25 28.5t17 36.5t15 48.5h44q-9 -25 -17 -49.5
t-20.5 -46t-31 -38.5t-47.5 -27q36 -22 33 -40l-33 -155q-4 -19 -15.5 -37t-27.5 -32.5t-35 -23t-38 -8.5h-17q-17 0 -27.5 13.5t-6.5 31.5zM137 300q-11 0 -24 -9.5t-16 -23.5q-2 -13 5 -23t21 -10q13 0 25.5 10.5t14.5 22.5q3 14 -5 23.5t-21 9.5z" />
    <glyph glyph-name="uni0E0C" unicode="&#xe0c;" horiz-adv-x="567" 
d="M512 0h-44q-24 31 -50.5 56t-61.5 37l-15 -70q-11 -9 -24 -15.5t-26 -6.5q-30 0 -47 19.5t-11 47.5q6 30 30 49t56 19l34 160q5 23 -7.5 41.5t-34.5 18.5h-63q-15 0 -31.5 -6.5t-31.5 -17.5t-27.5 -24.5t-20.5 -27.5q17 -16 20.5 -35t-1.5 -38l-17 -82q5 1 9 1.5t9 0.5
q25 0 40 -18.5t10 -43.5q-5 -26 -27.5 -45t-48.5 -19q-23 0 -38.5 15t-13.5 37l32 154q5 18 -5 34.5t-27 18.5q9 28 27.5 53t43 43.5t53 29t56.5 10.5h61q19 0 35.5 -8.5t27.5 -22t15.5 -32t0.5 -37.5l-35 -166q35 -12 64.5 -32.5t49.5 -49.5l74 348h44zM109 65
q-3 -14 5.5 -24.5t22.5 -10.5t26 10.5t15 24.5q3 13 -5 23t-22 10t-26.5 -10.5t-15.5 -22.5zM263 68q-4 -17 6.5 -26.5t27.5 -9.5l16 73q-17 0 -31.5 -10t-18.5 -27z" />
    <glyph glyph-name="uni0E0D" unicode="&#xe0d;" horiz-adv-x="571" 
d="M144 126q10 3 19 3q23 0 39.5 -18t10.5 -46q-3 -13 -10.5 -25t-18 -21t-23 -14t-25.5 -5q-25 0 -41 17t-11 38l32 152q5 18 -5.5 34.5t-27.5 18.5q9 28 27.5 53t43 43.5t53 29t56.5 10.5h62q19 0 35.5 -8.5t27.5 -22t15.5 -32t0.5 -37.5l-54 -256h78q22 2 42.5 20.5
t25.5 41.5l63 294h45l-63 -294q-4 -20 -16 -38.5t-28.5 -32.5t-36 -22.5t-40.5 -8.5h-77q-18 0 -28.5 14t-8.5 31l53 251q5 23 -8 41.5t-35 18.5h-64q-15 0 -31.5 -6.5t-31.5 -17.5t-27.5 -24.5t-20.5 -27.5q17 -16 20.5 -35t-0.5 -38zM157 101q-14 0 -26 -10.5t-14 -24.5
q-4 -14 3.5 -24.5t21.5 -10.5t26.5 10.5t16.5 24.5q2 14 -6 24.5t-22 10.5zM378 -85q-3 -15 -14 -26t-21 -18q12 -3 22 -3q18 0 36.5 7t35 19t29.5 28.5t21 34.5h35q-10 -25 -28 -47.5t-41 -39t-49 -26t-52 -9.5q-20 0 -38.5 5t-32.5 15t-20.5 25t-2.5 35q3 12 10 22.5
t17 19t22 13.5t24 5q25 0 39 -17t8 -43zM325 -52q-14 0 -25.5 -9.5t-14.5 -23.5q-2 -13 5 -23t21 -10t26 10t14 23q3 14 -5 23.5t-21 9.5z" />
    <glyph glyph-name="uni0E0E" unicode="&#xe0e;" horiz-adv-x="408" 
d="M163 60q-5 -25 -27.5 -42.5t-47.5 -17.5q-26 0 -40.5 19t-9.5 44q5 26 27.5 44.5t48.5 18.5h9t9 -2l17 82q2 8 -2 17.5t-11.5 18t-18 14.5t-21.5 7q9 28 27.5 52.5t43 42.5t53 28t56.5 10h61q19 0 35.5 -8.5t27.5 -22t15.5 -32t0.5 -37.5l-83 -393q-25 -35 -55 -61.5
t-67 -41.5l-56 49q-11 -20 -30.5 -32t-39.5 -12q-24 0 -39.5 19t-9.5 45q5 26 28 44.5t48 18.5q24 0 44 -18l67 -62q32 13 66 58l82 386q5 23 -8 41.5t-35 18.5h-63q-15 0 -31 -6t-31 -16.5t-27.5 -23.5t-20.5 -27q8 -3 16.5 -10.5t14.5 -18t8.5 -23t-0.5 -25.5zM67 63
q-3 -14 5.5 -24t21.5 -10q14 0 26.5 10t15.5 24q3 15 -5.5 24.5t-22.5 9.5t-26 -10t-15 -24zM65 -131q-3 -14 5 -24.5t21 -10.5q14 0 27 10.5t16 24.5t-4 24t-24 10q-14 0 -26.5 -10t-14.5 -24z" />
    <glyph glyph-name="uni0E0F" unicode="&#xe0f;" horiz-adv-x="407" 
d="M333 -98q-3 -12 -8.5 -24t-14.5 -23q-11 -12 -29 -25t-47 -30l-32 77l-61 -77l-24 44q-11 -14 -27.5 -23t-33.5 -9q-26 0 -41 19t-10 45q6 26 29 45t49 19q29 0 45 -24l27 -57l62 78l34 -78q7 4 12.5 8t10.5 9q9 8 14 26l83 394q5 23 -8 41.5t-35 18.5h-63q-15 0 -31 -6
t-31 -16.5t-27.5 -23.5t-20.5 -27q17 -7 31 -28.5t8 -47.5l-31 -147q-5 -25 -27.5 -42.5t-47.5 -17.5t-40 18.5t-10 44.5q5 25 28 44t48 19h9.5t8.5 -2l17 82q2 8 -2 17.5t-11.5 18t-18 14.5t-21.5 7q9 28 27.5 52.5t43 42.5t53 28t56.5 10h61q19 0 35.5 -8.5t27.5 -22
t15.5 -32t0.5 -37.5zM67 63q-3 -14 5.5 -24t21.5 -10q15 0 27 10t15 24t-5.5 24t-22.5 10q-14 -1 -26 -11t-15 -23zM34 -124q-2 -13 6 -24t22 -11t26.5 10.5t15.5 24.5t-5 24.5t-22 10.5t-27 -10.5t-16 -24.5z" />
    <glyph glyph-name="uni0E10" unicode="&#xe10;" horiz-adv-x="357" 
d="M302 101q-5 -19 -16 -37t-26.5 -32t-34.5 -23t-40 -9h-45l19 92q-9 -3 -19 -3q-26 0 -40.5 19.5t-9.5 45.5q3 13 10.5 24.5t18.5 20.5t23.5 14.5t25.5 5.5q26 0 40.5 -18.5t8.5 -46.5l-24 -114q20 2 39 18t24 37l24 114q-64 43 -196 63q5 25 18.5 51.5t36.5 43.5
q18 13 37.5 21t39.5 8q16 0 31 -4.5t29 -10t28.5 -10.5t30.5 -7q18 0 36 9t41 27l-9 -42q-18 -17 -36 -23.5t-36 -6.5q-17 0 -32 5t-29.5 11t-30 11t-31.5 5q-11 0 -23 -5.5t-22.5 -14.5t-18 -20t-9.5 -21q53 -8 101 -25.5t93 -46.5zM264 -126q-12 -51 -85 -73l-29 74
l-71 -74l-15 47q-23 -26 -53 -26q-26 0 -42 19.5t-11 45.5q6 26 29 45t49 19q15 0 27 -6t18 -18l18 -68l62 66l37 -84q28 12 34 37l4 22q-6 -2 -12 -2q-19 0 -29.5 14t-5.5 33q4 19 20.5 32.5t34.5 13.5q17 0 28 -13t7 -33zM-12 -113q-3 -14 5 -25t22 -11q15 0 27 11t15 25
q4 14 -4.5 24.5t-22.5 10.5t-26 -10.5t-16 -24.5zM147 119q14 0 26.5 10.5t15.5 24.5t-5 24.5t-22 10.5t-27 -10.5t-16 -24.5q-2 -13 6 -24t22 -11zM209 -55q-2 -10 3 -18t16 -8q10 0 19 7t11 17q3 11 -2.5 19t-16.5 8t-19.5 -7.5t-10.5 -17.5z" />
    <glyph glyph-name="uni0E11" unicode="&#xe11;" horiz-adv-x="518" 
d="M245 116l187 280q21 0 40.5 -7t33.5 -20.5t20.5 -32.5t1.5 -42l-62 -294h-45l62 294q4 18 -5 33.5t-28 19.5l-229 -347h-45l48 230q2 11 11.5 20.5l20.5 20.5q10 10 19.5 23.5t12.5 28.5q4 19 -8 36l-62 -71l-36 73q-19 -1 -40 -13.5t-29 -32.5q17 10 33 10
q23 0 37 -17.5t9 -43.5q-3 -12 -10.5 -22t-17.5 -18t-22 -12.5t-23 -4.5q-16 0 -26.5 7t-16 19t-6.5 26.5t2 29.5q5 22 18 42t31 34t40 22.5t44 8.5l24 -55l50 55q28 -7 37.5 -29.5t3.5 -49.5q-8 -35 -35 -64q-5 -6 -9.5 -10.5t-7.5 -17.5zM140 300q-11 0 -24 -9.5
t-16 -23.5q-2 -13 5 -23t21 -10q13 0 25.5 10.5t14.5 22.5q3 14 -5 23.5t-21 9.5z" />
    <glyph glyph-name="uni0E12" unicode="&#xe12;" horiz-adv-x="598" 
d="M108 35q32 4 65.5 26.5t56.5 54.5q-8 -2 -13 -2q-26 0 -41 19t-10 45q6 26 29 45t49 19q25 0 40 -19t9 -45q-7 -33 -28 -65t-49.5 -57t-61.5 -40.5t-63 -15.5h-35l52 247q6 27 23 53.5t40 47.5t50.5 34.5t54.5 13.5l33 -49l50 49q38 -1 59 -30.5t12 -70.5l-35 -165
q71 -22 115 -82l74 348h45l-84 -396h-45q-25 32 -50.5 57.5t-62.5 36.5l-15 -71q-11 -11 -25.5 -17t-27.5 -6q-27 0 -43.5 20.5t-10.5 48.5q3 13 11 25.5t19.5 22t24.5 15t26 5.5h6l33 158q4 18 -4.5 33t-25.5 20l-58 -58l-42 57q-35 -9 -64.5 -37t-37.5 -63zM197 178
q-3 -14 4.5 -24.5t21.5 -10.5t26 10.5t15 24.5t-4.5 24.5t-21.5 10.5t-26 -10.5t-15 -24.5zM295 69q-2 -16 7.5 -26.5t26.5 -10.5l16 74h-5q-14 0 -27.5 -11.5t-17.5 -25.5z" />
    <glyph glyph-name="uni0E13" unicode="&#xe13;" horiz-adv-x="569" 
d="M139 125q5 2 10 2.5t10 0.5q25 0 39.5 -19t9.5 -45q-3 -12 -10.5 -23.5t-18 -20.5t-23 -14.5t-24.5 -5.5q-23 0 -39 15t-14 38l32 154q5 18 -5 34.5t-27 18.5q9 28 27.5 53t43 43.5t53 29t56.5 10.5h61q19 0 35.5 -8.5t27.5 -22t15.5 -32t0.5 -37.5l-52 -247
q15 13 34.5 27t40.5 27t41 23t37 16l54 254h45l-56 -260q19 -7 29 -25.5t5 -41.5q-3 -14 -11.5 -26.5t-20 -22t-25.5 -15t-27 -5.5q-29 0 -45 21t-11 49l2 7q-42 -25 -102 -77h-45l62 296q5 23 -8 41.5t-35 18.5h-63q-15 0 -31.5 -6.5t-31.5 -17.5t-27.5 -24.5t-20.5 -27.5
q17 -16 20.5 -35t-1.5 -39zM110 64q-3 -13 5 -24t23 -11q14 0 26 11t15 24q3 14 -5 24.5t-21 10.5q-14 0 -27 -10.5t-16 -24.5zM545 70q4 15 -5.5 26.5t-25.5 11.5q-15 0 -28.5 -11.5t-17.5 -26.5q-3 -14 5.5 -26t25.5 -12q15 0 29 12t17 26z" />
    <glyph glyph-name="uni0E14" unicode="&#xe14;" horiz-adv-x="424" 
d="M235 117q15 0 27.5 10t15.5 24t-5.5 25t-22.5 11t-27 -11t-15 -24q-3 -14 5 -24.5t22 -10.5zM229 90q-29 0 -41.5 18.5t-7.5 43.5t28 44t48 19q23 0 38 -18.5t10 -44.5q-6 -28 -28 -55.5t-51.5 -49t-62.5 -34.5t-62 -13h-46l52 245q6 29 24.5 56.5t44 48.5t56 33.5
t59.5 12.5h63q20 0 36.5 -8t27 -22t15 -32.5t0.5 -39.5l-62 -294h-46l63 297q2 10 -0.5 21t-8.5 19t-15 13.5t-19 5.5h-65q-21 0 -41.5 -10t-38.5 -26t-31 -36.5t-17 -40.5l-44 -208q29 0 62.5 15.5t59.5 39.5z" />
    <glyph glyph-name="uni0E15" unicode="&#xe15;" horiz-adv-x="423" 
d="M387 295q4 17 -4.5 31.5t-27.5 19.5l-58 -58l-42 57q-18 -4 -35 -14t-31.5 -23.5t-24.5 -30t-14 -34.5l-44 -208q13 0 30 4t33.5 11t32 17t26.5 21q-31 2 -42 21.5t-6 41.5q5 26 27.5 44.5t48.5 18.5t39.5 -18.5t8.5 -43.5q-6 -30 -28 -57.5t-51.5 -48.5t-62.5 -33.5
t-63 -12.5h-45l51 243q6 28 24 55t42 49t52 35.5t54 13.5l33 -47l49 48q17 -3 32 -12.5t25.5 -23t15 -30.5t0.5 -36l-62 -295h-45zM209 151q-3 -13 4.5 -23.5t21.5 -10.5t27 10t16 24t-5.5 24.5t-22.5 10.5t-26.5 -10.5t-14.5 -24.5z" />
    <glyph glyph-name="uni0E16" unicode="&#xe16;" horiz-adv-x="393" 
d="M112 64q-3 -14 5 -25t22 -11t26.5 10.5t15.5 25.5q3 13 -5 23.5t-22 10.5t-26.5 -11t-15.5 -23zM339 0h-45l62 296q5 23 -8 41.5t-35 18.5h-63q-15 0 -31.5 -6.5t-31.5 -17.5t-27.5 -24.5t-20.5 -27.5q17 -16 20.5 -35t-1.5 -39l-17 -82q5 2 9.5 2h9.5q25 0 40.5 -19.5
t10.5 -42.5q-6 -27 -28.5 -45.5t-48.5 -18.5q-22 0 -38.5 15t-14.5 37l32 155q5 18 -5 34.5t-27 18.5q9 28 27.5 53t43 43.5t53 29t56.5 10.5h61q19 0 35.5 -8.5t27.5 -22t15.5 -32t0.5 -37.5z" />
    <glyph glyph-name="uni0E17" unicode="&#xe17;" horiz-adv-x="447" 
d="M363 396q21 0 40.5 -7t33 -20.5t19.5 -32.5t1 -42l-62 -294h-45l62 294q4 18 -8 33.5t-31 19.5l-223 -347h-45l58 274q-9 -3 -17 -3q-24 0 -39 18t-10 44q5 25 28 43t47 18t39 -17.5t9 -42.5l-49 -235zM166 366q-13 0 -25.5 -9.5t-15.5 -23.5t5 -24t22 -10t26 10t15 24
q3 13 -5.5 23t-21.5 10z" />
    <glyph glyph-name="uni0E18" unicode="&#xe18;" horiz-adv-x="347" 
d="M160 235l-41 -195h83q11 0 22 6t21 15t17 20t9 22l23 105q-33 21 -83.5 37t-116.5 27q5 24 17.5 49t35.5 45q37 30 80 30q14 0 27.5 -4.5t26 -10.5t25.5 -11.5t27 -6.5q18 2 37 13t33 25l-9 -42q-30 -33 -68 -33q-15 0 -28 4.5t-26 10.5t-26.5 10.5t-28.5 4.5
q-12 0 -24.5 -3.5t-21.5 -13.5q-11 -11 -18 -18.5t-10 -19.5q55 -8 104.5 -26t95.5 -47l-27 -127q-4 -20 -16.5 -38t-30 -32t-37.5 -22.5t-40 -8.5h-80q-17 0 -29 13t-8 33l40 189h45z" />
    <glyph glyph-name="uni0E19" unicode="&#xe19;" horiz-adv-x="406" 
d="M173 396q24 0 39 -17t10 -42l-60 -281q16 14 36.5 28.5t43 26.5t46.5 20.5t47 10.5l54 254h46l-55 -259q20 -7 29 -25t4 -41q-7 -29 -32 -50t-53 -21t-44 21t-10 50q1 5 2.5 10t3.5 10q-32 -11 -66 -37.5t-63 -53.5h-46l58 276q-5 -2 -16 -2q-23 0 -38.5 18.5t-10.5 42.5
q5 26 28 43.5t47 17.5zM167 369q-14 0 -26 -10t-15 -24t5.5 -23.5t21.5 -9.5q14 0 26 9.5t15 23.5t-5 24t-22 10zM351 109q-14 0 -28.5 -12t-17.5 -26q-4 -15 5 -26.5t25 -11.5q15 0 28.5 11t17.5 27q3 17 -6 27t-24 11z" />
    <glyph glyph-name="uni0E1A" unicode="&#xe1a;" horiz-adv-x="433" 
d="M286 40q21 0 42 18.5t26 40.5l63 297h45l-64 -300q-4 -20 -16 -37.5t-28.5 -30.5t-36 -20.5t-39.5 -7.5h-128q-17 0 -27 13.5t-6 30.5l48 225q-5 -1 -9.5 -1.5t-9.5 -0.5q-26 0 -40 19.5t-9 45.5q3 12 10.5 23.5t18 20.5t23.5 14.5t25 5.5q26 0 40 -19.5t9 -45.5
l-62 -291h125zM167 366q-13 0 -25.5 -10.5t-15.5 -24.5t5 -24t22 -10t26.5 9.5t15.5 24.5q3 14 -5.5 24.5t-22.5 10.5z" />
    <glyph glyph-name="uni0E1B" unicode="&#xe1b;" horiz-adv-x="433" 
d="M504 593l-106 -495q-4 -20 -15.5 -37.5t-28 -31t-36.5 -21.5t-40 -8h-123q-17 0 -29.5 13.5t-8.5 32.5l48 226q-9 -3 -18 -3q-26 0 -41 19t-10 45q3 12 10.5 23.5t18.5 20.5t24 14t25 5q25 0 40 -18.5t9 -44.5l-62 -293h125q11 0 22 5.5t20.5 14t16.5 19.5t9 22l105 492
h45zM153 298q14 0 26 10.5t15 24.5t-4.5 24.5t-21.5 10.5q-13 0 -26.5 -11t-16.5 -24q-3 -14 5.5 -24.5t22.5 -10.5z" />
    <glyph glyph-name="uni0E1C" unicode="&#xe1c;" horiz-adv-x="422" 
d="M384 75q-2 -10 -6 -22.5t-12 -23.5t-20 -19.5t-30 -9.5l-73 137l-143 -137q-20 0 -29.5 16t-5.5 35l60 283q6 25 29 43.5t48 18.5t40 -19t10 -45q-3 -12 -10.5 -23.5t-18 -20.5t-23.5 -14t-25 -5h-9t-9 2l-45 -214l135 130q13 0 20 -13l63 -114q8 7 11 22l67 314h45z
M196 367q-14 0 -26.5 -10t-15.5 -25q-3 -14 5 -24t22 -10t26.5 10t15.5 24t-5 24.5t-22 10.5z" />
    <glyph glyph-name="uni0E1D" unicode="&#xe1d;" horiz-adv-x="424" 
d="M385 76q-2 -10 -6.5 -22.5t-12 -23.5t-20 -19.5t-30.5 -9.5l-73 137l-143 -137q-20 0 -29.5 16t-4.5 35l59 282q6 26 29 44t49 18q25 0 40 -18.5t9 -44.5q-3 -12 -10.5 -23.5t-18 -20.5t-23 -14.5t-24.5 -5.5q-10 0 -19 3l-45 -214l135 130q13 0 21 -13l62 -114q5 4 7 9
t4 13l109 510h45zM197 368q-14 0 -27 -10.5t-16 -24.5t5.5 -24.5t22.5 -10.5q13 0 25.5 10.5t15.5 24.5t-5 24.5t-21 10.5z" />
    <glyph glyph-name="uni0E1E" unicode="&#xe1e;" horiz-adv-x="468" 
d="M437 100q-4 -17 -12 -34t-19.5 -31t-26.5 -24t-31 -13l-23 297q-47 -84 -90 -159.5t-79 -135.5q-20 0 -33 11t-8 33l49 230q-11 -3 -19 -3q-25 0 -39.5 19t-9.5 44q6 26 28.5 44t47.5 18t40 -18.5t9 -43.5l-52 -249l174 306q9 -3 11 -15l27 -302q5 4 6.5 10t3.5 11
l64 301h45zM166 368q-14 0 -26.5 -10.5t-15.5 -23.5q-2 -12 5.5 -23t21.5 -11t26.5 10.5t14.5 23.5q3 14 -4.5 24t-21.5 10z" />
    <glyph glyph-name="uni0E1F" unicode="&#xe1f;" horiz-adv-x="468" 
d="M164 274q-11 -3 -19 -3q-25 0 -39.5 19t-9.5 44q6 26 28.5 44t47.5 18t40 -18.5t9 -43.5l-52 -249l174 306q9 -3 11 -15l27 -302q5 4 6.5 10t3.5 11l106 498h45l-105 -493q-4 -17 -12 -34t-19.5 -31t-26.5 -24t-31 -13l-23 297q-47 -84 -90 -159.5t-79 -135.5
q-20 0 -33 11t-8 33zM166 368q-14 0 -26.5 -10.5t-15.5 -23.5q-2 -12 5.5 -23t21.5 -11t26.5 10.5t14.5 23.5q3 14 -4.5 24t-21.5 10z" />
    <glyph glyph-name="uni0E20" unicode="&#xe20;" horiz-adv-x="407" 
d="M165 60q-3 -12 -10.5 -23t-18 -19t-22.5 -13t-24 -5q-26 0 -40.5 19.5t-9.5 43.5q5 26 28 45t48 19q9 0 18 -3l17 82q2 8 -2 17.5t-12 18t-18.5 14.5t-21.5 7q9 28 27.5 52.5t43 42.5t53 28t56.5 10h61q19 0 35.5 -8.5t27.5 -22t15.5 -32t0.5 -37.5l-62 -296h-45l62 296
q5 23 -8 41.5t-35 18.5h-63q-15 0 -31 -6t-31 -16.5t-27.5 -23.5t-20.5 -27q17 -7 31.5 -28.5t8.5 -47.5zM68 63q-2 -14 6 -24t22 -10t26.5 10t15.5 24t-5.5 24.5t-22.5 10.5t-26 -10.5t-16 -24.5z" />
    <glyph glyph-name="uni0E21" unicode="&#xe21;" horiz-adv-x="414" 
d="M446 396l-84 -396h-45q-21 42 -56 67t-79 36l-15 -73q-11 -14 -22 -22t-37 -8q-27 0 -44 21t-12 49q3 14 11.5 26.5t20.5 22t25.5 15t27.5 5.5h8l29 137q-8 -3 -16 -3q-25 0 -39.5 19t-9.5 43q5 25 27 43t48 18q23 0 38 -17.5t10 -41.5l-43 -201q104 -29 138 -85l74 345
h45zM130 107q-17 0 -30.5 -11.5t-16.5 -25.5q-4 -17 9 -28.5t30 -11.5l16 77h-8zM205 335q3 14 -5 24t-22 10t-26 -10t-15 -24q-3 -13 4.5 -23.5t21.5 -10.5t26.5 10t15.5 24z" />
    <glyph glyph-name="uni0E22" unicode="&#xe22;" horiz-adv-x="421" 
d="M389 95q-5 -20 -16.5 -37.5t-28 -30.5t-36.5 -20t-40 -7h-152q-20 0 -31.5 12.5t-9.5 32.5l6 28q6 27 16 45.5t22 34.5q6 8 14.5 15t22.5 12q-17 5 -28 18.5t-14 26.5q-5 27 1 57q4 19 14.5 39t26 36.5t34.5 27.5t41 11h8q25 0 40 -19t10 -44q-5 -26 -28.5 -44.5
t-48.5 -18.5q-17 0 -30.5 8t-19.5 22q-2 -5 -4 -15q-3 -14 -3.5 -26.5t4.5 -23.5q3 -7 12 -13t21 -11t25 -8t25 -3l-8 -36q-23 0 -47 -8.5t-39 -30.5q-16 -24 -22 -52l-7 -33h160q21 0 40.5 17t24.5 38l64 301h45zM233 368q-16 0 -27.5 -10.5t-14.5 -24.5t5 -24.5t22 -10.5
t26.5 10.5t15.5 24.5t-4 24.5t-23 10.5z" />
    <glyph glyph-name="uni0E23" unicode="&#xe23;" horiz-adv-x="357" 
d="M245 124h7t9 -1l17 83q-32 21 -82 36.5t-113 26.5q5 25 19 51.5t37 44.5q40 30 85 30q15 0 29 -4.5t28 -10t28 -10.5t29 -7q31 1 74 37l-9 -42q-18 -16 -36.5 -25t-36.5 -9q-16 1 -30 5.5t-28.5 10t-28.5 10t-30 4.5q-12 0 -25.5 -4.5t-24.5 -12.5t-19.5 -19t-11.5 -23
q106 -15 195 -71l-34 -162q-5 -25 -27 -43.5t-47 -18.5t-40 18.5t-10 43.5q2 12 10 23t18.5 19.5t23 14t24.5 5.5zM198 62q-4 -15 4 -24.5t22 -9.5t26 10t16 24q3 14 -5 24t-22 10q-13 0 -25.5 -10t-15.5 -24z" />
    <glyph glyph-name="uni0E24" unicode="&#xe24;" horiz-adv-x="393" 
d="M114 207q5 18 -5 34.5t-27 18.5q9 28 27.5 53t43 43.5t53 29t56.5 10.5h61q19 0 35.5 -8.5t27.5 -22t15.5 -32t0.5 -37.5l-98 -461h-45l98 461q5 23 -8 41.5t-35 18.5h-63q-15 0 -31.5 -6.5t-31.5 -17.5t-27.5 -24.5t-20.5 -27.5q17 -16 20.5 -34.5t-1.5 -38.5l-17 -82
q4 1 7 1.5t7 0.5q26 0 43 -18t11 -46q-5 -26 -28 -44.5t-49 -18.5q-23 0 -39 17.5t-11 42.5zM112 63q-3 -14 5 -24t22 -10t26.5 10t15.5 24t-5.5 24t-22.5 10t-26 -10.5t-15 -23.5z" />
    <glyph glyph-name="uni0E25" unicode="&#xe25;" horiz-adv-x="399" 
d="M345 0h-46l25 118q3 18 -2.5 35.5t-16 31t-26 21.5t-33.5 8t-36.5 -7.5t-34.5 -19.5t-28.5 -28t-18.5 -34q9 3 18 3q24 0 39 -19t10 -45t-28 -45t-48 -19q-26 0 -40.5 18.5t-10.5 43.5l2 14t3 14q7 35 23 68t49 57q26 21 55 32.5t57 11.5q29 0 49 -14t37 -41l19 91
q5 21 -7 41t-35 20h-64q-20 0 -40.5 -9.5t-38 -25t-30.5 -35.5t-19 -42h-46q6 28 23.5 55.5t42.5 49t55 34.5t62 13h64q42 0 64 -29.5t14 -71.5zM97 64q-3 -14 5 -24.5t23 -10.5q14 0 26 10.5t15 24.5t-4 24.5t-24 10.5q-16 0 -27 -11t-14 -24z" />
    <glyph glyph-name="uni0E26" unicode="&#xe26;" horiz-adv-x="410" 
d="M321 -165h-45l98 461q5 23 -8 41.5t-35 18.5h-63q-15 0 -31 -6t-31 -16.5t-27.5 -23.5t-20.5 -27q17 -7 31.5 -28.5t8.5 -47.5l-31 -146q-6 -24 -28.5 -42.5t-46.5 -18.5q-26 0 -41 19t-10 45q6 26 28.5 44.5t48.5 18.5q12 0 18 -2l17 81q2 8 -2 17.5t-12 18t-18.5 14.5
t-21.5 7q9 28 27.5 52.5t43 42.5t53 28t56.5 10h61q19 0 35.5 -8.5t27.5 -22t15.5 -32t0.5 -37.5zM70 64q-3 -14 5.5 -24t22.5 -10t26 10.5t15 23.5q3 14 -5 24t-22 10t-26.5 -10t-15.5 -24z" />
    <glyph glyph-name="uni0E27" unicode="&#xe27;" horiz-adv-x="347" 
d="M312 301q4 17 -4 35t-28 20h-42q-20 -2 -40 -13t-37 -25q-11 -9 -19 -19t-15 -21l-40 15q12 21 29.5 39.5t38.5 32.5t44.5 22t46.5 8h42q17 -1 31.5 -9.5t24 -21t13.5 -29t0 -34.5l-50 -238q-5 -26 -28 -44.5t-48 -18.5q-26 0 -40.5 18.5t-9.5 44.5t28 45t48 19
q9 0 18 -3zM251 98q-14 0 -26 -10.5t-15 -24.5q-3 -15 4.5 -24.5t22.5 -9.5q14 0 26.5 10t15.5 24t-5.5 24.5t-22.5 10.5z" />
    <glyph glyph-name="uni0E28" unicode="&#xe28;" horiz-adv-x="421" 
d="M352 396q14 0 25 -3.5t21 -8.5q9 17 16 34.5t11 35.5h43q-5 -26 -16 -51t-26 -48q13 -25 5 -59l-62 -296h-45l62 296q1 2 1 5t1 5q-39 -41 -85 -63q16 -19 10 -46q-5 -26 -27.5 -44.5t-48.5 -18.5t-40 17l-86 -151h-58l52 247q6 29 24.5 56t44 47.5t55.5 33t59 12.5h64z
M193 216q10 17 27 29t37 14q30 8 60 31t55 54q-14 12 -29 12h-64q-21 0 -41.5 -9.5t-38 -25t-30.5 -35t-19 -39.5l-37 -174zM215 197q-3 -15 5.5 -24.5t22.5 -9.5q13 0 25.5 10t15.5 24q4 15 -4 24.5t-22 9.5t-27 -10t-16 -24z" />
    <glyph glyph-name="uni0E29" unicode="&#xe29;" horiz-adv-x="442" 
d="M285 40q10 0 21.5 5.5t21 14t16.5 19.5t9 22l11 54h-58q-17 0 -32 3.5t-26.5 11.5t-16.5 21t-1 31q2 12 9 22.5t17 19t21.5 13.5t23.5 5q24 0 38.5 -18.5t9.5 -41.5q-5 -22 -19 -36h41l45 210h45l-42 -195q17 8 30.5 22.5t23.5 31.5h31q-17 -32 -39.5 -54.5t-52.5 -33.5
l-14 -68q-5 -20 -17 -37.5t-28.5 -31.5t-36 -22t-39.5 -8h-126q-17 0 -27.5 14.5t-6.5 31.5l48 226q-9 -3 -18 -3q-26 0 -41 19t-10 45q6 26 29.5 44.5t49.5 18.5q25 0 39 -19.5t9 -44.5l-62 -292h124zM125 333q-3 -14 5 -24.5t23 -10.5q14 0 26.5 11.5t15.5 25.5t-5.5 23.5
t-21.5 9.5q-14 0 -27 -10.5t-16 -24.5zM257 222q-3 -14 4.5 -23.5t20.5 -9.5q14 0 25.5 9.5t14.5 23.5t-5 23.5t-21 9.5q-12 0 -24.5 -10t-14.5 -23z" />
    <glyph glyph-name="uni0E2A" unicode="&#xe2a;" horiz-adv-x="431" 
d="M107 112q5 25 19.5 49t35 43.5t46 33.5t52.5 19q31 8 62 31.5t57 55.5q-12 12 -28 12h-66q-20 0 -41 -10t-39 -26t-31 -36t-17 -41h-46q6 30 24.5 57.5t44 49t55.5 34t61 12.5h64q13 0 24.5 -3.5t20.5 -8.5q9 17 16 34.5t11 35.5h43q-5 -26 -16.5 -51.5t-26.5 -48.5
q13 -28 6 -59l-62 -295h-46l24 117q4 42 -20 68.5t-60 26.5q-16 0 -34.5 -7.5t-35 -20t-29.5 -28.5t-18 -32q8 2 16 2q26 0 41 -18.5t10 -43.5q-3 -13 -10.5 -25t-18.5 -21t-23.5 -14t-25.5 -5q-24 0 -39 19.5t-10 43.5zM126 63q-3 -14 6.5 -24.5t23.5 -10.5q13 0 24.5 11
t14.5 24q3 14 -5.5 24t-22.5 10t-26 -10.5t-15 -23.5zM392 295q1 2 0.5 4.5t0.5 5.5q-28 -31 -65 -54q31 -11 47 -36z" />
    <glyph glyph-name="uni0E2B" unicode="&#xe2b;" horiz-adv-x="447" 
d="M431 277q8 -5 11 -16t3 -20l-51 -241h-45l52 246q-15 -8 -42.5 -30t-61.5 -54.5t-72 -74t-74 -87.5h-45l58 273q-10 -2 -15 -2q-25 0 -40.5 18t-10.5 44q5 25 27.5 43.5t46.5 18.5q11 0 21 -5t17.5 -13.5t10.5 -19t1 -22.5l-53 -246q21 24 45.5 51t51 52.5t53.5 48
t54 37.5q-14 8 -20 23t-2 33q6 26 28.5 44t48.5 18q24 0 39 -19t10 -43q-4 -19 -16.5 -33.5t-29.5 -23.5zM193 333q3 14 -5 24t-21 10q-12 0 -25 -10t-16 -24t4.5 -23.5t21.5 -9.5t26 9.5t15 23.5zM407 299q14 0 26 10.5t15 24.5q3 13 -5 23t-21 10q-14 0 -27 -9.5
t-16 -23.5t5.5 -24.5t22.5 -10.5z" />
    <glyph glyph-name="uni0E2C" unicode="&#xe2c;" horiz-adv-x="474" 
d="M442 100q-4 -17 -10.5 -34t-16.5 -31t-23 -24t-29 -13l-59 191l-155 -189q-38 0 -29 44l49 230q-11 -3 -19 -3q-25 0 -39.5 19t-9.5 44q6 26 28.5 44t47.5 18t40 -18.5t9 -43.5l-53 -250l143 176q8 -2 12 -15l57 -172q5 4 6.5 10t3.5 11l39 178q-7 -4 -14 -5t-14 -1
q-26 0 -41 18.5t-10 44.5q6 26 30 44.5t50 18.5q24 0 39.5 -17.5t13.5 -40.5q20 16 37 45h32q-31 -50 -73 -86zM427 364q-14 0 -27 -10.5t-16 -24.5t5.5 -24t22.5 -10q13 0 26 10t15 24q3 14 -5 24.5t-21 10.5zM171 368q-14 0 -26.5 -10.5t-15.5 -23.5q-2 -12 5.5 -23
t21.5 -11t26.5 10.5t14.5 23.5q3 14 -4.5 24t-21.5 10z" />
    <glyph glyph-name="uni0E2D" unicode="&#xe2d;" horiz-adv-x="392" 
d="M323 396q20 0 36.5 -7.5t27 -20.5t15 -30.5t0.5 -36.5l-43 -205q-4 -18 -15.5 -35.5t-27.5 -31t-35 -21.5t-38 -8h-131q-18 0 -27.5 14t-5.5 31l32 152q6 26 29 44t47 18t38.5 -18.5t9.5 -43.5t-27.5 -43t-47.5 -18h-8.5t-7.5 1l-21 -97h128q10 0 20.5 5t19 13t15 17.5
t8.5 19.5l43 204q5 22 -8.5 39.5t-34.5 17.5h-63q-16 0 -33 -7t-32.5 -18.5t-28.5 -25t-20 -25.5h-49q12 24 30.5 45t41.5 37t48.5 25t51.5 9h63zM181 231q-13 0 -26 -10t-16 -24q-2 -14 5.5 -23.5t21.5 -9.5t26.5 9.5t14.5 23.5q3 14 -4.5 24t-21.5 10z" />
    <glyph glyph-name="uni0E2E" unicode="&#xe2e;" horiz-adv-x="386" 
d="M413 432q-10 -36 -27 -73q16 -30 9 -65l-42 -197q-4 -19 -15 -36.5t-27 -31t-35 -21.5t-38 -8h-129q-17 0 -28 13t-7 30l24 113q5 25 28 43.5t47 18.5q25 0 39 -19t9 -43q-5 -25 -28 -43.5t-47 -18.5q-5 0 -8 0.5t-8 1.5l-12 -56h129q23 0 40 19t22 41l42 201
q0 -1 -13 -12t-22 -18q-29 -22 -60.5 -31.5t-66.5 -9.5q-17 0 -34 4.5t-29 13t-18.5 21.5t-2.5 31t15.5 35.5t27 30.5t34.5 21t37 8h96q12 0 23 -2t19 -8q5 12 9 24t7 23h40zM213 355q-21 -1 -40 -16.5t-23 -33.5q-3 -14 9.5 -25.5t38.5 -11.5q85 0 141 69q-2 9 -12.5 13
t-19.5 5h-94zM167 190q-14 0 -26.5 -10t-14.5 -24q-3 -14 4.5 -24t21.5 -10t26 10t15 24q2 13 -5.5 23.5t-20.5 10.5z" />
    <glyph glyph-name="uni0E2F" unicode="&#xe2f;" horiz-adv-x="381" 
d="M217 243q-19 0 -37.5 1t-35.5 8q-25 9 -39 27.5t-8 47.5q3 13 10.5 24.5t18.5 20.5t24 14.5t26 5.5q26 0 40.5 -19t8.5 -45q-6 -33 -33 -49q8 0 15 -0.5t15 -0.5q49 0 90 35q40 36 52 84h24t23 -1l-63 -294q-10 -47 -53 -79q-32 -23 -69 -23l8 46q23 0 44 16q19 17 23 40
l42 198q-26 -26 -58.5 -40.5t-67.5 -16.5zM169 362q-14 0 -27 -10.5t-16 -24.5t5.5 -24.5t23.5 -10.5q14 0 26.5 10.5t15.5 24.5t-5.5 24.5t-22.5 10.5z" />
    <glyph glyph-name="uni0E30" unicode="&#xe30;" horiz-adv-x="357" 
d="M402 368q-14 -64 -69 -109q-29 -23 -61.5 -34.5t-64.5 -11.5q-22 0 -45 4.5t-37 15.5t-23.5 27.5t-4.5 38.5q3 13 10.5 24.5t18.5 20.5t24 14t26 5q25 0 40 -19t10 -45q-6 -31 -35 -50q6 -1 11.5 -1h11.5q26 0 50.5 8t48.5 29q39 32 53 83h36zM169 334q-14 0 -26.5 -11
t-15.5 -26q-3 -14 5 -24t22 -10t27 11t16 25t-6 24.5t-22 10.5zM364 189q-14 -64 -69 -109q-29 -23 -61.5 -34.5t-64.5 -11.5q-22 0 -45 4.5t-37 15.5t-23.5 27.5t-4.5 38.5q3 13 10.5 24.5t18.5 20.5t24 14t26 5q25 0 40 -19t10 -45q-6 -31 -35 -50q6 -1 11.5 -1h11.5
q26 0 50.5 8t49.5 28q38 32 52 84h36zM131 155q-14 0 -26.5 -11t-15.5 -26q-3 -14 5 -24t22 -10t27 11t16 25t-6 24.5t-22 10.5z" />
    <glyph glyph-name="uni0E31" unicode="&#xe31;" 
d="M184 614q-14 -64 -69 -108q-30 -24 -63 -35t-67 -11q-17 0 -33 3.5t-28 8.5q-20 10 -31.5 28t-6.5 43q5 26 26.5 44t47.5 18q25 0 39 -18t9 -44q-3 -14 -10 -26t-21 -20q6 -1 12.5 -1h12.5q24 1 48.5 8t46.5 26q37 33 51 84h36zM-46 577q-14 0 -25 -9t-14 -25
q-3 -13 4 -23.5t21 -10.5t25.5 10.5t14.5 23.5q3 14 -4.5 24t-21.5 10z" />
    <glyph glyph-name="uni0E32" unicode="&#xe32;" horiz-adv-x="349" 
d="M295 0h-47l62 296q6 22 -8 38q-11 15 -33 17h-33q-41 -3 -76 -32q-11 -10 -19 -19.5t-16 -20.5l-39 15q18 34 49 57q51 43 113 45h31q41 0 63 -28q23 -31 14 -72z" />
    <glyph glyph-name="uni0E33" unicode="&#xe33;" horiz-adv-x="349" 
d="M42 539q-3 -12 -10.5 -23.5t-18 -20.5t-23.5 -14.5t-26 -5.5q-25 0 -40 19.5t-10 44.5q5 26 28 45t49 19t41 -19t10 -45zM-15 574q-14 0 -26.5 -10.5t-15.5 -24.5q-3 -12 5 -23.5t22 -11.5q15 0 27 11t15 24q3 14 -5 24.5t-22 10.5zM295 0h-47l62 296q6 22 -8 38
q-11 15 -33 17h-33q-41 -3 -76 -32q-11 -10 -19 -19.5t-16 -20.5l-39 15q18 34 49 57q51 43 113 45h31q41 0 63 -28q23 -31 14 -72z" />
    <glyph glyph-name="uni0E34" unicode="&#xe34;" 
d="M12 568q17 -23 24 -52t7 -61q-34 10 -68 17t-69 12q-38 5 -77.5 6t-79.5 1q14 28 31 48.5t40 38.5q26 19 54 27.5t56 8.5q27 0 47.5 -12.5t34.5 -33.5zM-77 580q-32 0 -64.5 -14.5t-49.5 -38.5q42 0 93 -4.5t98 -16.5q0 11 -6.5 24t-17 24t-24.5 18.5t-29 7.5z" />
    <glyph glyph-name="uni0E35" unicode="&#xe35;" 
d="M-77 580q-32 0 -64.5 -14.5t-49.5 -38.5q42 0 93 -4.5t98 -16.5q0 11 -6.5 24t-17 24t-24.5 18.5t-29 7.5zM-251 491q14 28 31 48.5t40 38.5q26 19 54 27.5t56 8.5q27 0 47 -13t34 -31q5 -6 8 -17t2 -16l16 78h40l-34 -160q-34 10 -68 17t-69 12q-38 5 -77.5 6t-79.5 1z
" />
    <glyph glyph-name="uni0E36" unicode="&#xe36;" 
d="M101 584q-3 -12 -9 -22.5t-15 -19t-20 -13.5t-22 -6q5 -16 6.5 -33t1.5 -35q-34 10 -68 17t-69 12q-38 5 -77.5 6t-79.5 1q14 28 31 48.5t40 38.5q26 19 54 27.5t56 8.5q32 0 55 -17q9 20 27.5 34t41.5 14q24 0 38 -17.5t9 -43.5zM12 568q5 -7 10 -16q3 -1 5.5 -1.5
t5.5 -0.5q14 0 26 10.5t15 23.5q2 14 -5 24t-21 10t-26.5 -10.5t-14.5 -23.5q-1 -3 -1 -8q2 -2 3.5 -4t2.5 -4zM-77 580q-32 0 -64.5 -14.5t-49.5 -38.5q42 0 93 -4.5t98 -16.5q0 11 -6.5 24t-17 24t-24.5 18.5t-29 7.5z" />
    <glyph glyph-name="uni0E37" unicode="&#xe37;" 
d="M41 635h40l-38 -180q-34 10 -68 17t-69 12q-38 5 -77.5 6t-79.5 1q14 28 31 48.5t40 38.5q26 19 54 27.5t56 8.5q8 0 19 -1.5t16 -5.5l5 28h39l-9 -51q8 -7 15.5 -21.5t5.5 -25.5zM-77 580q-32 0 -64.5 -14.5t-49.5 -38.5q42 0 93 -4.5t98 -16.5q0 11 -6.5 24t-17 24
t-24.5 18.5t-29 7.5z" />
    <glyph glyph-name="uni0E38" unicode="&#xe38;" 
d="M-91 -197h-45l11 55q-5 -2 -16 -2t-20.5 4.5t-16 12.5t-9 18.5t-0.5 22.5q5 23 26.5 40.5t44.5 17.5q23 -1 38 -17.5t10 -39.5zM-122 -54q-12 0 -23.5 -9.5t-14.5 -22.5q-2 -12 4.5 -22t19.5 -10q14 0 25.5 9.5t13.5 22.5q3 13 -5 22.5t-20 9.5z" />
    <glyph glyph-name="uni0E39" unicode="&#xe39;" 
d="M-86 -160q-9 -40 -53 -40h-82l13 63q-4 -2 -7.5 -2h-6.5q-23 0 -35.5 16t-7.5 39q5 22 24.5 38.5t41.5 16.5q21 0 37 -14.5t11 -39.5l-17 -77h37l28 131h45zM-180 -84q2 12 -4.5 21t-19.5 9q-14 0 -24 -9t-12 -21q-3 -12 3 -21t20 -9q12 0 23 8.5t14 21.5z" />
    <glyph glyph-name="uni0E3A" unicode="&#xe3a;" 
d="M-100 -44q14 0 22.5 -10.5t5.5 -24.5q-3 -13 -15.5 -24t-27.5 -11q-14 0 -22 11.5t-5 23.5q3 14 15.5 24.5t26.5 10.5z" />
    <glyph glyph-name="uni0E3F" unicode="&#xe3f;" horiz-adv-x="395" 
d="M154 0h-107l100 475h107l11 50h42l-11 -50q25 0 44.5 -10.5t32.5 -28t17.5 -40t-0.5 -46.5q-5 -26 -20 -47t-37 -40q35 -14 50.5 -51t7.5 -77q-5 -25 -20 -49t-35.5 -43t-45 -31t-49.5 -12h-45l-12 -53h-42zM249 40q15 0 30.5 9t29 23t23 31t12.5 32t1 31.5t-9.5 30
t-19.5 22.5t-27 9h-45l-40 -188h45zM100 40h62l40 188h-62zM148 268h62l36 167h-62zM343 350q3 15 0.5 30t-10 27t-19 19.5t-26.5 8.5l-36 -167q31 1 57.5 26t33.5 56z" />
    <glyph glyph-name="uni0E40" unicode="&#xe40;" horiz-adv-x="216" 
d="M140 125q4 0 8.5 1t9.5 1q26 0 41 -19t10 -45q-3 -12 -10.5 -23.5t-18 -20.5t-23.5 -14.5t-26 -5.5q-26 0 -40.5 19t-8.5 45l71 333h45zM111 63q-3 -14 4.5 -24.5t21.5 -10.5t27 11t16 24q3 14 -5.5 24.5t-22.5 10.5t-26 -10.5t-15 -24.5z" />
    <glyph glyph-name="uni0E41" unicode="&#xe41;" horiz-adv-x="386" 
d="M140 125q4 0 8.5 1t9.5 1q26 0 41 -19t10 -45q-3 -12 -10.5 -23.5t-18 -20.5t-23.5 -14.5t-26 -5.5q-26 0 -40.5 19t-8.5 45l71 333h45zM111 63q-3 -14 4.5 -24.5t21.5 -10.5t27 11t16 24q3 14 -5.5 24.5t-22.5 10.5t-26 -10.5t-15 -24.5zM310 125q4 0 8.5 1t9.5 1
q26 0 41 -19t10 -45q-3 -12 -10.5 -23.5t-18 -20.5t-23.5 -14.5t-26 -5.5q-26 0 -40.5 19t-8.5 45l71 333h45zM281 63q-3 -14 4.5 -24.5t21.5 -10.5t27 11t16 24q3 14 -5.5 24.5t-22.5 10.5t-26 -10.5t-15 -24.5z" />
    <glyph glyph-name="uni0E42" unicode="&#xe42;" horiz-adv-x="246" 
d="M170 125q4 0 8.5 1t9.5 1q26 0 41 -19t10 -45q-3 -12 -10.5 -23.5t-18 -20.5t-23.5 -14.5t-26 -5.5q-26 0 -40.5 19t-8.5 45l98 463q-56 40 -163 58q5 23 17 49.5t32 42.5q17 14 36 19t38 5q13 -1 24.5 -5.5t23.5 -9.5t23.5 -9t24.5 -4q15 0 31 9t36 25l-9 -42
q-33 -30 -66 -30q-13 0 -25 4t-23 9.5t-22.5 10t-24.5 6.5q-9 1 -20.5 -2t-21.5 -10t-17.5 -16.5t-10.5 -21.5q93 -15 167 -68zM141 63q-3 -14 4.5 -24.5t21.5 -10.5t27 11t16 24q3 14 -5.5 24.5t-22.5 10.5t-26 -10.5t-15 -24.5z" />
    <glyph glyph-name="uni0E43" unicode="&#xe43;" horiz-adv-x="247" 
d="M171 125q4 0 8.5 1t9.5 1q26 0 41 -19t10 -45q-3 -12 -10.5 -23.5t-18 -20.5t-23.5 -14.5t-26 -5.5q-26 0 -40.5 19t-8.5 45l111 525q5 35 -7.5 62.5t-45.5 27.5q-17 0 -36.5 -7t-30.5 -23q7 3 15 4t14 1q27 0 44 -21t11 -49q-3 -14 -11.5 -27t-20.5 -22.5t-26 -15.5
t-27 -6q-18 0 -31 7.5t-20 20t-8.5 28t1.5 31.5q5 22 17.5 43t30.5 36.5t40 25t45 9.5q26 0 45.5 -9.5t31.5 -26.5t16 -39.5t-1 -48.5l-28 -128zM142 63q-3 -14 4.5 -24.5t21.5 -10.5t27 11t16 24q3 14 -5.5 24.5t-22.5 10.5t-26 -10.5t-15 -24.5zM78 583q-3 -16 6 -28
t26 -12q14 0 28 12.5t17 27.5q4 15 -4 27t-24 12q-17 0 -31 -12t-18 -27z" />
    <glyph glyph-name="uni0E44" unicode="&#xe44;" horiz-adv-x="247" 
d="M171 125q4 0 8.5 1t9.5 1q26 0 41 -19t10 -45q-3 -12 -10.5 -23.5t-18 -20.5t-23.5 -14.5t-26 -5.5q-26 0 -40.5 19t-8.5 45l124 586l-111 -133q-15 0 -22 14l-72 170h37l59 -139l122 146q19 0 29 -13.5t6 -32.5zM142 63q-3 -14 4.5 -24.5t21.5 -10.5t27 11t16 24
q3 14 -5.5 24.5t-22.5 10.5t-26 -10.5t-15 -24.5z" />
    <glyph glyph-name="uni0E45" unicode="&#xe45;" horiz-adv-x="337" 
d="M258 -169h-46l99 468q5 21 -8.5 36.5t-33.5 15.5h-33q-32 -1 -62.5 -22t-48.5 -50l-39 15q12 21 30 40t40 32.5t45.5 21.5t46.5 8h36q19 0 34 -8t25 -22t13.5 -32t-0.5 -38z" />
    <glyph glyph-name="uni0E46" unicode="&#xe46;" horiz-adv-x="357" 
d="M225 278l-39 51l-7 8q-25 -14 -37 -32q24 0 37.5 -14.5t8.5 -37.5q-5 -21 -23.5 -37t-39.5 -16t-35 16t-9 37l6 29q4 19 15.5 35t27.5 29t33.5 22.5t33.5 17.5l40 -51l52 51q19 0 34.5 -9t25.5 -23.5t14 -33t0 -37.5l-75 -352q-9 -44 -46 -73q-34 -28 -79 -28l10 45
q24 0 44 17q10 8 17 18t9 21l75 352q4 20 -6 35t-27 20zM113 253q-2 -9 4 -16.5t14 -7.5q9 0 17 7t10 17q2 8 -3.5 14.5t-13.5 6.5q-9 0 -17.5 -6.5t-10.5 -14.5z" />
    <glyph glyph-name="uni0E47" unicode="&#xe47;" 
d="M-27 504q11 0 20 7.5t11 18.5t-3.5 18.5t-16.5 7.5q-10 0 -20 -7.5t-12 -18.5t4.5 -18.5t16.5 -7.5zM-12 578q20 0 31.5 -13t6.5 -35q-3 -13 -10 -25t-17.5 -21.5t-23.5 -15t-26 -5.5q-18 0 -36 7t-26 24q-3 -4 -6 -9l-6 -10q-4 -6 -7 -12q-27 8 -42.5 31t-8.5 55
q5 24 21.5 44.5t39.5 31.5q20 9 41 11t41 2h36t13 1q23 2 40.5 19t22.5 39h31q-4 -19 -14 -35.5t-23.5 -29t-29.5 -20t-32 -7.5q-10 0 -22 0.5t-26 0.5q-17 0 -34.5 -2t-33.5 -9q-32 -14 -38 -45q-2 -12 0 -23.5t10 -18.5q4 6 9 14.5t10 16.5q5 9 10 19h18q-1 -4 -1 -8
q-2 -8 0 -19q2 -14 14.5 -27.5t26.5 -14.5q-9 5 -13.5 17t-2.5 24q5 22 22.5 35t34.5 13z" />
    <glyph glyph-name="uni0E48" unicode="&#xe48;" 
d="M77 800h40l-28 -131h-40z" />
    <glyph glyph-name="uni0E49" unicode="&#xe49;" 
d="M-4 675q24 5 39 14t23 16q-17 2 -27.5 15.5t-6.5 31.5t21.5 32.5t35.5 14.5q20 0 31.5 -14t6.5 -33q-6 -29 -22 -45t-32 -26q25 0 45 9t35.5 24t25.5 33.5t15 36.5h32q-5 -25 -20.5 -50t-37 -44.5t-47 -31.5t-52.5 -12t-42 10t-23 19zM77 778q-9 0 -19 -8t-12 -18
q-2 -11 4 -18t16 -7q11 0 20 7t11 18q2 10 -4 18t-16 8z" />
    <glyph glyph-name="uni0E4A" unicode="&#xe4a;" 
d="M10 740q4 1 11 1q17 0 28.5 -13t7.5 -30q-3 -15 -19.5 -28.5t-34.5 -13.5q-15 0 -25.5 12.5t-6.5 29.5l6 30q4 19 14.5 32.5t24.5 21.5t29 11.5t29 3.5l11 -39l30 39q26 0 32 -16t0 -43l-7 -37q20 14 30.5 43t15.5 55h24q-5 -25 -15 -50t-23.5 -44.5t-30 -32t-35.5 -12.5
l16 78q2 10 2 20.5t-7 12.5l-41 -57l-18 57q-17 0 -30.5 -8.5t-17.5 -22.5zM7 675q10 0 19 7t11 16q2 10 -4 17t-16 7q-8 0 -16.5 -6.5t-10.5 -17.5q-2 -9 3.5 -16t13.5 -7z" />
    <glyph glyph-name="uni0E4B" unicode="&#xe4b;" 
d="M157 743l-8 -38h-56l-12 -57h-43l12 57h-55l7 38h56l12 56h43l-12 -56h56z" />
    <glyph glyph-name="uni0E4C" unicode="&#xe4c;" 
d="M285 800q-14 -42 -46 -64.5t-75 -22.5h-26q2 -11 -1 -28q-5 -26 -28 -45t-50 -19q-26 0 -41 19t-10 45q3 13 10.5 24.5t18.5 20.5t24 14t26 5h85q28 0 47 12t30 39h36zM108 685q3 14 -5 24.5t-22 10.5t-27 -10.5t-16 -24.5t5.5 -24.5t22.5 -10.5t26.5 10.5t15.5 24.5z
" />
    <glyph glyph-name="uni0E4D" unicode="&#xe4d;" 
d="M42 538q-3 -12 -10.5 -23.5t-18 -20.5t-23.5 -14.5t-26 -5.5q-25 0 -40 19.5t-10 44.5q5 26 28 45t49 19t41 -19t10 -45zM-15 573q-14 0 -26.5 -10.5t-15.5 -24.5q-3 -12 5 -23.5t22 -11.5q15 0 27 11t15 24q3 14 -5 24.5t-22 10.5z" />
    <glyph glyph-name="uni0E4E" unicode="&#xe4e;" 
d="M77 565h-73q-12 0 -24.5 -10t-14.5 -23q-3 -13 5 -23t21 -10q5 0 11 3t13 8l21 -24q-25 -20 -52 -20t-42 19.5t-9 46.5q2 11 8 22.5t15 21t20 15.5t25 6h6q-5 6 -5 14.5t1 13.5q6 27 29.5 46.5t51.5 19.5h91l-6 -32h-87q-14 0 -28 -10.5t-17 -23.5q-2 -11 6 -20t21 -9h19
z" />
    <glyph glyph-name="uni0E4F" unicode="&#xe4f;" horiz-adv-x="422" 
d="M292 378q39 0 69.5 -16t50.5 -42.5t27.5 -61.5t-0.5 -74t-30.5 -73.5t-53.5 -61t-68.5 -42t-76.5 -15.5t-70.5 15.5t-51.5 42t-27 61t1 73.5q7 36 28.5 71t52.5 62.5t69.5 44t79.5 16.5zM283 338q-33 0 -63.5 -13t-54.5 -35t-41 -49.5t-23 -56.5q-7 -31 -1 -58.5
t21.5 -48.5t40.5 -33t56 -12t60.5 12t54.5 33t42.5 48.5t24.5 58.5q6 30 0 58t-22 49.5t-40.5 34t-54.5 12.5zM148 184q4 21 16.5 40t29.5 33t37.5 22t41.5 8q43 0 66.5 -30t14.5 -73q-5 -21 -17 -40t-29 -33t-37.5 -22t-41.5 -8t-38.5 8t-28.5 22t-15 33t1 40zM183 184
q-6 -28 9.5 -48t43.5 -20t52.5 20t30.5 48q5 28 -10.5 48t-43.5 20t-52.5 -20t-29.5 -48z" />
    <glyph glyph-name="uni0E50" unicode="&#xe50;" horiz-adv-x="407" 
d="M419 172q-8 -36 -29 -68.5t-50.5 -57.5t-65.5 -39.5t-73 -14.5q-36 0 -65.5 14t-49 38.5t-27 57.5t0.5 70t29.5 69.5t51.5 57t65.5 38.5t70.5 14q36 0 65.5 -14t49 -38.5t27.5 -57t0 -69.5zM106 171q-6 -28 -1 -52t19.5 -42t36.5 -28.5t50 -10.5t54.5 10.5t48 28.5t37 42
t21.5 52t1 52.5t-19.5 42.5t-36.5 28t-50 10t-54.5 -10t-48 -28t-37 -42.5t-21.5 -52.5z" />
    <glyph glyph-name="uni0E51" unicode="&#xe51;" horiz-adv-x="391" 
d="M405 180q-8 -38 -29.5 -74t-51.5 -65t-66.5 -49.5t-75.5 -28.5l-7 41q31 7 61.5 23.5t55.5 40t43 52.5t25 60q5 25 -0.5 48t-19 41t-33.5 28.5t-45 10.5t-49.5 -8t-45 -22t-35.5 -34.5t-20 -45.5q-6 -26 5.5 -48t34.5 -30q-5 5 -5.5 16t1.5 19q6 26 28 45t50 19
q26 0 41 -19t9 -45q-7 -35 -37.5 -60t-70.5 -25q-27 0 -48.5 10.5t-35.5 27.5t-19 40t0 49q7 34 28 63t49.5 49.5t62 32t66.5 11.5t61 -14.5t46.5 -38.5t26 -55t0.5 -65zM178 154q-3 -14 5 -25t22 -11t27 11t16 25t-5.5 25t-22.5 11t-26.5 -11t-15.5 -25z" />
    <glyph glyph-name="uni0E52" unicode="&#xe52;" horiz-adv-x="507" 
d="M120 561q25 -21 37.5 -42.5t15 -48.5t-3 -62t-15.5 -83l-43 -202q-3 -15 1.5 -29t14 -25t23 -17.5t28.5 -6.5h166q15 0 32 6t31.5 16.5t25.5 24.5t14 29l26 123q2 8 -1 17.5t-8 17.5t-12.5 13t-14.5 5l-66 -54q-4 10 -9.5 20.5t-13 19.5t-16.5 14.5t-20 5.5
q-30 0 -51 -15t-26 -38q4 2 20 2q25 0 40.5 -18.5t10.5 -44.5q-3 -12 -10.5 -23.5t-18.5 -20.5t-24 -14.5t-25 -5.5q-24 0 -40.5 19.5t-11.5 44.5q2 13 6 28.5t6 26.5q11 48 48.5 76t84.5 28q19 0 37.5 -9t30.5 -30q11 11 22 20t20 17q21 -1 39 -8.5t30 -21t17.5 -32
t0.5 -40.5l-26 -124q-5 -25 -20.5 -46.5t-37.5 -38t-47.5 -26t-50.5 -9.5h-167q-24 0 -45 9.5t-36 26t-21.5 38.5t-1.5 46l44 205q7 36 12 65.5t4 53.5t-10 43.5t-29 37.5zM205 188q-2 -14 6.5 -25t22.5 -11t26.5 11t14.5 25q4 15 -4 24.5t-22 9.5t-27 -9.5t-17 -24.5z" />
    <glyph glyph-name="uni0E53" unicode="&#xe53;" horiz-adv-x="461" 
d="M131 -3q-27 3 -44 20t-25 41.5t-8.5 53.5t5.5 56q11 50 33.5 84.5t50.5 55.5t56.5 30t51.5 9l31 -125l83 125h39q19 0 33.5 -9t23.5 -23.5t12 -33.5t-1 -39l-51 -242h-45l52 245q5 21 -6.5 39t-31.5 18h-11l-116 -170l-47 165q-26 -1 -50.5 -24t-41 -53.5t-23 -62.5
t2.5 -51q10 8 24 15.5t31 7.5q27 0 44 -18.5t11 -45.5q-3 -13 -11 -25.5t-19.5 -22t-25 -15t-27.5 -5.5zM138 30q14 0 26.5 10.5t15.5 24.5t-5 24.5t-22 10.5t-27 -10.5t-16 -24.5t5.5 -24.5t22.5 -10.5z" />
    <glyph glyph-name="uni0E54" unicode="&#xe54;" horiz-adv-x="472" 
d="M604 526q-10 -46 -31 -87.5t-52 -73t-71 -50.5t-86 -19q-28 0 -52.5 0.5t-50.5 0.5q-28 0 -54 -10.5t-47 -28t-35.5 -41t-20.5 -50.5q-6 -26 0 -49t20.5 -40t37 -27t50.5 -10q15 0 26 1t24 2.5t30 3t43 1.5q-18 9 -36.5 19.5t-32 24t-20.5 29t-3 33.5q6 26 28.5 45.5
t48.5 19.5q24 0 40 -18t11 -44q-3 -16 -13.5 -30t-24.5 -23q5 -7 20 -17t34.5 -20.5t40 -20t36.5 -14.5l-22 -43q-28 8 -62 12t-66 4q-30 0 -54 -5t-57 -5q-37 0 -67.5 12.5t-50 35t-27 54t0.5 69.5t27.5 70t47.5 55t63 36t73 13q27 0 51 0.5t53 0.5q38 0 68.5 15t53.5 40.5
t39.5 59t26.5 70.5zM272 156q-3 -14 5 -24.5t22 -10.5t27 10.5t16 24.5t-5.5 24.5t-22.5 10.5t-26.5 -10.5t-15.5 -24.5z" />
    <glyph glyph-name="uni0E55" unicode="&#xe55;" horiz-adv-x="472" 
d="M460 382q-2 -5 -3.5 -10t-5.5 -10q43 23 70 67.5t41 97.5l41 -1q-10 -46 -31 -87.5t-52 -73t-70.5 -50.5t-85.5 -19q-28 0 -52.5 0.5t-50.5 0.5q-27 0 -53 -10.5t-47 -28t-36 -41t-21 -50.5q-6 -26 0 -49t20.5 -40t36.5 -27t50 -10q15 0 26.5 1t24.5 2.5t30 3t43 1.5
q-18 9 -36.5 19.5t-32 24t-21 29t-3.5 33.5q6 26 29 45.5t49 19.5q24 0 40 -18t10 -44q-6 -34 -37 -53q5 -7 20 -17t34.5 -20.5t40 -20t36.5 -14.5l-22 -43q-28 8 -62.5 12t-65.5 4q-30 0 -54 -5t-58 -5q-37 0 -67 12.5t-49.5 35t-27 54t0.5 69.5t27.5 70t48 55t63 36
t72.5 13h35t33 1q-10 19 -6 40q5 26 28 45t49 19t41 -19t10 -45zM272 156q-3 -14 5 -24.5t22 -10.5t27 10.5t16 24.5t-5.5 24.5t-22.5 10.5t-26.5 -10.5t-15.5 -24.5zM403 417q-14 0 -26.5 -10.5t-15.5 -24.5q-3 -12 5 -23.5t22 -11.5t26.5 11t15.5 24q3 14 -5 24.5
t-22 10.5z" />
    <glyph glyph-name="uni0E56" unicode="&#xe56;" horiz-adv-x="418" 
d="M72 540q17 -20 31 -41.5t23.5 -46.5t15 -54.5t5.5 -66.5q22 7 50.5 15.5t63.5 8.5q48 0 83.5 -14t57 -39t29 -59t-0.5 -73q-8 -35 -29 -66.5t-50.5 -56t-64.5 -39t-70 -14.5q-46 0 -74.5 10t-43.5 26.5t-18.5 37.5t1.5 44q6 26 29 45.5t50 19.5q26 0 41.5 -19.5
t9.5 -45.5q-5 -24 -21 -39t-30 -21q8 -5 26 -9.5t42 -4.5t50 11.5t48 30t38.5 42t21.5 48.5q14 66 -23 103.5t-111 37.5q-17 0 -38.5 -4t-43.5 -9.5t-41.5 -12.5t-31.5 -13q10 77 -7.5 138.5t-55.5 102.5zM113 112q-3 -14 5 -24t22 -10t26.5 10t15.5 24t-5 24t-22 10
t-26.5 -10t-15.5 -24z" />
    <glyph glyph-name="uni0E57" unicode="&#xe57;" horiz-adv-x="578" 
d="M131 -3q-27 3 -44 20t-25 41.5t-8.5 53.5t5.5 56q11 50 33.5 84.5t50.5 55.5t56.5 30t51.5 9l31 -125l83 125h39q19 0 33.5 -9t23.5 -23.5t12 -33.5t-1 -39l-37 -176q45 46 78.5 107.5t47.5 129.5l43 204h46l-43 -204q-19 -89 -69 -172t-128 -136h-36l54 250
q5 21 -6.5 39t-31.5 18h-11l-116 -170l-47 165q-10 0 -26 -9t-33 -25.5t-32 -40.5t-21 -54q-3 -17 -3.5 -36.5t3.5 -25.5q10 8 24 15.5t31 7.5q27 0 44 -18.5t11 -45.5q-3 -13 -11 -25.5t-19.5 -22t-25 -15t-27.5 -5.5zM138 30q14 0 26.5 10.5t15.5 24.5t-5 24.5t-22 10.5
t-27 -10.5t-16 -24.5t5.5 -24.5t22.5 -10.5z" />
    <glyph glyph-name="uni0E58" unicode="&#xe58;" horiz-adv-x="481" 
d="M412 90q-28 0 -43.5 19.5t-10.5 45.5q6 26 29 45.5t49 19.5q24 0 40.5 -18t10.5 -44q-7 -32 -22.5 -61.5t-37.5 -52.5t-50 -36.5t-60 -13.5q-25 0 -43.5 7.5t-32 20t-22.5 28.5t-14 33l-54 -90q-54 20 -80 66t-12 109q8 38 28 70t47.5 55t62 36t72.5 13h54q14 0 27 1
q38 0 73.5 15t64.5 40.5t50.5 59t30.5 70.5h42q-10 -46 -36 -87.5t-62.5 -73t-81 -50.5t-90.5 -19h-81q-27 0 -53 -10.5t-47 -28t-36 -41t-21 -50.5q-5 -22 -2 -41.5t9 -34.5t14.5 -24t16.5 -11l81 123q6 -21 14 -45.5t20 -45.5t29.5 -35.5t41.5 -14.5q28 0 51 16t34 35z
M388 156q-3 -14 5 -24.5t22 -10.5t27 10.5t16 24.5t-5.5 24.5t-22.5 10.5t-26.5 -10.5t-15.5 -24.5z" />
    <glyph glyph-name="uni0E59" unicode="&#xe59;" horiz-adv-x="480" 
d="M192 98q-14 0 -26.5 -10.5t-15.5 -24.5t5 -24.5t22 -10.5t27 10.5t16 24.5t-5.5 24.5t-22.5 10.5zM121 70q5 22 27 39.5t49 17.5t43.5 -18.5t10.5 -45.5q-3 -13 -11 -25.5t-19 -22t-24.5 -15t-27.5 -5.5q-31 0 -55 14t-38.5 38t-19 54.5t2.5 63.5q7 32 22.5 61t36 51
t45 35t48.5 13q30 0 44.5 -5.5t28.5 -11.5q21 17 39.5 28t46.5 11q27 0 40.5 -14t20.5 -30.5t11.5 -30t13.5 -13.5q13 0 26.5 14.5t25 37.5t21 50t14.5 53l23 106h46l-23 -106q-7 -35 -20 -70.5t-31.5 -64t-42 -47t-51.5 -18.5q-20 0 -30.5 14t-18 30.5t-14.5 30.5t-20 14
q-34 0 -55 -27q0 -64 19.5 -108t56.5 -70l-31 -34q-45 29 -65.5 75.5t-22.5 122.5q-11 8 -24 13t-36 5q-16 0 -32 -9.5t-30 -25.5t-24.5 -37t-14.5 -43q-2 -8 -2 -21.5t2 -28t6.5 -27t12.5 -18.5z" />
    <glyph glyph-name="uni0E5A" unicode="&#xe5a;" horiz-adv-x="549" 
d="M301 0l63 300q-26 -26 -58.5 -40.5t-67.5 -16.5q-19 0 -37.5 1t-35.5 8q-25 9 -39 27.5t-8 47.5q3 13 10.5 24.5t18.5 20.5t24 14.5t26 5.5q26 0 40.5 -19t8.5 -45q-6 -33 -33 -49q8 0 15 -0.5t15 -0.5q49 0 90 35q40 36 52 84h47l-25 -119q42 5 77 35q38 33 51 79l1 5
h47l-84 -397h-47l63 300q-25 -25 -54.5 -39t-61.5 -18l-51 -243h-47zM190 362q-14 0 -27 -10.5t-16 -24.5t5.5 -24.5t23.5 -10.5q14 0 26.5 10.5t15.5 24.5t-5.5 24.5t-22.5 10.5z" />
    <glyph glyph-name="uni0E5B" unicode="&#xe5b;" horiz-adv-x="697" 
d="M55 178q7 34 28 65t50 54.5t63.5 37.5t67.5 14t58 -11t40.5 -31.5t20 -48.5t-2.5 -62q-5 -26 -20 -48.5t-36 -40t-47 -27.5t-53 -10q-39 0 -58.5 24.5t-11.5 58.5q5 25 27 44t48 19q27 0 41 -18.5t9 -44.5q-2 -8 -7.5 -19t-10.5 -18q29 9 50.5 31t26.5 50q11 51 -11 80.5
t-73 29.5q-25 0 -51 -10.5t-47.5 -28t-37.5 -41t-22 -49.5q-7 -33 -3 -62t18 -51.5t38 -35.5t58 -13q37 0 73 17.5t65.5 44t49.5 58t26 59.5q1 4 2.5 14.5t3 22.5t2.5 24t0 20q13 -7 23.5 -23.5t17.5 -36.5t10.5 -40.5t2.5 -35.5q6 9 11 25t8 33t4 32t0 23q15 -8 24 -20.5
t14.5 -28t8.5 -31.5t6 -29q4 10 6.5 22.5t4.5 25t2.5 23.5t0.5 19q15 -6 24 -17t14.5 -24.5t8 -27.5t5.5 -25q6 14 9 33t3 34q25 -22 47.5 -32t61.5 -15q-12 -5 -25.5 -7.5t-24.5 -2.5q-13 0 -24 3.5t-19 8.5q-4 -18 -14 -37t-21 -19q-7 0 -11 7.5t-6.5 17.5t-4.5 21t-3 19
q-3 -14 -8.5 -27t-11.5 -23.5t-12.5 -17t-11.5 -6.5q-8 3 -11.5 15t-5.5 26.5t-3.5 27t-4.5 17.5q-5 -17 -12 -34t-15 -31t-15.5 -23t-12.5 -9q-4 0 -7 10t-5.5 23.5t-5 27.5t-4.5 22q-11 -35 -36.5 -69t-60 -61t-75 -43.5t-82.5 -16.5t-72 16t-47.5 43t-22.5 63t4 77z
M252 152q3 15 -5 27t-23 12q-14 0 -28.5 -12t-17.5 -27t6.5 -26.5t23.5 -11.5q15 0 28 11.5t16 26.5z" />
    <glyph glyph-name="zerowidthnonjoiner" unicode="&#x200c;" 
d="M-47 -308h-35l116 548h35z" />
    <glyph glyph-name="zerowidthjoiner" unicode="&#x200d;" 
d="M-47 -308h-35l96 458l-23 -21l-14 17l45 38l-29 39l21 17l28 -38l47 38l14 -17l-46 -39l30 -38l-22 -17l-16 21z" />
    <glyph glyph-name="lefttorightmark" unicode="&#x200e;" 
d="M-47 -308h-35l108 512h134l-13 18l19 17l42 -53l-64 -53l-12 18l20 17h-99z" />
    <glyph glyph-name="righttoleftmark" unicode="&#x200f;" 
d="M-47 -308h-35l100 476h-98l14 -17l-20 -18l-42 53l64 53l13 -17l-21 -18h133z" />
    <glyph glyph-name="endash" unicode="&#x2013;" horiz-adv-x="360" 
d="M56 165l8 40h317l-8 -40h-317z" />
    <glyph glyph-name="emdash" unicode="&#x2014;" horiz-adv-x="720" 
d="M57 165l8 40h673l-8 -40h-673z" />
    <glyph glyph-name="quoteleft" unicode="&#x2018;" horiz-adv-x="114" 
d="M129 369h-41l6 27q6 29 18 48t25.5 32t27.5 21t23 14l16 -32q-9 -7 -19.5 -14t-20 -16t-17.5 -21.5t-12 -31.5z" />
    <glyph glyph-name="quoteright" unicode="&#x2019;" horiz-adv-x="114" 
d="M170 511h41l-6 -27q-6 -29 -18 -48t-25.5 -32t-27 -21t-23.5 -14l-16 32q9 7 19.5 13.5t20 15.5t17.5 22t12 32z" />
    <glyph glyph-name="quotesinglbase" unicode="&#x201a;" horiz-adv-x="120" 
d="M80 62h41l-6 -27q-6 -29 -18 -48t-26 -32t-27.5 -21t-23.5 -14l-16 32q9 7 19.5 13.5t20.5 15.5t18 22t12 32z" />
    <glyph glyph-name="quotedblleft" unicode="&#x201c;" horiz-adv-x="263" 
d="M244 369h-41l6 27q6 29 18 48t25.5 32t27.5 21t23 14l16 -32q-9 -7 -19.5 -14t-20 -16t-17.5 -21.5t-12 -31.5zM129 369h-41l6 27q6 29 18 48t25.5 32t27.5 21t23 14l16 -32q-9 -7 -19.5 -14t-20 -16t-17.5 -21.5t-12 -31.5z" />
    <glyph glyph-name="quotedblright" unicode="&#x201d;" horiz-adv-x="263" 
d="M170 511h41l-6 -27q-6 -29 -18 -48t-25.5 -32t-27 -21t-23.5 -14l-16 32q9 7 19.5 13.5t20 15.5t17.5 22t12 32zM285 511h41l-6 -27q-6 -29 -18 -48t-25.5 -32t-27 -21t-23.5 -14l-16 32q9 7 19.5 13.5t20 15.5t17.5 22t12 32z" />
    <glyph glyph-name="quotedblbase" unicode="&#x201e;" horiz-adv-x="233" 
d="M80 62h41l-6 -27q-6 -29 -18 -48t-26 -32t-27.5 -21t-23.5 -14l-16 32q9 7 19.5 13.5t20.5 15.5t18 22t12 32zM195 62h41l-6 -27q-6 -29 -18 -48t-26 -32t-27.5 -21t-23.5 -14l-16 32q9 7 19.5 13.5t20.5 15.5t18 22t12 32z" />
    <glyph glyph-name="dagger" unicode="&#x2020;" horiz-adv-x="395" 
d="M235 269h-135l8 40h135l35 166h46l-35 -166h131l-8 -40h-131l-75 -349l-29 -31l-17 31z" />
    <glyph glyph-name="daggerdbl" unicode="&#x2021;" horiz-adv-x="394" 
d="M235 269h-135l8 40h135l35 166h46l-35 -166h131l-8 -40h-131l-32 -147h131l-8 -40h-131l-35 -162l-29 -31l-17 31l35 162h-135l8 40h135z" />
    <glyph glyph-name="bullet" unicode="&#x2022;" horiz-adv-x="349" 
d="M86 109l54 255l210 -128z" />
    <glyph glyph-name="ellipsis" unicode="&#x2026;" horiz-adv-x="751" 
d="M94 30q3 15 15 25t27 10t23 -10t5 -25t-15.5 -25t-27.5 -10t-22.5 10t-4.5 25zM346 30q3 15 15 25t27 10t23 -10t5 -25t-15.5 -25t-27.5 -10t-22.5 10t-4.5 25zM596 30q3 15 15 25t27 10t23 -10t5 -25t-15.5 -25t-27.5 -10t-22.5 10t-4.5 25z" />
    <glyph glyph-name="perthousand" unicode="&#x2030;" horiz-adv-x="751" 
d="M196 450q-15 0 -30 -7t-27.5 -18.5t-21.5 -26t-12 -29.5l-18 -84q-7 -31 7.5 -49t46.5 -18h22q32 0 59.5 24t34.5 55l18 87q7 31 -7 48.5t-48 17.5h-24zM143 361q4 18 20 32.5t36 14.5h4q38 0 30 -34l-15 -69q-4 -18 -20.5 -31.5t-34.5 -13.5h-4q-38 0 -30 35zM437 243
q-15 0 -30 -7t-27.5 -18t-21.5 -26t-12 -30l-18 -84q-6 -30 8 -48t46 -18h22q32 0 59.5 23.5t34.5 55.5l18 87q7 30 -7 47.5t-48 17.5h-24zM96 -17l365 507h44l-363 -507h-46zM384 155q5 18 20.5 32.5t35.5 14.5h4q38 0 30 -34l-14 -69q-5 -18 -21.5 -31.5t-34.5 -13.5h-4
q-36 0 -30 35zM646 243q-15 0 -30 -7t-27.5 -18t-21.5 -26t-12 -30l-18 -84q-6 -30 8 -48t46 -18h22q32 0 59.5 23.5t34.5 55.5l18 87q7 30 -7 47.5t-48 17.5h-24zM593 155q5 18 20.5 32.5t35.5 14.5h4q38 0 30 -34l-14 -69q-5 -18 -21.5 -31.5t-34.5 -13.5h-4q-36 0 -30 35
z" />
    <glyph glyph-name="minute" unicode="&#x2032;" horiz-adv-x="145" 
d="M156 505h47l-31 -146h-47z" />
    <glyph glyph-name="second" unicode="&#x2033;" horiz-adv-x="251" 
d="M153 505h47l-31 -146h-47zM265 505h47l-31 -146h-47z" />
    <glyph glyph-name="guilsinglleft" unicode="&#x2039;" horiz-adv-x="218" 
d="M275 358l-12 -56l-147 -120l96 -120l-12 -56l-142 176z" />
    <glyph glyph-name="guilsinglright" unicode="&#x203a;" horiz-adv-x="218" 
d="M237 182l-216 -176l12 56l146 120l-95 120l12 56z" />
    <glyph glyph-name="fraction" unicode="&#x2044;" horiz-adv-x="106" 
d="M-97 -17l364 507h31l-362 -507h-33z" />
    <glyph glyph-name="franc" unicode="&#x20a3;" horiz-adv-x="453" 
d="M215 214h183l-9 -42h-183l-36 -172h-45l36 172h-81l9 42h81l8 40h-81l9 42h81l38 179h284l-8 -40h-239l-30 -139h183l-9 -42h-183z" />
    <glyph glyph-name="dong" unicode="&#x20ab;" horiz-adv-x="378" 
d="M282 46q-3 -5 -14 -13.5t-26.5 -17t-34 -14.5t-36.5 -6h-40q-23 0 -39.5 9.5t-26.5 25.5t-12.5 37t2.5 44l20 93q6 28 22 53.5t38.5 45t49.5 30.5t55 11h40q30 0 40.5 -9t18.5 -22l16 74h-96l9 42h96l9 46h45l-9 -46h64l-9 -42h-64l-83 -389h-45zM322 233q3 26 -11 48.5
t-40 22.5h-40q-19 0 -37 -8.5t-33 -22.5t-26 -32t-15 -37l-20 -93q-6 -27 3.5 -51.5t36.5 -24.5h40q18 0 37.5 8t36 21.5t29 31t17.5 35.5zM44 -91l9 40h242q-1 -5 -3 -11q-3 -10 -6 -29h-242z" />
    <glyph glyph-name="Euro" unicode="&#x20ac;" horiz-adv-x="353" 
d="M137 164l-2 -9q-5 -23 -0.5 -43t16.5 -35t30 -23.5t41 -8.5h120l-9 -45h-120q-32 0 -58 12t-42.5 33t-23 49.5t0.5 60.5l2 9h-42l10 46h42l12 55h-42l10 46h43q12 35 34.5 65t52.5 52t64.5 34.5t70.5 12.5h84l-9 -45h-84q-27 0 -52.5 -9t-48 -25t-40 -38t-26.5 -47h176
l-10 -46h-178l-12 -55h178l-10 -46h-178z" />
    <glyph glyph-name="uni2113" unicode="&#x2113;" horiz-adv-x="213" 
d="M197 20q-17 -11 -35.5 -18.5t-41.5 -7.5q-15 0 -22.5 7t-10.5 18t-2 24t4 25l26 122l-48 -25l-14 36l73 41l29 139q3 14 8.5 30t14.5 29t22 21.5t32 8.5q38 0 51 -14t6 -43q-5 -23 -17 -51.5t-29 -56.5t-37.5 -52t-41.5 -38l-31 -148q-2 -9 -1.5 -19t11.5 -10q17 0 34 10
t30 19zM176 271q12 10 23 26.5t20 35t16 37.5t10 33q3 15 -3 18.5t-18 3.5q-11 0 -16.5 -15.5t-8.5 -28.5z" />
    <glyph glyph-name="trademark" unicode="&#x2122;" horiz-adv-x="570" 
d="M584 197h-34l45 208q-41 -54 -83 -109.5t-80 -108.5l-69 218l-45 -208h-35l62 289h34l71 -215l163 214h33zM195 451h-87l8 34h208l-8 -34h-86l-54 -254h-35z" />
    <glyph glyph-name="Ohm" unicode="&#x2126;" horiz-adv-x="490" 
d="M290 0l30 142h15q19 0 37.5 8.5t33.5 23t25.5 32.5t14.5 36l20 94q3 13 0.5 26.5t-9 24.5t-17 18t-24.5 7h-144q-20 0 -38 -8.5t-33 -23t-25.5 -32.5t-14.5 -36l-20 -94q-3 -13 -0.5 -26.5t9 -24.5t17 -18t24.5 -7h37l-30 -142h-172l8 39h135l13 63q-23 0 -41.5 8
t-30.5 22t-16.5 33.5t0.5 42.5l22 104q6 28 22 53t38.5 44.5t49.5 31t55 11.5h144q23 0 41.5 -9.5t30 -25.5t15.5 -37t-1 -44l-20 -94q-5 -25 -18.5 -48t-33 -42t-42.5 -31.5t-48 -16.5l-14 -65h135l-8 -39h-172z" />
    <glyph glyph-name="estimated" unicode="&#x212e;" horiz-adv-x="319" 
d="M105 111q-3 -14 0 -27.5t10 -24t18 -17.5t25 -7q19 0 36.5 7t32.5 19t25.5 28.5t14.5 35.5h45q-6 -29 -22 -52.5t-38 -41t-48.5 -27t-54.5 -9.5q-23 0 -42 9.5t-31 25.5t-16.5 37t0.5 44l24 112q8 40 25.5 71t40.5 52.5t50 33t55 11.5q47 0 70.5 -39t9.5 -105l-11 -51
h-201zM246 351q-19 0 -37 -9t-34 -25t-27.5 -38t-16.5 -48h156l3 16q10 45 -3.5 74.5t-40.5 29.5z" />
    <glyph glyph-name="partialdiff" unicode="&#x2202;" horiz-adv-x="323" 
d="M318 165q-8 -39 -27.5 -70t-44 -53.5t-52.5 -34.5t-53 -12h-5q-24 0 -40.5 10t-26 26t-12 37t2.5 43l9 44q6 28 22 53.5t38.5 44.5t49.5 30.5t55 11.5h66l5 24q4 19 6.5 37.5t0 33.5t-12 24t-30.5 9q-14 0 -26.5 -6.5t-22.5 -16.5t-18 -22t-14 -24l-37 19
q10 17 21.5 33.5t27 30t35 21.5t44.5 8q31 0 48.5 -9.5t25 -28t6 -46t-8.5 -63.5zM292 255h-66q-20 0 -38 -8.5t-33 -23t-26 -32.5t-15 -36l-9 -44q-3 -13 -2 -25.5t6 -22.5t14.5 -16.5t24.5 -6.5q18 0 36.5 8.5t35.5 24.5t30.5 38.5t21.5 50.5z" />
    <glyph glyph-name="Delta" unicode="&#x2206;" horiz-adv-x="397" 
d="M439 0h-443l311 413zM374 43l-85 284l-215 -284h300z" />
    <glyph glyph-name="product" unicode="&#x220f;" horiz-adv-x="530" 
d="M127 453h470l-9 -42h-58l-110 -515h-47l110 515h-260l-110 -515h-47l110 515h-58z" />
    <glyph glyph-name="summation" unicode="&#x2211;" horiz-adv-x="518" 
d="M457 -116h-460l322 307l-198 262h458l-9 -42h-352l163 -220l-283 -266h368z" />
    <glyph glyph-name="minus" unicode="&#x2212;" horiz-adv-x="374" 
d="M79 199l9 42h308l-9 -42h-308z" />
    <glyph glyph-name="radical" unicode="&#x221a;" horiz-adv-x="352" 
d="M167 -14l-48 237h-58l9 43h92l31 -162l218 370h47z" />
    <glyph glyph-name="infinity" unicode="&#x221e;" horiz-adv-x="630" 
d="M204 148q18 0 37 9t37 23t34.5 31.5t30.5 34.5q-11 19 -22.5 36.5t-23.5 31t-25 21.5t-29 8t-32.5 -7.5t-30.5 -21t-24.5 -31.5t-14.5 -39q-10 -46 9 -71t54 -25zM635 247q-6 -29 -20.5 -54t-34.5 -43.5t-44 -29.5t-50 -11q-25 0 -43.5 9t-33.5 24t-27 34.5t-22 40.5
q-18 -21 -38 -40.5t-41 -34.5t-43 -24t-44 -9q-53 0 -79 39t-13 101q14 64 56 97t93 33q24 0 42.5 -9.5t32.5 -25t25.5 -35t21.5 -38.5q18 21 38.5 40.5t42 34.5t44 24t45.5 9q53 0 79 -36t13 -96zM594 244q10 45 -7 72t-54 27q-18 0 -37.5 -9t-38.5 -23.5t-36.5 -33
t-31.5 -36.5q10 -17 21.5 -33.5t24 -30t27 -22t32.5 -8.5q17 0 33.5 7.5t30 21t23 31t13.5 37.5z" />
    <glyph glyph-name="integral" unicode="&#x222b;" horiz-adv-x="268" 
d="M91 -8q-7 -18 -17 -35t-22.5 -30.5t-29 -21.5t-37.5 -8q-11 0 -24 2t-24 5l18 41q7 -2 16.5 -2.5t13.5 -0.5q24 0 40 15t24 38l168 447q14 38 42.5 65.5t70.5 27.5q11 0 25 -1t25 -4l-16 -38q-10 2 -19 3t-14 1q-26 0 -43.5 -15.5t-27.5 -41.5z" />
    <glyph glyph-name="approxequal" unicode="&#x2248;" horiz-adv-x="389" 
d="M264 68q-14 0 -22.5 8t-15.5 17.5t-14 17.5t-18 8q-10 0 -20 -9.5t-14 -25.5h-34q5 20 14 33t20 20.5t22.5 10t22.5 2.5q17 0 27 -8t17 -17.5t13 -17.5t15 -8q10 0 20 9.5t13 25.5h34q-5 -20 -13.5 -33t-19.5 -20.5t-23 -10t-24 -2.5zM290 188q-14 0 -22.5 8t-15.5 17.5
t-14 17.5t-18 8q-10 0 -20 -9.5t-14 -25.5h-34q5 20 14 33t20 20.5t22.5 10t22.5 2.5q17 0 27 -8t17 -17.5t13 -17.5t15 -8q10 0 20 9.5t13 25.5h34q-5 -20 -13.5 -33t-19.5 -20.5t-23 -10t-24 -2.5z" />
    <glyph glyph-name="notequal" unicode="&#x2260;" horiz-adv-x="350" 
d="M174 123l-62 -86h-40l62 86h-74l9 46h97l60 82h-139l10 46h162l66 93h39l-66 -93h79l-10 -46h-102l-59 -82h143l-9 -46h-166z" />
    <glyph glyph-name="lessequal" unicode="&#x2264;" horiz-adv-x="491" 
d="M504 397l-11 -49l-267 -104l223 -104l-10 -49l-316 153zM92 163l332 -173l-9 -45l-333 171z" />
    <glyph glyph-name="greaterequal" unicode="&#x2265;" horiz-adv-x="491" 
d="M464 244l-380 -153l10 49l267 104l-223 104l11 49zM461 163l-406 -173l-9 -45l405 171z" />
    <glyph glyph-name="lozenge" unicode="&#x25ca;" horiz-adv-x="394" 
d="M358 224l-76 178l-152 -178l76 -178zM406 224l-217 -257l-107 257l216 255z" />
    <glyph glyph-name="dottedcircle" unicode="&#x25cc;" horiz-adv-x="408" 
d="M192 41q5 19 23 19q8 0 12.5 -5.5t2.5 -13.5t-8.5 -13.5t-14.5 -5.5q-18 0 -15 19zM397 209q2 8 8.5 13.5t14.5 5.5q18 0 15 -19q-2 -8 -8.5 -13.5t-14.5 -5.5q-18 0 -15 19zM61 209q2 8 8.5 13.5t14.5 5.5q18 0 15 -19q-2 -8 -8.5 -13.5t-14.5 -5.5q-18 0 -15 19z
M263 376q5 19 23 19q8 0 12.5 -5.5t2.5 -13.5t-8.5 -13.5t-14.5 -5.5q-18 0 -15 19zM135 327q2 8 8.5 13.5t14.5 5.5q18 0 15 -19q-2 -8 -8.5 -13.5t-14.5 -5.5q-18 0 -15 19zM372 327q2 8 8.5 13.5t14.5 5.5q18 0 15 -19q-2 -8 -8.5 -13.5t-14.5 -5.5q-18 0 -15 19zM85 90
q2 8 8.5 13.5t14.5 5.5q18 0 15 -19q-5 -19 -23 -19q-8 0 -12.5 5.5t-2.5 13.5zM322 90q2 8 8.5 13.5t14.5 5.5q18 0 15 -19q-5 -19 -23 -19q-8 0 -12.5 5.5t-2.5 13.5zM260 54q2 8 8.5 13.5t14.5 5.5q18 0 15 -19q-2 -8 -8.5 -13.5t-14.5 -5.5q-18 0 -15 19zM131 54
q2 8 8.5 13.5t14.5 5.5q18 0 15 -19q-2 -8 -8.5 -13.5t-14.5 -5.5q-18 0 -15 19zM368 145q5 19 23 19q8 0 12.5 -5.5t2.5 -13.5t-8.5 -13.5t-14.5 -5.5q-18 0 -15 19zM60 145q5 19 23 19q8 0 12.5 -5.5t2.5 -13.5t-8.5 -13.5t-14.5 -5.5q-18 0 -15 19zM87 272q5 19 23 19
q8 0 12.5 -5.5t2.5 -13.5t-8.5 -13.5t-14.5 -5.5q-18 0 -15 19zM396 272q5 19 23 19q8 0 12.5 -5.5t2.5 -13.5t-8.5 -13.5t-14.5 -5.5q-18 0 -15 19zM326 363q2 8 8.5 13.5t14.5 5.5q18 0 15 -19q-5 -19 -23 -19q-8 0 -12.5 5.5t-2.5 13.5zM197 363q2 8 8.5 13.5t14.5 5.5
q18 0 15 -19q-5 -19 -23 -19q-8 0 -12.5 5.5t-2.5 13.5z" />
    <glyph glyph-name="uni0E10.alt1" unicode="&#xf700;" horiz-adv-x="357" 
d="M302 101q-5 -19 -16 -37t-26.5 -32t-34.5 -23t-40 -9h-45l19 92q-9 -3 -19 -3q-26 0 -40.5 19.5t-9.5 45.5q3 13 10.5 24.5t18.5 20.5t23.5 14.5t25.5 5.5q26 0 40.5 -18.5t8.5 -46.5l-24 -114q20 2 39 18t24 37l24 114q-64 43 -196 63q5 25 18.5 51.5t36.5 43.5
q18 13 37.5 21t39.5 8q16 0 31 -4.5t29 -10t28.5 -10.5t30.5 -7q18 0 36 9t41 27l-9 -42q-18 -17 -36 -23.5t-36 -6.5q-17 0 -32 5t-29.5 11t-30 11t-31.5 5q-11 0 -23 -5.5t-22.5 -14.5t-18 -20t-9.5 -21q53 -8 101 -25.5t93 -46.5zM147 119q14 0 26.5 10.5t15.5 24.5
t-5 24.5t-22 10.5t-27 -10.5t-16 -24.5q-2 -13 6 -24t22 -11z" />
    <glyph glyph-name="uni0E34.alt1" unicode="&#xf701;" 
d="M-75 568q17 -23 24 -52t7 -61q-34 10 -68 17t-69 12q-38 5 -77.5 6t-79.5 1q14 28 31 48.5t40 38.5q26 19 54 27.5t56 8.5q27 0 47.5 -12.5t34.5 -33.5zM-164 580q-32 0 -64.5 -14.5t-49.5 -38.5q42 0 93 -4.5t98 -16.5q0 11 -6.5 24t-17 24t-24.5 18.5t-29 7.5z" />
    <glyph glyph-name="uni0E35.alt1" unicode="&#xf702;" 
d="M-164 580q-32 0 -64.5 -14.5t-49.5 -38.5q42 0 93 -4.5t98 -16.5q0 11 -6.5 24t-17 24t-24.5 18.5t-29 7.5zM-338 491q14 28 31 48.5t40 38.5q26 19 54 27.5t56 8.5q27 0 47 -13t34 -31q5 -6 8 -17t2 -16l16 78h40l-34 -160q-34 10 -68 17t-69 12q-38 5 -77.5 6t-79.5 1z
" />
    <glyph glyph-name="uni0E36.alt1" unicode="&#xf703;" 
d="M15 584q-3 -12 -9 -22.5t-15 -19t-20 -13.5t-22 -6q5 -16 6.5 -33t1.5 -35q-34 10 -68 17t-69 12q-38 5 -77.5 6t-79.5 1q14 28 31 48.5t40 38.5q26 19 54 27.5t56 8.5q32 0 55 -17q9 20 27.5 34t41.5 14q24 0 38 -17.5t9 -43.5zM-74 568q5 -7 10 -16q3 -1 5.5 -1.5
t5.5 -0.5q14 0 26 10.5t15 23.5q2 14 -5 24t-21 10t-26.5 -10.5t-14.5 -23.5q-1 -3 -1 -8q2 -2 3.5 -4t2.5 -4zM-163 580q-32 0 -64.5 -14.5t-49.5 -38.5q42 0 93 -4.5t98 -16.5q0 11 -6.5 24t-17 24t-24.5 18.5t-29 7.5z" />
    <glyph glyph-name="uni0E37.alt1" unicode="&#xf704;" 
d="M-45 635h40l-38 -180q-34 10 -68 17t-69 12q-38 5 -77.5 6t-79.5 1q14 28 31 48.5t40 38.5q26 19 54 27.5t56 8.5q8 0 19 -1.5t16 -5.5l5 28h39l-9 -51q8 -7 15.5 -21.5t5.5 -25.5zM-163 580q-32 0 -64.5 -14.5t-49.5 -38.5q42 0 93 -4.5t98 -16.5q0 11 -6.5 24t-17 24
t-24.5 18.5t-29 7.5z" />
    <glyph glyph-name="uni0E48.alt1" unicode="&#xf705;" 
d="M-78 648h43l-34 -156h-42z" />
    <glyph glyph-name="uni0E49.alt1" unicode="&#xf706;" 
d="M-257 504q29 5 46 16t27 19q-20 2 -32 18t-7 37t25 38.5t42 17.5t35 -16.5t8 -39.5q-8 -34 -23 -51.5t-35 -31.5q25 0 47.5 11t40.5 28t30.5 39t17.5 43h37q-6 -30 -24 -58.5t-42.5 -51t-54.5 -36.5t-61 -14q-32 0 -49 10.5t-28 21.5zM-162 625q-11 0 -22.5 -9.5
t-13.5 -21.5q-3 -12 4.5 -20.5t19.5 -8.5t22.5 8t13.5 21q2 12 -5.5 21.5t-18.5 9.5z" />
    <glyph glyph-name="uni0E4A.alt1" unicode="&#xf707;" 
d="M-242.902 569q4.5 2 7.2002 2h6.2998q17.1006 0 29.251 -16t8.5498 -36q-3.59961 -19 -21.1504 -35t-36.4512 -16q-18 0 -29.251 15.5q-11.25 15.5 -6.75 35.5l7.2002 37q4.5 23 17.1006 39t28.8008 25.5t34.2012 14q18 4.5 32.4004 4.5l6.30078 -60l29.7002 60
q28.8008 0 39.1514 -20t4.0498 -52l-9 -46q21.6006 18 35.5508 52.5q13.9512 34.5 20.251 66.5h27.001q-5.40039 -30 -17.1006 -59.5t-27.4512 -53.5q-15.75 -24 -35.1006 -38.5t-40.0508 -14.5l18 93q3.59961 18 -0.900391 28t-11.7002 12l-41.4014 -81l-12.5996 81
q-9 0 -19.3506 -3t-18.9004 -8q-8.55078 -5 -15.3008 -12t-8.5498 -15zM-244.703 492q9.90039 0 19.8008 8t11.7002 19t-4.5 19.5t-16.2002 8.5t-18.9004 -8t-10.8008 -20q-1.7998 -11 3.60059 -19q5.39941 -8 15.2998 -8z" />
    <glyph glyph-name="uni0E4B.alt1" unicode="&#xf708;" 
d="M-17 594l-9 -41h-75l-16 -79h-45l17 79h-75l9 41h75l17 79h44l-17 -79h75z" />
    <glyph glyph-name="uni0E4C.alt1" unicode="&#xf709;" 
d="M146 676q-6 -20 -19 -37t-30 -32q-44 -36 -91 -36h-26q4 -12 -1 -28q-5 -26 -27 -45t-49 -19q-26 0 -41.5 19t-10.5 45q3 13 11 24.5t18.5 20.5t23.5 14t26 5h84q32 0 63 26q11 9 19.5 20t13.5 23h36zM-50 543q4 14 -4 24.5t-22 10.5t-26.5 -10.5t-16.5 -24.5
q-2 -14 6 -24.5t22 -10.5t26.5 10.5t14.5 24.5z" />
    <glyph glyph-name="uni0E48.alt2" unicode="&#xf70a;" 
d="M7 645h43l-34 -156h-42z" />
    <glyph glyph-name="uni0E49.alt2" unicode="&#xf70b;" 
d="M-132 504q29 5 46 16t27 19q-20 2 -32 18t-7 37t25 38.5t42 17.5t35 -16.5t8 -39.5q-8 -34 -23 -51.5t-35 -31.5q25 0 47.5 11t40.5 28t30.5 39t17.5 43h37q-6 -30 -24 -58.5t-42.5 -51t-54.5 -36.5t-61 -14q-32 0 -49 10.5t-28 21.5zM-37 625q-11 0 -22.5 -9.5
t-13.5 -21.5q-3 -12 4.5 -20.5t19.5 -8.5t22.5 8t13.5 21q2 12 -5.5 21.5t-18.5 9.5z" />
    <glyph glyph-name="uni0E4A.alt2" unicode="&#xf70c;" 
d="M-111 569q5 2 8 2h7q19 0 32.5 -16t9.5 -36q-4 -19 -23.5 -35t-40.5 -16q-20 0 -32.5 15.5t-7.5 35.5l8 37q5 23 19 39t32 25.5t38 14t36 4.5l7 -60l33 60q32 0 43.5 -20t4.5 -52l-10 -46q24 18 39.5 52.5t22.5 66.5h30q-6 -30 -19 -59.5t-30.5 -53.5t-39 -38.5
t-44.5 -14.5l20 93q4 18 -1 28t-13 12l-46 -81l-14 81q-10 0 -21.5 -3t-21 -8t-17 -12t-9.5 -15zM-113 492q11 0 22 8t13 19t-5 19.5t-18 8.5t-21 -8t-12 -20q-2 -11 4 -19t17 -8z" />
    <glyph glyph-name="uni0E4B.alt2" unicode="&#xf70d;" 
d="M86 594l-9 -41h-75l-16 -79h-45l17 79h-75l9 41h75l17 79h44l-17 -79h75z" />
    <glyph glyph-name="uni0E4C.alt2" unicode="&#xf70e;" 
d="M203 674q-6 -20 -19 -37t-30 -32q-44 -36 -91 -36h-26q4 -12 -1 -28q-5 -26 -27 -45t-49 -19q-26 0 -41.5 19t-10.5 45q3 13 11 24.5t18.5 20.5t23.5 14t26 5h84q32 0 63 26q11 9 19.5 20t13.5 23h36zM7 541q4 14 -4 24.5t-22 10.5t-26.5 -10.5t-16.5 -24.5
q-2 -14 6 -24.5t22 -10.5t26.5 10.5t14.5 24.5z" />
    <glyph glyph-name="uni0E0D.alt1" unicode="&#xf70f;" horiz-adv-x="571" 
d="M144 126q10 3 19 3q23 0 39.5 -18t10.5 -46q-3 -13 -10.5 -25t-18 -21t-23 -14t-25.5 -5q-25 0 -41 17t-11 38l32 152q5 18 -5.5 34.5t-27.5 18.5q9 28 27.5 53t43 43.5t53 29t56.5 10.5h61q19 0 35.5 -8.5t27.5 -22t15.5 -32t0.5 -37.5l-54 -256h78q22 2 42.5 20.5
t25.5 41.5l63 294h45l-63 -294q-4 -20 -16 -38.5t-28.5 -32.5t-36 -22.5t-40.5 -8.5h-77q-18 0 -28.5 14t-8.5 31l53 251q5 23 -8 41.5t-35 18.5h-63q-15 0 -31.5 -6.5t-31.5 -17.5t-27.5 -24.5t-20.5 -27.5q17 -16 20.5 -35t-0.5 -38zM157 101q-14 0 -26 -10.5t-14 -24.5
q-4 -14 3.5 -24.5t21.5 -10.5t26.5 10.5t16.5 24.5q2 14 -6 24.5t-22 10.5z" />
    <glyph glyph-name="uni0E31.alt1" unicode="&#xf710;" 
d="M95 614q-14 -64 -69 -108q-30 -24 -63 -35t-67 -11q-17 0 -33 3.5t-28 8.5q-20 10 -31.5 28t-6.5 43q5 26 26.5 44t47.5 18q25 0 39 -18t9 -44q-3 -14 -10 -26t-21 -20q6 -1 12.5 -1h12.5q24 1 48.5 8t46.5 26q37 33 51 84h36zM-135 577q-14 0 -25 -9t-14 -25
q-3 -13 4 -23.5t21 -10.5t25.5 10.5t14.5 23.5q3 14 -4.5 24t-21.5 10z" />
    <glyph glyph-name="uni0E4D.alt1" unicode="&#xf711;" 
d="M-59 538q-3 -12 -10.5 -23.5t-18 -20.5t-23.5 -14.5t-26 -5.5q-25 0 -40 19.5t-10 44.5q5 26 28 45t49 19t41 -19t10 -45zM-116 573q-14 0 -26.5 -10.5t-15.5 -24.5q-3 -12 5 -23.5t22 -11.5q15 0 27 11t15 24q3 14 -5 24.5t-22 10.5z" />
    <glyph glyph-name="uni0E47.alt1" unicode="&#xf712;" 
d="M-99 504q11 0 20 7.5t11 18.5t-3.5 18.5t-16.5 7.5q-10 0 -20 -7.5t-12 -18.5t4.5 -18.5t16.5 -7.5zM-84 578q20 0 31.5 -13t6.5 -35q-3 -13 -10 -25t-17.5 -21.5t-23.5 -15t-26 -5.5q-18 0 -36 7t-26 24q-3 -4 -6 -9l-6 -10q-4 -6 -7 -12q-27 8 -42.5 31t-8.5 55
q5 24 21.5 44.5t39.5 31.5q20 9 41 11t41 2h36t13 1q23 2 40.5 19t22.5 39h31q-4 -19 -14 -35.5t-23.5 -29t-29.5 -20t-32 -7.5q-10 0 -22 0.5t-26 0.5q-17 0 -34.5 -2t-33.5 -9q-32 -14 -38 -45q-2 -12 0 -23.5t10 -18.5q4 6 9 14.5t10 16.5q5 9 10 19h18q-1 -4 -1 -8
q-2 -8 0 -19q2 -14 14.5 -27.5t26.5 -14.5q-9 5 -13.5 17t-2.5 24q5 22 22.5 35t34.5 13z" />
    <glyph glyph-name="uni0E48.alt3" unicode="&#xf713;" 
d="M-10 800h40l-28 -131h-40z" />
    <glyph glyph-name="uni0E49.alt3" unicode="&#xf714;" 
d="M-74 675q24 5 39 14t23 16q-17 2 -27.5 15.5t-6.5 31.5t21.5 32.5t35.5 14.5q20 0 31.5 -14t6.5 -33q-6 -29 -22 -45t-32 -26q25 0 45 9t35.5 24t25.5 33.5t15 36.5h32q-5 -25 -20.5 -50t-37 -44.5t-47 -31.5t-52.5 -12t-42 10t-23 19zM7 778q-9 0 -19 -8t-12 -18
q-2 -11 4 -18t16 -7q11 0 20 7t11 18q2 10 -4 18t-16 8z" />
    <glyph glyph-name="uni0E4A.alt3" unicode="&#xf715;" 
d="M-73 736q4 1 11 1q17 0 28.5 -13t7.5 -30q-3 -15 -19.5 -28.5t-34.5 -13.5q-15 0 -25.5 12.5t-6.5 29.5l6 30q4 19 14.5 32.5t24.5 21.5t29 11.5t29 3.5l11 -39l30 39q26 0 32 -16t0 -43l-7 -37q20 14 30.5 43t15.5 55h24q-5 -25 -15 -50t-23.5 -44.5t-30 -32
t-35.5 -12.5l16 78q2 10 2 20.5t-7 12.5l-41 -57l-18 57q-17 0 -30.5 -8.5t-17.5 -22.5zM-76 671q10 0 19 7t11 16q2 10 -4 17t-16 7q-8 0 -16.5 -6.5t-10.5 -17.5q-2 -9 3.5 -16t13.5 -7z" />
    <glyph glyph-name="uni0E4B.alt3" unicode="&#xf716;" 
d="M74 743l-8 -38h-56l-12 -57h-43l12 57h-55l7 38h56l12 56h43l-12 -56h56z" />
    <glyph glyph-name="uni0E4C.alt3" unicode="&#xf717;" 
d="M210 800q-14 -42 -46 -64.5t-75 -22.5h-26q2 -11 -1 -28q-5 -26 -28 -45t-50 -19q-26 0 -41 19t-10 45q3 13 10.5 24.5t18.5 20.5t24 14t26 5h85q28 0 47 12t30 39h36zM33 685q3 14 -5 24.5t-22 10.5t-27 -10.5t-16 -24.5t5.5 -24.5t22.5 -10.5t26.5 10.5t15.5 24.5z" />
    <glyph glyph-name="uni0E38.alt1" unicode="&#xf718;" 
d="M-91 -396h-45l11 55q-5 -2 -16 -2t-20.5 4.5t-16 12.5t-9 18.5t-0.5 22.5q5 23 26.5 40.5t44.5 17.5q23 -1 38 -17.5t10 -39.5zM-122 -253q-12 0 -23.5 -9.5t-14.5 -22.5q-2 -12 4.5 -22t19.5 -10q14 0 25.5 9.5t13.5 22.5q3 13 -5 22.5t-20 9.5z" />
    <glyph glyph-name="uni0E39.alt1" unicode="&#xf719;" 
d="M-86 -359q-9 -40 -53 -40h-82l13 63q-4 -2 -7.5 -2h-6.5q-23 0 -35.5 16t-7.5 39q5 22 24.5 38.5t41.5 16.5q21 0 37 -14.5t11 -39.5l-17 -77h37l28 131h45zM-180 -283q2 12 -4.5 21t-19.5 9q-14 0 -24 -9t-12 -21q-3 -12 3 -21t20 -9q12 0 23 8.5t14 21.5z" />
    <glyph glyph-name="uni0E3A.alt1" unicode="&#xf71a;" 
d="M-129 -243q14 0 22.5 -10.5t5.5 -24.5q-3 -13 -15.5 -24t-27.5 -11q-14 0 -22 11.5t-5 23.5q3 14 15.5 24.5t26.5 10.5z" />
    <glyph glyph-name="uni0E0E.alt1" unicode="&#xf71b;" horiz-adv-x="408" 
d="M163 60q-5 -25 -27.5 -42.5t-47.5 -17.5q-26 0 -40.5 19t-9.5 44q5 26 27.5 44.5t48.5 18.5h9t9 -2l17 82q2 8 -2 17.5t-11.5 18t-18 14.5t-21.5 7q9 28 27.5 52.5t43 42.5t53 28t56.5 10h61q19 0 35.5 -8.5t27.5 -22t15.5 -32t0.5 -37.5l-83 -393q-25 -35 -55 -61.5
t-67 -41.5l-56 49q-11 -20 -30.5 -32t-39.5 -12q-24 0 -39.5 19t-9.5 45q5 26 28 44.5t48 18.5q24 0 44 -18l67 -62q32 13 66 58l82 386q5 23 -8 41.5t-35 18.5h-63q-15 0 -31 -6t-31 -16.5t-27.5 -23.5t-20.5 -27q8 -3 16.5 -10.5t14.5 -18t8.5 -23t-0.5 -25.5zM67 63
q-3 -14 5.5 -24t21.5 -10q14 0 26.5 10t15.5 24q3 15 -5.5 24.5t-22.5 9.5t-26 -10t-15 -24zM65 -131q-3 -14 5 -24.5t21 -10.5q14 0 27 10.5t16 24.5t-4 24t-24 10q-14 0 -26.5 -10t-14.5 -24z" />
    <glyph glyph-name="uni0E0F.alt1" unicode="&#xf71c;" horiz-adv-x="407" 
d="M333 -98q-3 -12 -8.5 -24t-14.5 -23q-11 -12 -29 -25t-47 -30l-32 77l-61 -77l-24 44q-11 -14 -27.5 -23t-33.5 -9q-26 0 -41 19t-10 45q6 26 29 45t49 19q29 0 45 -24l27 -57l62 78l34 -78q7 4 12.5 8t10.5 9q9 8 14 26l83 394q5 23 -8 41.5t-35 18.5h-63q-15 0 -31 -6
t-31 -16.5t-27.5 -23.5t-20.5 -27q17 -7 31 -28.5t8 -47.5l-31 -147q-5 -25 -27.5 -42.5t-47.5 -17.5t-40 18.5t-10 44.5q5 25 28 44t48 19h9.5t8.5 -2l17 82q2 8 -2 17.5t-11.5 18t-18 14.5t-21.5 7q9 28 27.5 52.5t43 42.5t53 28t56.5 10h61q19 0 35.5 -8.5t27.5 -22
t15.5 -32t0.5 -37.5zM67 63q-3 -14 5.5 -24t21.5 -10q15 0 27 10t15 24t-5.5 24t-22.5 10q-14 -1 -26 -11t-15 -23zM34 -124q-2 -13 6 -24t22 -11t26.5 10.5t15.5 24.5t-5 24.5t-22 10.5t-27 -10.5t-16 -24.5z" />
    </font>
</defs>
</svg>
